{
.appVersion = "3199";
copyright = "© Ariel Martín Pérez, 2023";
customParameters = (
{
name = trademark;
value = "Ariel Martín Pérez - www.appliedmetaprojects.com";
},
{
name = license;

glyphs = (
{
color = 4;
glyphname = A;
lastChange = "2023-06-09 06:26:10 +0000";
layers = (
{
anchors = (
{
name = bottom;
position = "{195, 0}";
},
{
name = ogonek;
position = "{374, 0}";
},
{
name = top;
position = "{195, 700}";
}
);
components = (
{
alignment = -1;
name = V;
transform = "{-1, 0, 0, -1, 388, 700}";
}
);
guideLines = (
{
position = "{193, 128}";
},
{
position = "{304, 615}";
}
);
layerId = "BEE1AFF0-4415-4363-825D-BBA98FF62E65";
paths = (
{
closed = 1;
nodes = (
"315 128 LINE",
"315 218 LINE",
"70.5 218 LINE",
"70.5 128 LINE"
);
}
);
width = 388;
}
);
leftKerningGroup = A;
rightKerningGroup = A;
unicode = 0041;
},
{
color = 4;
glyphname = AE;
lastChange = "2023-06-06 07:09:33 +0000";
layers = (
{
anchors = (
{
name = bottom;
position = "{258, 0}";
},
{
name = top;
position = "{258, 700}";
}
);
layerId = "BEE1AFF0-4415-4363-825D-BBA98FF62E65";
paths = (
{
closed = 1;
nodes = (
"114 0 LINE",
"224.5 700 LINE",
"143.5 700 LINE",
"14 0 LINE"
);
},
{
closed = 1;
nodes = (
"257 128 LINE",
"257 218 LINE",
"82.5 218 LINE",
"82.5 128 LINE"
);
},
{
closed = 1;
nodes = (
"439 0 LINE",
"439 90 LINE",
"264 90 LINE",
"264 0 LINE"
);
},
{
closed = 1;
nodes = (
"314 0 LINE",
"314 700 LINE",
"214 700 LINE",
"214 0 LINE"
);
},
{
closed = 1;
nodes = (
"419 328 LINE",
"419 418 LINE",
"264 418 LINE",
"264 328 LINE"
);
},
{
closed = 1;
nodes = (
"439 610 LINE",
"439 700 LINE",
"264 700 LINE",
"264 610 LINE"
);
}
);
width = 459;
}
);
leftKerningGroup = A;
leftMetricsKey = A;
rightKerningGroup = E;
rightMetricsKey = E;
unicode = 00C6;
},
{
color = 4;
glyphname = B;
lastChange = "2023-06-07 09:11:08 +0000";
layers = (
{
anchors = (
{
name = top;
position = "{187, 700}";
}
);
associatedMasterId = "BEE1AFF0-4415-4363-825D-BBA98FF62E65";
layerId = "F33B3460-39D1-481C-82B6-987C80AEEF7C";
name = "Oct 31 20, 18:37";
paths = (
{
closed = 1;
nodes = (
"300 383 OFFCURVE",
"342 453 OFFCURVE",
"342 543.5 CURVE SMOOTH",
"342 637.5 OFFCURVE",
"281.5 700 OFFCURVE",
"191 700 CURVE SMOOTH",
"132 700 LINE",
"132 620 LINE",
"154 620 LINE SMOOTH",
"220 620 OFFCURVE",
"251 592.5 OFFCURVE",
"251 533.5 CURVE SMOOTH",
"251 471.5 OFFCURVE",
"208 427 OFFCURVE",
"132 427 CURVE",
"132 383 LINE"
);
},
{
closed = 1;
nodes = (
"135 0 LINE",
"135 700 LINE",
"35 700 LINE",
"35 0 LINE"
);
},
{
closed = 1;
nodes = (
"191 0 LINE SMOOTH",
"296.5 0 OFFCURVE",
"367 79 OFFCURVE",
"367 213 CURVE SMOOTH",
"367 367.5 OFFCURVE",
"278 406 OFFCURVE",
"132 406 CURVE",
"132 357 LINE",
"154 357 LINE SMOOTH",
"241 357 OFFCURVE",
"275 312.5 OFFCURVE",
"275 223.5 CURVE SMOOTH",
"275 144.5 OFFCURVE",
"246.5 100 OFFCURVE",
"169 100 CURVE SMOOTH",
"132 100 LINE",
"132 0 LINE"
);
}
);
width = 382;
},
{
anchors = (
{
name = top;
position = "{187, 700}";
}
);
associatedMasterId = "BEE1AFF0-4415-4363-825D-BBA98FF62E65";
guideLines = (
{
angle = 90;
position = "{169, 100}";
}
);
layerId = "F71EF40C-F535-4547-ABFF-19CADE137278";
name = "Oct 31 20, 18:51";
paths = (
{
closed = 1;
nodes = (
"285 383 OFFCURVE",
"338 453 OFFCURVE",
"338 553.5 CURVE SMOOTH",
"338 647.5 OFFCURVE",
"281.5 700 OFFCURVE",
"169 700 CURVE SMOOTH",
"132 700 LINE",
"132 620 LINE",
"169 620 LINE SMOOTH",
"220 620 OFFCURVE",
"236 589.5 OFFCURVE",
"236 543.5 CURVE SMOOTH",
"236 481.5 OFFCURVE",
"193 427 OFFCURVE",
"132 427 CURVE",
"132 383 LINE"
);
},
{
closed = 1;
nodes = (
"135 0 LINE",
"135 700 LINE",
"35 700 LINE",
"35 0 LINE"
);
},
{
closed = 1;
nodes = (
"186 0 LINE SMOOTH",
"276.5 0 OFFCURVE",
"362 89 OFFCURVE",
"362 223 CURVE SMOOTH",
"362 377.5 OFFCURVE",
"263 406 OFFCURVE",
"132 406 CURVE",
"132 357 LINE",
"154 357 LINE SMOOTH",
"226 357 OFFCURVE",
"260 322.5 OFFCURVE",
"260 233.5 CURVE SMOOTH",
"260 154.5 OFFCURVE",
"231.5 100 OFFCURVE",
"169 100 CURVE SMOOTH",
"132 100 LINE",
"132 0 LINE"
);
}
);
width = 380;
},
{
anchors = (
{
name = top;
position = "{187, 700}";
}
);
associatedMasterId = "BEE1AFF0-4415-4363-825D-BBA98FF62E65";
guideLines = (
{
angle = 90;
position = "{186, 0}";
}
);
layerId = "8573DFB7-C7BC-496E-89E0-95FFBEAD0B7E";
name = "Oct 31 20, 23:24";
paths = (
{
closed = 1;
nodes = (
"240.5 373 OFFCURVE",
"323 455 OFFCURVE",
"323 553.5 CURVE SMOOTH",
"323 641.5 OFFCURVE",
"262 700 OFFCURVE",
"186 700 CURVE SMOOTH",
"132 700 LINE",
"132 620 LINE",
"169 620 LINE SMOOTH",
"199 620 OFFCURVE",
"221 589.5 OFFCURVE",
"221 543.5 CURVE SMOOTH",
"221 481.5 OFFCURVE",
"178 427 OFFCURVE",
"132 427 CURVE",
"132 373 LINE"
);
},
{
closed = 1;
nodes = (
"135 0 LINE",
"135 700 LINE",
"35 700 LINE",
"35 0 LINE"
);
},
{
closed = 1;
nodes = (
"186 0 LINE SMOOTH",
"261.5 0 OFFCURVE",
"347 79 OFFCURVE",
"347 223 CURVE SMOOTH",
"347 377.5 OFFCURVE",
"248 406 OFFCURVE",
"132 406 CURVE",
"132 357 LINE",
"154 357 LINE SMOOTH",
"211 357 OFFCURVE",
"245 322.5 OFFCURVE",
"245 233.5 CURVE SMOOTH",
"245 154.5 OFFCURVE",
"216.5 100 OFFCURVE",
"169 100 CURVE SMOOTH",
"132 100 LINE",
"132 0 LINE"
);
}
);
width = 372;
},
{
anchors = (
{
name = top;
position = "{187, 700}";
}
);
associatedMasterId = "BEE1AFF0-4415-4363-825D-BBA98FF62E65";
guideLines = (
{
angle = 90;
position = "{186, 0}";
}
);
layerId = "53DF7275-B5FA-4788-B0A5-0887907ADFDB";
name = "Oct 31 20, 23:24";
paths = (
{
closed = 1;
nodes = (
"240.5 373 OFFCURVE",
"323 455 OFFCURVE",
"323 553.5 CURVE SMOOTH",
"323 641.5 OFFCURVE",
"262 700 OFFCURVE",
"186 700 CURVE SMOOTH",
"132 700 LINE",
"132 620 LINE",
"169 620 LINE SMOOTH",
"199 620 OFFCURVE",
"221 589.5 OFFCURVE",
"221 543.5 CURVE SMOOTH",
"221 481.5 OFFCURVE",
"178 427 OFFCURVE",
"132 427 CURVE",
"132 373 LINE"
);
},
{
closed = 1;
nodes = (
"135 0 LINE",
"135 700 LINE",
"35 700 LINE",
"35 0 LINE"
);
},
{
closed = 1;
nodes = (
"186 0 LINE SMOOTH",
"261.5 0 OFFCURVE",
"347 79 OFFCURVE",
"347 223 CURVE SMOOTH",
"347 377.5 OFFCURVE",
"248 406 OFFCURVE",
"132 406 CURVE",
"132 357 LINE",
"154 357 LINE SMOOTH",
"211 357 OFFCURVE",
"245 322.5 OFFCURVE",
"245 233.5 CURVE SMOOTH",
"245 154.5 OFFCURVE",
"216.5 100 OFFCURVE",
"169 100 CURVE SMOOTH",
"132 100 LINE",
"132 0 LINE"
);
}
);
width = 372;
},
{
anchors = (
{
name = bottom;
position = "{163, 0}";
},
{
name = top;
position = "{166, 700}";
}
);
guideLines = (
{
angle = 90;
position = "{192, 0}";
}
);
layerId = "BEE1AFF0-4415-4363-825D-BBA98FF62E65";
paths = (
{
closed = 1;
nodes = (
"192 0 LINE SMOOTH",
"277.5 0 OFFCURVE",
"363 79 OFFCURVE",
"363 223 CURVE SMOOTH",
"363 377.5 OFFCURVE",
"264 406 OFFCURVE",
"138 406 CURVE",
"138 357 LINE",
"160 357 LINE SMOOTH",
"227 357 OFFCURVE",
"261 322.5 OFFCURVE",
"261 233.5 CURVE SMOOTH",
"261 154.5 OFFCURVE",
"232.5 100 OFFCURVE",
"175 100 CURVE SMOOTH",
"118 100 LINE",
"118 0 LINE"
);
},
{
closed = 1;
nodes = (
"141 0 LINE",
"141 700 LINE",
"36 700 LINE",
"36 0 LINE"
);
},
{
closed = 1;
nodes = (
"256.5 373 OFFCURVE",
"339 455 OFFCURVE",
"339 553.5 CURVE SMOOTH",
"339 641.5 OFFCURVE",
"278 700 OFFCURVE",
"192 700 CURVE SMOOTH",
"118 700 LINE",
"118 620 LINE",
"175 620 LINE SMOOTH",
"215 620 OFFCURVE",
"237 589.5 OFFCURVE",
"237 543.5 CURVE SMOOTH",
"237 481.5 OFFCURVE",
"194 427 OFFCURVE",
"138 427 CURVE",
"138 373 LINE"
);
}
);
width = 389;
}
);
leftKerningGroup = H;
leftMetricsKey = H;
rightKerningGroup = B;
unicode = 0042;
},
{
color = 4;
glyphname = C;
lastChange = "2023-06-06 07:09:33 +0000";
layers = (
{
anchors = (
{
name = bottom;
position = "{262, -8}";
},
{
name = top;
position = "{262, 708}";
}
);
associatedMasterId = "BEE1AFF0-4415-4363-825D-BBA98FF62E65";
layerId = "2238F220-D4A0-446D-AB11-49176B1F2376";
name = "Oct 31 20, 15:34";
paths = (
{
closed = 1;
nodes = (
"145 350 LINE",
"145 505 OFFCURVE",
"187 608 OFFCURVE",
"250 608 CURVE",
"250 708 LINE",
"102 708 OFFCURVE",
"35 526 OFFCURVE",
"35 350 CURVE"
);
},
{
closed = 1;
nodes = (
"35 174 OFFCURVE",
"102 -8 OFFCURVE",
"250 -8 CURVE",
"250 92 LINE",
"187 92 OFFCURVE",
"145 195 OFFCURVE",
"145 350 CURVE",
"35 350 LINE"
);
},
{
closed = 1;
nodes = (
"369 669.5 OFFCURVE",
"318 708 OFFCURVE",
"250 708 CURVE",
"250 608 LINE",
"280 608 OFFCURVE",
"305.5 584.5 OFFCURVE",
"323.5 543.5 CURVE",
"404 610.5 LINE"
);
},
{
closed = 1;
nodes = (
"323.5 156.5 LINE",
"305.5 115.5 OFFCURVE",
"280 92 OFFCURVE",
"250 92 CURVE",
"250 -8 LINE",
"318 -8 OFFCURVE",
"369 30.5 OFFCURVE",
"404 89.5 CURVE"
);
}
);
width = 464.5;
},
{
anchors = (
{
name = bottom;
position = "{230, -8}";
},
{
name = top;
position = "{230, 708}";
}
);
associatedMasterId = "BEE1AFF0-4415-4363-825D-BBA98FF62E65";
layerId = "54173C1B-4483-4BE0-ACD4-1AD26975C67E";
name = "26 oct. 22 à 09:41";
paths = (
{
closed = 1;
nodes = (
"135 350 LINE",
"135 505 OFFCURVE",
"177 608 OFFCURVE",
"230 608 CURVE",
"230 708 LINE",
"92 708 OFFCURVE",
"25 526 OFFCURVE",
"25 350 CURVE"
);
},
{
closed = 1;
nodes = (
"25 174 OFFCURVE",
"92 -8 OFFCURVE",
"230 -8 CURVE",
"230 92 LINE",
"177 92 OFFCURVE",
"135 194.5 OFFCURVE",
"135 350 CURVE",
"25 350 LINE"
);
},
{
closed = 1;
nodes = (
"339 669.5 OFFCURVE",
"288 708 OFFCURVE",
"230 708 CURVE",
"230 608 LINE",
"260 608 OFFCURVE",
"280.5 584.5 OFFCURVE",
"293.5 543.5 CURVE",
"374 610.5 LINE"
);
},
{
closed = 1;
nodes = (
"293.5 156.5 LINE",
"280.5 115.5 OFFCURVE",
"260 92 OFFCURVE",
"230 92 CURVE",
"230 -8 LINE",
"298 -8 OFFCURVE",
"339 30.5 OFFCURVE",
"374 89.5 CURVE"
);
}
);
width = 389;
},
{
anchors = (
{
name = bottom;
position = "{220, -8}";
},
{
name = top;
position = "{220, 708}";
}
);
associatedMasterId = "BEE1AFF0-4415-4363-825D-BBA98FF62E65";
layerId = "07C64833-52E3-44EA-8ACF-F9AE36D94DA1";
name = "15 nov. 22 à 09:27";
paths = (
{
closed = 1;
nodes = (
"25 76.5 OFFCURVE",
"104 -10 OFFCURVE",
"210 -10 CURVE",
"210 90 LINE",
"168.5 90 OFFCURVE",
"135 142 OFFCURVE",
"135 350 CURVE SMOOTH",
"135 558 OFFCURVE",
"168.5 610 OFFCURVE",
"210 610 CURVE",
"210 710 LINE",
"104 710 OFFCURVE",
"25 623.5 OFFCURVE",
"25 350 CURVE SMOOTH"
);
},
{
closed = 1;
nodes = (
"377 490.5 LINE",
"352.5 654 OFFCURVE",
"295 710 OFFCURVE",
"210 710 CURVE",
"210 610 LINE",
"242.5 610 OFFCURVE",
"256 580 OFFCURVE",
"267 465.5 CURVE"
);
},
{
closed = 1;
nodes = (
"267 252 LINE",
"258.5 121 OFFCURVE",
"242 90 OFFCURVE",
"210 90 CURVE",
"210 -10 LINE",
"300.5 -10 OFFCURVE",
"362.5 53 OFFCURVE",
"382 242 CURVE"
);
}
);
width = 398;
},
{
anchors = (
{
name = bottom;
position = "{220, -8}";
},
{
name = top;
position = "{220, 708}";
}
);
associatedMasterId = "BEE1AFF0-4415-4363-825D-BBA98FF62E65";
layerId = "7F97E586-6836-46B7-8D48-3F6E455453A8";
name = "15 nov. 22 à 09:28";
paths = (
{
closed = 1;
nodes = (
"135 350 LINE",
"135 505 OFFCURVE",
"177 608 OFFCURVE",
"220 608 CURVE",
"220 708 LINE",
"92 708 OFFCURVE",
"25 526 OFFCURVE",
"25 350 CURVE"
);
},
{
closed = 1;
nodes = (
"25 174 OFFCURVE",
"92 -8 OFFCURVE",
"220 -8 CURVE",
"220 92 LINE",
"177 92 OFFCURVE",
"135 194.5 OFFCURVE",
"135 350 CURVE",
"25 350 LINE"
);
},
{
closed = 1;
nodes = (
"319 669.5 OFFCURVE",
"268 708 OFFCURVE",
"220 708 CURVE",
"220 608 LINE",
"240 608 OFFCURVE",
"260.5 584.5 OFFCURVE",
"273.5 543.5 CURVE",
"354 610.5 LINE"
);
},
{
closed = 1;
nodes = (
"273.5 156.5 LINE",
"260.5 115.5 OFFCURVE",
"240 92 OFFCURVE",
"220 92 CURVE",
"220 -8 LINE",
"278 -8 OFFCURVE",
"319 30.5 OFFCURVE",
"354 89.5 CURVE"
);
}
);
width = 370;
},
{
anchors = (
{
name = bottom;
position = "{220, -8}";
},
{
name = top;
position = "{220, 708}";
}
);
associatedMasterId = "BEE1AFF0-4415-4363-825D-BBA98FF62E65";
layerId = "760A4108-64FE-46B6-A6B0-330BBD17A659";
name = "22 nov. 22 à 09:23";
paths = (
{
closed = 1;
nodes = (
"25 76.5 OFFCURVE",
"104 -10 OFFCURVE",
"210 -10 CURVE",
"210 90 LINE",
"168.5 90 OFFCURVE",
"135 142 OFFCURVE",
"135 350 CURVE SMOOTH",
"135 558 OFFCURVE",
"168.5 610 OFFCURVE",
"210 610 CURVE",
"210 710 LINE",
"104 710 OFFCURVE",
"25 623.5 OFFCURVE",
"25 350 CURVE SMOOTH"
);
},
{
closed = 1;
nodes = (
"442.5 502 LINE",
"400.5 381 LINE",
"395.5 630 OFFCURVE",
"312 710 OFFCURVE",
"210 710 CURVE",
"210 610 LINE",
"252 610 OFFCURVE",
"287 560 OFFCURVE",
"285.5 345 CURVE",
"240 456 LINE"
);
},
{
closed = 1;
nodes = (
"238.5 256 LINE",
"285 337 LINE",
"285.5 133.5 OFFCURVE",
"248 90 OFFCURVE",
"210 90 CURVE",
"210 -10 LINE",
"310.5 -10 OFFCURVE",
"394 68 OFFCURVE",
"400.5 309.5 CURVE",
"442.5 238 LINE"
);
}
);
width = 418;
},
{
anchors = (
{
name = bottom;
position = "{220, -8}";
},
{
name = top;
position = "{220, 708}";
}
);
associatedMasterId = "BEE1AFF0-4415-4363-825D-BBA98FF62E65";
layerId = "B40406BB-B3C7-45B8-9D65-0311238B8775";
name = "22 nov. 22 à 09:23";
paths = (
{
closed = 1;
nodes = (
"135 350 LINE",
"135 505 OFFCURVE",
"177 608 OFFCURVE",
"220 608 CURVE",
"220 708 LINE",
"92 708 OFFCURVE",
"25 526 OFFCURVE",
"25 350 CURVE"
);
},
{
closed = 1;
nodes = (
"25 174 OFFCURVE",
"92 -8 OFFCURVE",
"220 -8 CURVE",
"220 92 LINE",
"177 92 OFFCURVE",
"135 194.5 OFFCURVE",
"135 350 CURVE",
"25 350 LINE"
);
},
{
closed = 1;
nodes = (
"319 669.5 OFFCURVE",
"268 708 OFFCURVE",
"220 708 CURVE",
"220 608 LINE",
"240 608 OFFCURVE",
"260.5 584.5 OFFCURVE",
"273.5 543.5 CURVE",
"354 610.5 LINE"
);
},
{
closed = 1;
nodes = (
"273.5 156.5 LINE",
"260.5 115.5 OFFCURVE",
"240 92 OFFCURVE",
"220 92 CURVE",
"220 -8 LINE",
"278 -8 OFFCURVE",
"319 30.5 OFFCURVE",
"354 89.5 CURVE"
);
}
);
width = 370;
},
{
anchors = (
{
name = bottom;
position = "{226, -8}";
},
{
name = top;
position = "{226, 708}";
}
);
guideLines = (
{
position = "{402, 242}";
}
);
layerId = "BEE1AFF0-4415-4363-825D-BBA98FF62E65";
name = Regular;
paths = (
{
closed = 1;
nodes = (
"216 90 LINE",
"174.5 90 OFFCURVE",
"136 142 OFFCURVE",
"136 350 CURVE SMOOTH",
"136 558 OFFCURVE",
"174.5 610 OFFCURVE",
"216 610 CURVE",
"216 710 LINE",
"110 710 OFFCURVE",
"26 623.5 OFFCURVE",
"26 350 CURVE SMOOTH",
"26 76.5 OFFCURVE",
"110 -10 OFFCURVE",
"216 -10 CURVE"
);
},
{
closed = 1;
nodes = (
"306.5 -10 OFFCURVE",
"377.5 53 OFFCURVE",
"397 242 CURVE",
"283 252 LINE",
"274 121 OFFCURVE",
"248 90 OFFCURVE",
"216 90 CURVE",
"216 -10 LINE"
);
},
{
closed = 1;
nodes = (
"392.5 490.5 LINE",
"368 654 OFFCURVE",
"296 710 OFFCURVE",
"216 710 CURVE",
"216 610 LINE",
"248.5 610 OFFCURVE",
"271.5 580 OFFCURVE",
"282 465.5 CURVE"
);
}
);
width = 417;
},
{
anchors = (
{
name = bottom;
position = "{232, -8}";
},
{
name = top;
position = "{232, 708}";
}
);
associatedMasterId = "BEE1AFF0-4415-4363-825D-BBA98FF62E65";
guideLines = (
{
position = "{408, 242}";
}
);
layerId = "CBB7F987-30AA-420D-A088-1090BF60EA12";
name = "26 déc. 22 à 15:36";
paths = (
{
closed = 1;
nodes = (
"26 76.5 OFFCURVE",
"116 -10 OFFCURVE",
"222 -10 CURVE",
"222 90 LINE",
"180.5 90 OFFCURVE",
"136 142 OFFCURVE",
"136 350 CURVE SMOOTH",
"136 558 OFFCURVE",
"180.5 610 OFFCURVE",
"222 610 CURVE",
"222 710 LINE",
"116 710 OFFCURVE",
"26 623.5 OFFCURVE",
"26 350 CURVE SMOOTH"
);
},
{
closed = 1;
nodes = (
"398.5 490.5 LINE",
"374 654 OFFCURVE",
"302 710 OFFCURVE",
"222 710 CURVE",
"222 610 LINE",
"254.5 610 OFFCURVE",
"277.5 580 OFFCURVE",
"288 465.5 CURVE"
);
},
{
closed = 1;
nodes = (
"289 252 LINE",
"280 121 OFFCURVE",
"254 90 OFFCURVE",
"222 90 CURVE",
"222 -10 LINE",
"312.5 -10 OFFCURVE",
"383.5 53 OFFCURVE",
"403 242 CURVE"
);
}
);
width = 423;
}
);
leftKerningGroup = O;
leftMetricsKey = O;
rightKerningGroup = C;
unicode = 0043;
},
{
color = 4;
glyphname = D;
lastChange = "2023-06-06 07:09:33 +0000";
layers = (
{
layerId = "BEE1AFF0-4415-4363-825D-BBA98FF62E65";
paths = (
{
closed = 1;
nodes = (
"192 1 LINE SMOOTH",
"272.5 1 OFFCURVE",
"363 114 OFFCURVE",
"363 361 CURVE",
"261 350.5 LINE",
"261 200.5 OFFCURVE",
"227.5 101 OFFCURVE",
"175 101 CURVE SMOOTH",
"118 101 LINE",
"118 1 LINE"
);
},
{
closed = 1;
nodes = (
"141 0 LINE",
"141 700 LINE",
"36 700 LINE",
"36 0 LINE"
);
},
{
closed = 1;
nodes = (
"363 361 LINE",
"363 606.5 OFFCURVE",
"277.5 700 OFFCURVE",
"192 700 CURVE SMOOTH",
"118 700 LINE",
"118 600 LINE",
"175 600 LINE SMOOTH",
"232.5 600 OFFCURVE",
"261 499.5 OFFCURVE",
"261 350.5 CURVE"
);
}
);
width = 389;
},
{
associatedMasterId = "BEE1AFF0-4415-4363-825D-BBA98FF62E65";
layerId = "F9C4679C-CC67-4942-BFBE-DD2FAB3683D2";
name = "Mar 10 21, 18:13";
paths = (
{
closed = 1;
nodes = (
"375 623.5 OFFCURVE",
"281 700 OFFCURVE",
"140 700 CURVE",
"140 600 LINE",
"227 600 OFFCURVE",
"265 506 OFFCURVE",
"265 350 CURVE SMOOTH",
"265 193.5 OFFCURVE",
"227 99.5 OFFCURVE",
"140 100 CURVE",
"140 0 LINE",
"281 0 OFFCURVE",
"375 76.5 OFFCURVE",
"375 350 CURVE SMOOTH"
);
},
{
closed = 1;
nodes = (
"140 0 LINE",
"140 700 LINE",
"40 700 LINE",
"40 0 LINE"
);
}
);
width = 400;
},
{
associatedMasterId = "BEE1AFF0-4415-4363-825D-BBA98FF62E65";
layerId = "0ACF1C9D-6B24-459B-94BB-141646011AD5";
name = "Jul 6 21, 15:14";
paths = (
{
closed = 1;
nodes = (
"140 0 LINE",
"140 700 LINE",
"40 700 LINE",
"40 0 LINE"
);
},
{
closed = 1;
nodes = (
"375 623.5 OFFCURVE",
"246 700 OFFCURVE",
"140 700 CURVE",
"140 600 LINE",
"181.5 600 OFFCURVE",
"265 558 OFFCURVE",
"265 350 CURVE SMOOTH",
"265 142 OFFCURVE",
"181.5 100 OFFCURVE",
"140 100 CURVE",
"140 0 LINE",
"246 0 OFFCURVE",
"375 76.5 OFFCURVE",
"375 350 CURVE SMOOTH"
);
}
);
width = 400;
},
{
associatedMasterId = "BEE1AFF0-4415-4363-825D-BBA98FF62E65";
layerId = "42BAA879-55C5-493D-9A2D-3C80DD0A7AC1";
name = "28 oct. 22 à 16:58";
paths = (
{
closed = 1;
nodes = (
"141 0 LINE",
"141 700 LINE",
"36 700 LINE",
"36 0 LINE"
);
},
{
closed = 1;
nodes = (
"369 623.5 OFFCURVE",
"252 700 OFFCURVE",
"141 700 CURVE",
"141 605 LINE",
"202.5 604 OFFCURVE",
"259 557.5 OFFCURVE",
"259 350 CURVE SMOOTH",
"259 142 OFFCURVE",
"202.5 95 OFFCURVE",
"141 95 CURVE",
"141 0 LINE",
"252 0 OFFCURVE",
"369 76.5 OFFCURVE",
"369 350 CURVE SMOOTH"
);
}
);
width = 394;
},
{
associatedMasterId = "BEE1AFF0-4415-4363-825D-BBA98FF62E65";
layerId = "9A1F9900-327B-4347-AC5E-6F44CC36EB42";
name = "6 juin 23 à 08:05";
paths = (
{
closed = 1;
nodes = (
"141 0 LINE",
"141 700 LINE",
"36 700 LINE",
"36 0 LINE"
);
},
{
closed = 1;
nodes = (
"181.5 0 LINE SMOOTH",
"297 0 OFFCURVE",
"360 184 OFFCURVE",
"360 362 CURVE SMOOTH",
"360 534 OFFCURVE",
"303.5 700 OFFCURVE",
"181.5 700 CURVE SMOOTH",
"127.5 700 LINE",
"127.5 600 LINE",
"164.5 600 LINE SMOOTH",
"223.5 600 OFFCURVE",
"251 481.5 OFFCURVE",
"251 362 CURVE SMOOTH",
"251 235 OFFCURVE",
"220.5 100 OFFCURVE",
"164.5 100 CURVE SMOOTH",
"127.5 100 LINE",
"127.5 0 LINE"
);
}
);
width = 386;
}
);
leftKerningGroup = H;
leftMetricsKey = H;
rightKerningGroup = O;
rightMetricsKey = O;
unicode = 0044;
},
{
color = 4;
glyphname = Eth;
lastChange = "2023-06-06 07:09:33 +0000";
layers = (
{
layerId = "BEE1AFF0-4415-4363-825D-BBA98FF62E65";
paths = (
{
closed = 1;
nodes = (
"280 0 OFFCURVE",
"397 76.5 OFFCURVE",
"397 350 CURVE SMOOTH",
"397 623.5 OFFCURVE",
"280 700 OFFCURVE",
"159 700 CURVE",
"159 605 LINE",
"230.5 604 OFFCURVE",
"287 557.5 OFFCURVE",
"287 350 CURVE SMOOTH",
"287 142 OFFCURVE",
"230.5 95 OFFCURVE",
"159 95 CURVE",
"159 0 LINE"
);
},
{
closed = 1;
nodes = (
"159 0 LINE",
"159 700 LINE",
"59 700 LINE",
"59 0 LINE"
);
},
{
closed = 1;
nodes = (
"245 325 LINE",
"245 375 LINE",
"10 375 LINE",
"10 325 LINE"
);
}
);
width = 423;
}
);
leftKerningGroup = H;
rightKerningGroup = O;
rightMetricsKey = O;
unicode = 00D0;
},
{
color = 4;
glyphname = E;
lastChange = "2023-06-06 07:09:33 +0000";
layers = (
{
anchors = (
{
name = bottom;
position = "{151, 0}";
},
{
name = ogonek;
position = "{285, 0}";
},
{
name = top;
position = "{151, 700}";
},
{
name = topleft;
position = "{21, 700}";
}
);
layerId = "BEE1AFF0-4415-4363-825D-BBA98FF62E65";
paths = (
{
closed = 1;
nodes = (
"141 0 LINE",
"141 700 LINE",
"36 700 LINE",
"36 0 LINE"
);
},
{
closed = 1;
nodes = (
"285 0 LINE",
"285 90 LINE",
"91 90 LINE",
"91 0 LINE"
);
},
{
closed = 1;
nodes = (
"260 328 LINE",
"260 418 LINE",
"91 418 LINE",
"91 328 LINE"
);
},
{
closed = 1;
nodes = (
"285 610 LINE",
"285 700 LINE",
"91 700 LINE",
"91 610 LINE"
);
}
);
width = 305;
},
{
anchors = (
{
name = bottom;
position = "{221, 0}";
},
{
name = ogonek;
position = "{321, 0}";
},
{
name = top;
position = "{235, 700}";
},
{
name = topleft;
position = "{22, 700}";
}
);
associatedMasterId = "BEE1AFF0-4415-4363-825D-BBA98FF62E65";
layerId = "0A3D5599-49F9-4EC6-B200-BF5812FBA2C2";
name = "Oct 31 20, 15:10";
paths = (
{
closed = 1;
nodes = (
"135 0 LINE",
"135 700 LINE",
"35 700 LINE",
"35 0 LINE"
);
},
{
closed = 1;
nodes = (
"270 0 LINE",
"270 90 LINE",
"85 90 LINE",
"85 0 LINE"
);
},
{
closed = 1;
nodes = (
"270 610 LINE",
"270 700 LINE",
"85 700 LINE",
"85 610 LINE"
);
},
{
closed = 1;
nodes = (
"245 378 LINE",
"245 468 LINE",
"85 468 LINE",
"85 378 LINE"
);
}
);
width = 295;
}
);
leftKerningGroup = H;
leftMetricsKey = H;
rightKerningGroup = E;
unicode = 0045;
},
{
color = 4;
glyphname = Schwa;
lastChange = "2023-06-06 07:09:33 +0000";
layers = (
{
layerId = "BEE1AFF0-4415-4363-825D-BBA98FF62E65";
paths = (
{
closed = 1;
nodes = (
"304 -10 OFFCURVE",
"378 76.5 OFFCURVE",
"378 350 CURVE SMOOTH",
"378 623.5 OFFCURVE",
"299 710 OFFCURVE",
"193 710 CURVE",
"193 610 LINE",
"234.5 610 OFFCURVE",
"268 558 OFFCURVE",
"268 350 CURVE SMOOTH",
"268 142 OFFCURVE",
"234.5 90 OFFCURVE",
"193 90 CURVE SMOOTH",
"152.5 90 OFFCURVE",
"120 139.5 OFFCURVE",
"120 336.5 CURVE",
"31 325.5 LINE",
"31 48.5 OFFCURVE",
"110.5 -10 OFFCURVE",
"198 -10 CURVE SMOOTH"
);
},
{
closed = 1;
nodes = (
"302.5 285 LINE",
"302.5 375 LINE",
"31 375 LINE",
"31 325.5 LINE",
"70.5 285 LINE"
);
},
{
closed = 1;
nodes = (
"147 580 OFFCURVE",
"160.5 610 OFFCURVE",
"193 610 CURVE",
"193 710 LINE",
"108 710 OFFCURVE",
"50.5 654 OFFCURVE",
"26 490.5 CURVE",
"136 465.5 LINE"
);
}
);
width = 404;
}
);
leftKerningGroup = O;
leftMetricsKey = G;
rightKerningGroup = O;
rightMetricsKey = G;
unicode = 018F;
},
{
color = 4;
glyphname = F;
lastChange = "2023-06-06 07:09:33 +0000";
layers = (
{
layerId = "BEE1AFF0-4415-4363-825D-BBA98FF62E65";
paths = (
{
closed = 1;
nodes = (
"141 0 LINE",
"141 700 LINE",
"36 700 LINE",
"36 0 LINE"
);
},
{
closed = 1;
nodes = (
"251 303 LINE",
"251 393 LINE",
"91 393 LINE",
"91 303 LINE"
);
},
{
closed = 1;
nodes = (
"276 610 LINE",
"276 700 LINE",
"91 700 LINE",
"91 610 LINE"
);
}
);
width = 292;
}
);
leftKerningGroup = H;
leftMetricsKey = H;
rightKerningGroup = F;
unicode = 0046;
},
{
color = 4;
glyphname = G;
lastChange = "2023-06-06 07:09:33 +0000";
layers = (
{
associatedMasterId = "BEE1AFF0-4415-4363-825D-BBA98FF62E65";
layerId = "C124F538-E39D-4A03-BF3E-7EE612633402";
name = "Mar 8 21, 18:53";
paths = (
{
closed = 1;
nodes = (
"360.5 309.5 LINE",
"399 334.5 LINE",
"399 399.5 LINE",
"218.5 399.5 LINE",
"218.5 309.5 LINE"
);
},
{
closed = 1;
nodes = (
"25 133 OFFCURVE",
"105 -12 OFFCURVE",
"227.5 -12 CURVE SMOOTH",
"327 -12 OFFCURVE",
"396 99 OFFCURVE",
"399 334.5 CURVE",
"299 309.5 LINE",
"299 159.5 OFFCURVE",
"268 88 OFFCURVE",
"232.5 88 CURVE SMOOTH",
"186.5 88 OFFCURVE",
"135 181 OFFCURVE",
"135 350 CURVE",
"25 350 LINE"
);
},
{
closed = 1;
nodes = (
"135 350 LINE",
"135 505 OFFCURVE",
"177 608 OFFCURVE",
"227.5 608 CURVE SMOOTH",
"260 608 OFFCURVE",
"280.5 584.5 OFFCURVE",
"293.5 543.5 CURVE",
"374 610.5 LINE",
"339 669.5 OFFCURVE",
"288 708 OFFCURVE",
"227.5 708 CURVE SMOOTH",
"92 708 OFFCURVE",
"25 526 OFFCURVE",
"25 350 CURVE"
);
}
);
width = 414;
},
{
associatedMasterId = "BEE1AFF0-4415-4363-825D-BBA98FF62E65";
layerId = "A74B5DC8-19CB-4437-AB48-207EDCC1A546";
name = "Mar 10 21, 11:38";
paths = (
{
closed = 1;
nodes = (
"345.5 309.5 LINE",
"384 350 LINE",
"384 399.5 LINE",
"218.5 399.5 LINE",
"218.5 309.5 LINE"
);
},
{
closed = 1;
nodes = (
"135 350 LINE",
"135 556.5 OFFCURVE",
"177.5 608 OFFCURVE",
"230 608 CURVE",
"230 708 LINE",
"92 708 OFFCURVE",
"25 526 OFFCURVE",
"25 350 CURVE"
);
},
{
closed = 1;
nodes = (
"339 669.5 OFFCURVE",
"288 708 OFFCURVE",
"230 708 CURVE",
"230 608 LINE",
"260 608 OFFCURVE",
"280.5 584.5 OFFCURVE",
"293.5 543.5 CURVE",
"374 610.5 LINE"
);
},
{
closed = 1;
nodes = (
"284 350 LINE",
"284 191 OFFCURVE",
"269.5 86.5 OFFCURVE",
"219 90 CURVE",
"173 90 OFFCURVE",
"135 142 OFFCURVE",
"135 350 CURVE",
"25 350 LINE",
"25 134 OFFCURVE",
"79.5 -10 OFFCURVE",
"219 -10 CURVE SMOOTH",
"286 -10 OFFCURVE",
"331 71.5 OFFCURVE",
"331 193.5 CURVE",
"359 350 LINE"
);
},
{
closed = 1;
nodes = (
"340 0 LINE",
"382 0 LINE",
"384 350 LINE",
"309 309.5 LINE"
);
}
);
width = 409;
},
{
associatedMasterId = "BEE1AFF0-4415-4363-825D-BBA98FF62E65";
guideLines = (
{
angle = 90;
position = "{230, 608}";
}
);
layerId = "6814FBD9-8D2D-4E20-A290-1AB9940049EB";
name = "Mar 10 21, 11:44";
paths = (
{
closed = 1;
nodes = (
"345.5 309.5 LINE",
"384 350 LINE",
"384 399.5 LINE",
"218.5 399.5 LINE",
"218.5 309.5 LINE"
);
},
{
closed = 1;
nodes = (
"135 350 LINE",
"134.5 557 OFFCURVE",
"177 608.5 OFFCURVE",
"230 608 CURVE",
"230 708 LINE",
"92 708 OFFCURVE",
"25 526 OFFCURVE",
"25 350 CURVE"
);
},
{
closed = 1;
nodes = (
"339 669.5 OFFCURVE",
"288 708 OFFCURVE",
"230 708 CURVE",
"230 608 LINE",
"260 608 OFFCURVE",
"280.5 584.5 OFFCURVE",
"293.5 543.5 CURVE",
"374 610.5 LINE"
);
},
{
closed = 1;
nodes = (
"299.5 350 LINE",
"299 275 LINE SMOOTH",
"297 168.5 OFFCURVE",
"283 91 OFFCURVE",
"230 92 CURVE",
"230 -8 LINE",
"299.5 -8 OFFCURVE",
"335.5 82 OFFCURVE",
"336 208.5 CURVE SMOOTH",
"336.5 350 LINE"
);
},
{
closed = 1;
nodes = (
"340 0 LINE",
"382 0 LINE",
"384 350 LINE",
"309 309.5 LINE"
);
},
{
closed = 1;
nodes = (
"25 174 OFFCURVE",
"92 -8 OFFCURVE",
"230 -8 CURVE",
"230 92 LINE",
"177 92 OFFCURVE",
"135 194.5 OFFCURVE",
"135 350 CURVE",
"25 350 LINE"
);
}
);
width = 409;
},
{
associatedMasterId = "BEE1AFF0-4415-4363-825D-BBA98FF62E65";
guideLines = (
{
angle = 90;
position = "{230, 608}";
}
);
layerId = "078317E1-8727-4FA6-A16C-8E4144C61705";
name = "Mar 10 21, 12:00";
paths = (
{
closed = 1;
nodes = (
"345 309.5 LINE",
"379 350 LINE",
"379 399.5 LINE",
"218 399.5 LINE",
"218 309.5 LINE"
);
},
{
closed = 1;
nodes = (
"135 350 LINE",
"134.5 557 OFFCURVE",
"182 608.5 OFFCURVE",
"230 608 CURVE",
"230 708 LINE",
"92 708 OFFCURVE",
"25 526 OFFCURVE",
"25 350 CURVE"
);
},
{
closed = 1;
nodes = (
"339 669.5 OFFCURVE",
"288 708 OFFCURVE",
"230 708 CURVE",
"230 608 LINE",
"260 608 OFFCURVE",
"280.5 584.5 OFFCURVE",
"293.5 543.5 CURVE",
"374 610.5 LINE"
);
},
{
closed = 1;
nodes = (
"327 0 LINE",
"377 0 LINE",
"379 350 LINE",
"304 350 LINE"
);
},
{
closed = 1;
nodes = (
"25 142.5 OFFCURVE",
"109 -8 OFFCURVE",
"225 -8 CURVE SMOOTH",
"289.5 -8 OFFCURVE",
"337 52 OFFCURVE",
"336.5 187 CURVE SMOOTH",
"336 350 LINE",
"294 350 LINE",
"294 275 LINE SMOOTH",
"294 168.5 OFFCURVE",
"271.5 91 OFFCURVE",
"230 92 CURVE SMOOTH",
"182 93 OFFCURVE",
"135 194.5 OFFCURVE",
"135 350 CURVE",
"25 350 LINE"
);
}
);
width = 404;
},
{
associatedMasterId = "BEE1AFF0-4415-4363-825D-BBA98FF62E65";
guideLines = (
{
angle = 90;
position = "{230, 608}";
}
);
layerId = "8EA89D9F-DB5A-403D-A570-3D83DCEB763B";
name = "Mar 10 21, 12:00";
paths = (
{
closed = 1;
nodes = (
"345 309.5 LINE",
"379 350 LINE",
"379 399.5 LINE",
"218 399.5 LINE",
"218 309.5 LINE"
);
},
{
closed = 1;
nodes = (
"135 350 LINE",
"134.5 557 OFFCURVE",
"182 608.5 OFFCURVE",
"230 608 CURVE",
"230 708 LINE",
"92 708 OFFCURVE",
"25 526 OFFCURVE",
"25 350 CURVE"
);
},
{
closed = 1;
nodes = (
"339 669.5 OFFCURVE",
"288 708 OFFCURVE",
"230 708 CURVE",
"230 608 LINE",
"260 608 OFFCURVE",
"280.5 584.5 OFFCURVE",
"293.5 543.5 CURVE",
"374 610.5 LINE"
);
},
{
closed = 1;
nodes = (
"327 0 LINE",
"377 0 LINE",
"379 350 LINE",
"304 350 LINE"
);
},
{
closed = 1;
nodes = (
"25 142.5 OFFCURVE",
"109 -8 OFFCURVE",
"225 -8 CURVE SMOOTH",
"289.5 -8 OFFCURVE",
"337 52 OFFCURVE",
"336.5 187 CURVE SMOOTH",
"336 350 LINE",
"294 350 LINE",
"294 275 LINE SMOOTH",
"294 168.5 OFFCURVE",
"271.5 91 OFFCURVE",
"230 92 CURVE SMOOTH",
"182 93 OFFCURVE",
"135 194.5 OFFCURVE",
"135 350 CURVE",
"25 350 LINE"
);
}
);
width = 404;
},
{
anchors = (
{
name = bottom;
position = "{206, -10}";
},
{
name = top;
position = "{211, 710}";
}
);
guideLines = (
{
angle = 90;
position = "{221, 608}";
}
);
layerId = "BEE1AFF0-4415-4363-825D-BBA98FF62E65";
paths = (
{
closed = 1;
nodes = (
"293.5 -10 OFFCURVE",
"373 48.5 OFFCURVE",
"373 325.5 CURVE",
"284 336.5 LINE",
"284 139.5 OFFCURVE",
"251.5 90 OFFCURVE",
"211 90 CURVE SMOOTH",
"169.5 90 OFFCURVE",
"136 142 OFFCURVE",
"136 350 CURVE SMOOTH",
"136 558 OFFCURVE",
"169.5 610 OFFCURVE",
"211 610 CURVE",
"211 710 LINE",
"105 710 OFFCURVE",
"26 623.5 OFFCURVE",
"26 350 CURVE SMOOTH",
"26 76.5 OFFCURVE",
"100 -10 OFFCURVE",
"206 -10 CURVE SMOOTH"
);
},
{
closed = 1;
nodes = (
"333.5 285 LINE",
"373 325.5 LINE",
"373 375 LINE",
"201.5 375 LINE",
"201.5 285 LINE"
);
},
{
closed = 1;
nodes = (
"378 490.5 LINE",
"353.5 654 OFFCURVE",
"296 710 OFFCURVE",
"211 710 CURVE",
"211 610 LINE",
"243.5 610 OFFCURVE",
"257 580 OFFCURVE",
"268 465.5 CURVE"
);
}
);
width = 404;
},
{
associatedMasterId = "BEE1AFF0-4415-4363-825D-BBA98FF62E65";
guideLines = (
{
angle = 90;
position = "{230, 608}";
}
);
layerId = "33EF78B7-E5E0-46FC-98BC-7B745BA5A01C";
name = "26 oct. 22 à 09:42";
paths = (
{
closed = 1;
nodes = (
"345.5 309.5 LINE",
"385 350 LINE",
"385 399.5 LINE",
"218.5 399.5 LINE",
"218.5 309.5 LINE"
);
},
{
closed = 1;
nodes = (
"338 0 LINE",
"383 0 LINE",
"385 350 LINE",
"305 350 LINE"
);
},
{
closed = 1;
nodes = (
"25 142.5 OFFCURVE",
"109 -8 OFFCURVE",
"225 -8 CURVE SMOOTH",
"289.5 -8 OFFCURVE",
"336.5 52 OFFCURVE",
"336.5 187 CURVE SMOOTH",
"336.5 350 LINE",
"294.5 350 LINE",
"294.5 275 LINE SMOOTH",
"294.5 168.5 OFFCURVE",
"271.5 91 OFFCURVE",
"230 92 CURVE SMOOTH",
"182 93 OFFCURVE",
"135 194.5 OFFCURVE",
"135 350 CURVE",
"25 350 LINE"
);
},
{
closed = 1;
nodes = (
"135 350 LINE",
"134.5 557 OFFCURVE",
"182 608.5 OFFCURVE",
"230 608 CURVE SMOOTH",
"269.5 608 OFFCURVE",
"292 568 OFFCURVE",
"303.5 501 CURVE",
"259 514.5 LINE",
"408.5 639.5 LINE",
"390 580.5 LINE",
"355.5 654.5 OFFCURVE",
"297.5 707.5 OFFCURVE",
"230 708 CURVE SMOOTH",
"92 708 OFFCURVE",
"25 526 OFFCURVE",
"25 350 CURVE"
);
}
);
width = 415;
},
{
associatedMasterId = "BEE1AFF0-4415-4363-825D-BBA98FF62E65";
guideLines = (
{
angle = 90;
position = "{220, 608}";
}
);
layerId = "4D2D79CC-5069-4DC6-A2ED-1AACA227DDF5";
name = "16 nov. 22 à 16:40";
paths = (
{
closed = 1;
nodes = (
"330.5 309.5 LINE",
"370 350 LINE",
"370 399.5 LINE",
"203.5 399.5 LINE",
"203.5 309.5 LINE"
);
},
{
closed = 1;
nodes = (
"323 0 LINE",
"368 0 LINE",
"370 350 LINE",
"290 350 LINE"
);
},
{
closed = 1;
nodes = (
"25 142.5 OFFCURVE",
"109 -8 OFFCURVE",
"215 -8 CURVE SMOOTH",
"274.5 -8 OFFCURVE",
"321.5 52 OFFCURVE",
"321.5 187 CURVE SMOOTH",
"321.5 350 LINE",
"279.5 350 LINE",
"279.5 275 LINE SMOOTH",
"279.5 168.5 OFFCURVE",
"256.5 91 OFFCURVE",
"220 92 CURVE SMOOTH",
"182 93 OFFCURVE",
"135 194.5 OFFCURVE",
"135 350 CURVE",
"25 350 LINE"
);
},
{
closed = 1;
nodes = (
"135 350 LINE",
"134.5 557 OFFCURVE",
"182 608.5 OFFCURVE",
"220 608 CURVE SMOOTH",
"254.5 607.5 OFFCURVE",
"277 568 OFFCURVE",
"288.5 501 CURVE",
"244 514.5 LINE",
"393.5 639.5 LINE",
"375 580.5 LINE",
"340.5 654.5 OFFCURVE",
"282.5 708 OFFCURVE",
"220 708 CURVE SMOOTH",
"92 708 OFFCURVE",
"25 526 OFFCURVE",
"25 350 CURVE"
);
}
);
width = 405;
},
{
associatedMasterId = "BEE1AFF0-4415-4363-825D-BBA98FF62E65";
guideLines = (
{
angle = 90;
position = "{220, 608}";
}
);
layerId = "CD4A01D7-9728-4EF4-99A4-98D6811EF3F9";
name = "16 nov. 22 à 16:42";
paths = (
{
closed = 1;
nodes = (
"330.5 309.5 LINE",
"370 350 LINE",
"370 399.5 LINE",
"203.5 399.5 LINE",
"203.5 309.5 LINE"
);
},
{
closed = 1;
nodes = (
"323 0 LINE",
"368 0 LINE",
"370 350 LINE",
"290 350 LINE"
);
},
{
closed = 1;
nodes = (
"25 76.5 OFFCURVE",
"104 -10 OFFCURVE",
"210 -10 CURVE",
"210 90 LINE",
"168.5 90 OFFCURVE",
"135 142 OFFCURVE",
"135 350 CURVE SMOOTH",
"135 558 OFFCURVE",
"168.5 610 OFFCURVE",
"210 610 CURVE",
"210 710 LINE",
"104 710 OFFCURVE",
"25 623.5 OFFCURVE",
"25 350 CURVE SMOOTH"
);
},
{
closed = 1;
nodes = (
"377 490.5 LINE",
"352.5 654 OFFCURVE",
"295 710 OFFCURVE",
"210 710 CURVE",
"210 610 LINE",
"242.5 610 OFFCURVE",
"256 580 OFFCURVE",
"267 465.5 CURVE"
);
},
{
closed = 1;
nodes = (
"283 336.5 LINE",
"283 139.5 OFFCURVE",
"268.5 90 OFFCURVE",
"210 90 CURVE",
"210 -10 LINE",
"302 -10 OFFCURVE",
"325 59.5 OFFCURVE",
"325 336.5 CURVE"
);
}
);
width = 405;
},
{
anchors = (
{
name = bottom;
position = "{206, -10}";
},
{
name = top;
position = "{211, 710}";
}
);
associatedMasterId = "BEE1AFF0-4415-4363-825D-BBA98FF62E65";
guideLines = (
{
angle = 90;
position = "{221, 608}";
}
);
layerId = "0146A987-94C7-4B44-B090-F2ED44FB33C4";
name = "30 avr. 23 à 20:13";
paths = (
{
closed = 1;
nodes = (
"333.5 285 LINE",
"373 325.5 LINE",
"373 375 LINE",
"206.5 375 LINE",
"206.5 285 LINE"
);
},
{
closed = 1;
nodes = (
"326 0 LINE",
"371 0 LINE",
"373 350 LINE",
"308 350 LINE"
);
},
{
closed = 1;
nodes = (
"26 76.5 OFFCURVE",
"100 -10 OFFCURVE",
"206 -10 CURVE SMOOTH",
"302 -10 OFFCURVE",
"321 59.5 OFFCURVE",
"321 336.5 CURVE",
"284 336.5 LINE",
"284 139.5 OFFCURVE",
"251.5 90 OFFCURVE",
"211 90 CURVE SMOOTH",
"169.5 90 OFFCURVE",
"136 142 OFFCURVE",
"136 350 CURVE SMOOTH",
"136 558 OFFCURVE",
"169.5 610 OFFCURVE",
"211 610 CURVE",
"211 710 LINE",
"105 710 OFFCURVE",
"26 623.5 OFFCURVE",
"26 350 CURVE SMOOTH"
);
},
{
closed = 1;
nodes = (
"378 490.5 LINE",
"353.5 654 OFFCURVE",
"296 710 OFFCURVE",
"211 710 CURVE",
"211 610 LINE",
"243.5 610 OFFCURVE",
"257 580 OFFCURVE",
"268 465.5 CURVE"
);
}
);
width = 408;
}
);
leftKerningGroup = O;
leftMetricsKey = O;
rightKerningGroup = O;
rightMetricsKey = O;
unicode = 0047;
},
{
color = 4;
glyphname = H;
lastChange = "2023-06-06 07:09:33 +0000";
layers = (
{
layerId = "BEE1AFF0-4415-4363-825D-BBA98FF62E65";
paths = (
{
closed = 1;
nodes = (
"376 0 LINE",
"376 700 LINE",
"271 700 LINE",
"271 0 LINE"
);
},
{
closed = 1;
nodes = (
"141 0 LINE",
"141 700 LINE",
"36 700 LINE",
"36 0 LINE"
);
},
{
closed = 1;
nodes = (
"311 348 LINE",
"311 438 LINE",
"101 438 LINE",
"101 348 LINE"
);
}
);
width = 412;
}
);
leftKerningGroup = H;
rightKerningGroup = H;
unicode = 0048;
},
{
color = 4;
glyphname = I;
lastChange = "2023-06-06 07:09:33 +0000";
layers = (
{
anchors = (
{
name = bottom;
position = "{93, 0}";
},
{
name = ogonek;
position = "{145, 0}";
},
{
name = top;
position = "{93, 700}";
},
{
name = topleft;
position = "{25, 700}";
}
);
layerId = "BEE1AFF0-4415-4363-825D-BBA98FF62E65";
paths = (
{
closed = 1;
nodes = (
"145 0 LINE",
"145 700 LINE",
"40 700 LINE",
"40 0 LINE"
);
}
);
width = 185;
}
);
leftKerningGroup = H;
rightKerningGroup = H;
unicode = 0049;
},
{
color = 4;
glyphname = IJ;
lastChange = "2023-06-06 07:09:33 +0000";
layers = (
{
guideLines = (
{
position = "{314, -10}";
},
{
position = "{307, 90}";
}
);
layerId = "BEE1AFF0-4415-4363-825D-BBA98FF62E65";
paths = (
{
closed = 1;
nodes = (
"259.5 -5 OFFCURVE",
"329 39 OFFCURVE",
"329 190 CURVE SMOOTH",
"329 700 LINE",
"224 700 LINE",
"224 200 LINE SMOOTH",
"224 119.5 OFFCURVE",
"214.5 90 OFFCURVE",
"185 90 CURVE SMOOTH",
"155.5 90 OFFCURVE",
"145 119.5 OFFCURVE",
"145 200 CURVE",
"145 252 LINE",
"40 242 LINE",
"40 200 LINE",
"40 36 OFFCURVE",
"121.5 -5 OFFCURVE",
"189 -5 CURVE SMOOTH"
);
},
{
closed = 1;
nodes = (
"145 302 LINE",
"145 700 LINE",
"40 700 LINE",
"40 302 LINE"
);
}
);
width = 365;
},
{
associatedMasterId = "BEE1AFF0-4415-4363-825D-BBA98FF62E65";
layerId = "B9439C1F-2587-43F7-A512-5786F5F9E671";
name = "11 nov. 22 à 09:15";
paths = (
{
closed = 1;
nodes = (
"141 280 LINE",
"141 700 LINE",
"36 700 LINE",
"36 280 LINE"
);
},
{
closed = 1;
nodes = (
"36 51 OFFCURVE",
"94.5 -11 OFFCURVE",
"181 -10 CURVE SMOOTH",
"259.5 -9 OFFCURVE",
"335 43 OFFCURVE",
"335 190 CURVE SMOOTH",
"335 700 LINE",
"230 700 LINE",
"230 200 LINE SMOOTH",
"230 127 OFFCURVE",
"210 90 OFFCURVE",
"181 90 CURVE SMOOTH",
"157 90 OFFCURVE",
"136 115 OFFCURVE",
"136 200 CURVE",
"36 200 LINE"
);
}
);
width = 371;
}
);
leftKerningGroup = H;
leftMetricsKey = I;
rightKerningGroup = U;
rightMetricsKey = J;
unicode = 0132;
},
{
color = 4;
glyphname = J;
lastChange = "2023-06-09 07:03:31 +0000";
layers = (
{
anchors = (
{
name = bottom;
position = "{168, 0}";
},
{
name = top;
position = "{247.5, 700}";
}
);
guideLines = (
{
position = "{398, 242}";
}
);
layerId = "BEE1AFF0-4415-4363-825D-BBA98FF62E65";
paths = (
{
closed = 1;
nodes = (
"230.5 -5 OFFCURVE",
"300 39 OFFCURVE",
"300 190 CURVE SMOOTH",
"300 700 LINE",
"195 700 LINE",
"195 200 LINE SMOOTH",
"195 119.5 OFFCURVE",
"185.5 90 OFFCURVE",
"156 90 CURVE SMOOTH",
"126.5 90 OFFCURVE",
"116 119.5 OFFCURVE",
"116 200 CURVE",
"116 252 LINE",
"16 242 LINE",
"16 200 LINE",
"16 36 OFFCURVE",
"92.5 -5 OFFCURVE",
"160 -5 CURVE SMOOTH"
);
}
);
width = 336;
},
{
associatedMasterId = "BEE1AFF0-4415-4363-825D-BBA98FF62E65";
layerId = "5316E83B-B0C0-44B1-B7B0-A66989157CA3";
name = "Jul 6 21, 14:45";
paths = (
{
closed = 1;
nodes = (
"288.5 -8 OFFCURVE",
"340.5 45 OFFCURVE",
"340.5 140 CURVE",
"240.5 152 LINE",
"240.5 77 OFFCURVE",
"204.5 34 OFFCURVE",
"149.5 34 CURVE SMOOTH",
"84.5 34 OFFCURVE",
"110.5 106 OFFCURVE",
"118.5 201.5 CURVE SMOOTH",
"119.5 216 OFFCURVE",
"120.5 231.5 OFFCURVE",
"120.5 247 CURVE",
"20.5 247 LINE",
"20.5 48 OFFCURVE",
"72 -8 OFFCURVE",
"200.5 -8 CURVE SMOOTH"
);
},
{
closed = 1;
nodes = (
"340.5 700 LINE",
"240.5 700 LINE",
"240.5 152 LINE",
"340.5 140 LINE"
);
}
);
width = 427;
},
{
associatedMasterId = "BEE1AFF0-4415-4363-825D-BBA98FF62E65";
layerId = "44CC30FD-E9BB-496C-A25D-566E7D87ECE2";
name = "Jul 6 21, 14:46";
paths = (
{
closed = 1;
nodes = (
"293 -8 OFFCURVE",
"345 45 OFFCURVE",
"345 140 CURVE",
"245 152 LINE",
"245 30 OFFCURVE",
"125 67 OFFCURVE",
"125 201.5 CURVE SMOOTH",
"125 247 LINE",
"25 247 LINE",
"25 48 OFFCURVE",
"76.5 -8 OFFCURVE",
"205 -8 CURVE SMOOTH"
);
},
{
closed = 1;
nodes = (
"345 700 LINE",
"245 700 LINE",
"245 152 LINE",
"345 140 LINE"
);
}
);
width = 385;
},
{
associatedMasterId = "BEE1AFF0-4415-4363-825D-BBA98FF62E65";
layerId = "9C2C6321-D7FB-41CD-A52F-B2FE9D4D2FE7";
name = "Jul 6 21, 15:10";
paths = (
{
closed = 1;
nodes = (
"16 51 OFFCURVE",
"84.5 -11 OFFCURVE",
"172 -10 CURVE SMOOTH",
"258 -9.5 OFFCURVE",
"326 53 OFFCURVE",
"326 200 CURVE SMOOTH",
"326 700 LINE",
"226 700 LINE",
"226 200 LINE SMOOTH",
"226 115 OFFCURVE",
"202 90 OFFCURVE",
"171 90 CURVE SMOOTH",
"140 90 OFFCURVE",
"116 115 OFFCURVE",
"116 200 CURVE",
"16 200 LINE"
);
}
);
width = 366;
}
);
leftKerningGroup = J;
rightKerningGroup = U;
rightMetricsKey = H;
unicode = 004A;
},
{
color = 4;
glyphname = K;
lastChange = "2023-06-06 07:09:33 +0000";
layers = (
{
anchors = (
{
name = bottom;
position = "{204, 0}";
},
{
name = top;
position = "{204, 700}";
}
);
layerId = "BEE1AFF0-4415-4363-825D-BBA98FF62E65";
paths = (
{
closed = 1;
nodes = (
"132.5 246.5 LINE",
"375 700 LINE",
"265 700 LINE",
"66.5 246.5 LINE"
);
},
{
closed = 1;
nodes = (
"141 0 LINE",
"141 700 LINE",
"36 700 LINE",
"36 0 LINE"
);
},
{
closed = 1;
nodes = (
"386 0 LINE",
"244 459 LINE",
"168 459 LINE",
"271 0 LINE"
);
}
);
width = 396;
},
{
anchors = (
{
name = bottom;
position = "{198, 0}";
},
{
name = top;
position = "{198, 700}";
}
);
associatedMasterId = "BEE1AFF0-4415-4363-825D-BBA98FF62E65";
layerId = "92BA36DE-A52E-4F63-9EA5-26ED9D840C30";
name = "Jul 6 21, 14:38";
paths = (
{
closed = 1;
nodes = (
"400.5 0 LINE",
"212.5 516 LINE",
"151 410 LINE",
"300 0 LINE"
);
},
{
closed = 1;
nodes = (
"92.5 183 LINE",
"374.5 700 LINE",
"275 700 LINE",
"77.5 333 LINE"
);
},
{
closed = 1;
nodes = (
"135 0 LINE",
"135 700 LINE",
"35 700 LINE",
"35 0 LINE"
);
}
);
width = 478;
},
{
anchors = (
{
name = bottom;
position = "{203, 0}";
},
{
name = top;
position = "{203, 700}";
}
);
associatedMasterId = "BEE1AFF0-4415-4363-825D-BBA98FF62E65";
layerId = "73510133-673A-4473-9023-3E5157F33788";
name = "Oct 11 21, 14:24";
paths = (
{
closed = 1;
nodes = (
"400 0 LINE",
"235 442 LINE",
"148 442 LINE",
"285 0 LINE"
);
},
{
closed = 1;
nodes = (
"97.5 183 LINE",
"374.5 700 LINE",
"264.5 700 LINE",
"82.5 308 LINE"
);
},
{
closed = 1;
nodes = (
"140 0 LINE",
"140 700 LINE",
"40 700 LINE",
"40 0 LINE"
);
}
);
width = 410;
}
);
leftKerningGroup = H;
leftMetricsKey = H;
rightKerningGroup = K;
unicode = 004B;
},
{
color = 4;
glyphname = L;
lastChange = "2023-06-06 07:09:33 +0000";
layers = (
{
anchors = (
{
name = bottom;
position = "{161, 0}";
},
{
name = center;
position = "{146, 350}";
},
{
name = top;
position = "{88.5, 700}";
},
{
name = topright;
position = "{272, 700}";
}
);
layerId = "BEE1AFF0-4415-4363-825D-BBA98FF62E65";
paths = (
{
closed = 1;
nodes = (
"141 0 LINE",
"141 700 LINE",
"36 700 LINE",
"36 0 LINE"
);
},
{
closed = 1;
nodes = (
"276 0 LINE",
"276 90 LINE",
"91 90 LINE",
"91 0 LINE"
);
}
);
width = 292;
}
);
leftKerningGroup = H;
leftMetricsKey = H;
rightKerningGroup = L;
unicode = 004C;
},
{
color = 4;
glyphname = Lbroken;
lastChange = "2023-06-06 07:09:33 +0000";
layers = (
{
layerId = "BEE1AFF0-4415-4363-825D-BBA98FF62E65";
paths = (
{
closed = 1;
nodes = (
"246 0 LINE",
"246 425.5 LINE",
"141 425.5 LINE",
"141 700 LINE",
"36 700 LINE",
"36 390.5 LINE",
"141 390.5 LINE",
"141 0 LINE"
);
},
{
closed = 1;
nodes = (
"376 0 LINE",
"376 90 LINE",
"191 90 LINE",
"191 0 LINE"
);
}
);
width = 392;
}
);
leftKerningGroup = Lbroken;
leftMetricsKey = H;
rightKerningGroup = L;
rightMetricsKey = L;
unicode = "A746,A747";
},
{
color = 4;
glyphname = Lslash;
lastChange = "2023-06-06 07:09:33 +0000";
layers = (
{
components = (
{
name = L;
transform = "{1, 0, 0, 1, 30, 0}";
}
);
guideLines = (
{
position = "{629, 248.5}";
}
);
layerId = "BEE1AFF0-4415-4363-825D-BBA98FF62E65";
paths = (
{
closed = 1;
nodes = (
"280.5 427 LINE",
"253.5 463.5 LINE",
"0 285.5 LINE",
"27.5 248.5 LINE"
);
}
);
width = 322;
}
);
rightKerningGroup = L;
unicode = 0141;
},
{
color = 4;
glyphname = M;
lastChange = "2023-06-09 06:20:01 +0000";
layers = (
{
guideLines = (
{
angle = 90;
position = "{86.5, 700}";
}
);
layerId = "BEE1AFF0-4415-4363-825D-BBA98FF62E65";
paths = (
{
closed = 1;
nodes = (
"362.5 0 LINE",
"464 700 LINE",
"389 700 LINE",
"289 10 LINE",
"307 10 LINE",
"212.5 700 LINE",
"127.5 700 LINE",
"232.5 0 LINE"
);
},
{
closed = 1;
nodes = (
"141 0 LINE",
"141 700 LINE",
"36 700 LINE",
"36 0 LINE"
);
},
{
closed = 1;
nodes = (
"555.5 0 LINE",
"555.5 700 LINE",
"450.5 700 LINE",
"450.5 0 LINE"
);
}
);
width = 591.5;
},
{
anchors = (
{
name = bottom;
position = "{283, 0}";
},
{
name = top;
position = "{283, 700}";
}
);
associatedMasterId = "BEE1AFF0-4415-4363-825D-BBA98FF62E65";
guideLines = (
{
angle = 90;
position = "{40, 700}";
}
);
layerId = "B4B58E03-A6BD-42E1-95E1-AA99BBE19E51";
name = "Oct 31 20, 18:14";
paths = (
{
closed = 1;
nodes = (
"135 0 LINE",
"135 700 LINE",
"35 700 LINE",
"35 0 LINE"
);
},
{
closed = 1;
nodes = (
"461 0 LINE",
"461 700 LINE",
"361 700 LINE",
"361 0 LINE"
);
},
{
closed = 1;
nodes = (
"248 -37 LINE",
"391 700 LINE",
"301 700 LINE",
"231 265.5 LINE",
"269 265.5 LINE",
"193 700 LINE",
"105 700 LINE"
);
}
);
width = 496;
},
{
anchors = (
{
name = bottom;
position = "{303, 0}";
},
{
name = top;
position = "{303, 700}";
}
);
associatedMasterId = "BEE1AFF0-4415-4363-825D-BBA98FF62E65";
guideLines = (
{
angle = 90;
position = "{60, 700}";
}
);
layerId = "E3999936-3D09-47CF-B834-0B566FF90BF8";
name = "Dec 2 20, 19:50";
paths = (
{
closed = 1;
nodes = (
"140 0 LINE",
"140 700 LINE",
"40 700 LINE",
"40 0 LINE"
);
},
{
closed = 1;
nodes = (
"496 0 LINE",
"496 700 LINE",
"396 700 LINE",
"396 0 LINE"
);
},
{
closed = 1;
nodes = (
"421 700 LINE",
"336 700 LINE",
"251 165.5 LINE",
"289 165.5 LINE",
"198 700 LINE",
"115 700 LINE",
"240.5 0 LINE",
"295.5 0 LINE"
);
}
);
width = 536;
},
{
associatedMasterId = "BEE1AFF0-4415-4363-825D-BBA98FF62E65";
guideLines = (
{
angle = 90;
position = "{66, 700}";
}
);
layerId = "811E2130-BCD5-4251-BD83-991D02D59368";
name = "26 déc. 22 à 15:53";
paths = (
{
closed = 1;
nodes = (
"141 0 LINE",
"141 700 LINE",
"36 700 LINE",
"36 0 LINE"
);
},
{
closed = 1;
nodes = (
"512 0 LINE",
"512 700 LINE",
"407 700 LINE",
"407 0 LINE"
);
},
{
closed = 1;
nodes = (
"429 700 LINE",
"360 700 LINE",
"259.5 76 LINE",
"289 76 LINE",
"197 700 LINE",
"119 700 LINE",
"232 0 LINE",
"316 0 LINE"
);
}
);
width = 548;
},
{
associatedMasterId = "BEE1AFF0-4415-4363-825D-BBA98FF62E65";
guideLines = (
{
angle = 90;
position = "{76.5, 700}";
}
);
layerId = "22C21A14-A600-4662-A254-175888931C3A";
name = "5 juin 23 à 17:22";
paths = (
{
closed = 1;
nodes = (
"141 0 LINE",
"141 700 LINE",
"36 700 LINE",
"36 0 LINE"
);
},
{
closed = 1;
nodes = (
"535.5 0 LINE",
"535.5 700 LINE",
"430.5 700 LINE",
"430.5 0 LINE"
);
},
{
closed = 1;
nodes = (
"439 700 LINE",
"369 700 LINE",
"279 10 LINE",
"297 10 LINE",
"212.5 700 LINE",
"132.5 700 LINE",
"232.5 0 LINE",
"342.5 0 LINE"
);
}
);
width = 571.5;
},
{
associatedMasterId = "BEE1AFF0-4415-4363-825D-BBA98FF62E65";
guideLines = (
{
angle = 90;
position = "{76.5, 700}";
}
);
layerId = "BF8C2B5E-FAC4-4AE2-B838-1693E46D2567";
name = "9 juin 23 à 08:19";
paths = (
{
closed = 1;
nodes = (
"342.5 0 LINE",
"444 700 LINE",
"379 700 LINE",
"279 10 LINE",
"297 10 LINE",
"202.5 700 LINE",
"127.5 700 LINE",
"232.5 0 LINE"
);
},
{
closed = 1;
nodes = (
"141 0 LINE",
"141 700 LINE",
"36 700 LINE",
"36 0 LINE"
);
},
{
closed = 1;
nodes = (
"535.5 0 LINE",
"535.5 700 LINE",
"430.5 700 LINE",
"430.5 0 LINE"
);
}
);
width = 571.5;
}
);
leftKerningGroup = N;
leftMetricsKey = H;
rightKerningGroup = H;
rightMetricsKey = H;
unicode = 004D;
},
{
color = 4;
glyphname = N;
lastChange = "2023-06-06 07:09:33 +0000";
layers = (
{
anchors = (
{
name = bottom;
position = "{218, 0}";
},
{
name = top;
position = "{218, 700}";
}
);
layerId = "BEE1AFF0-4415-4363-825D-BBA98FF62E65";
paths = (
{
closed = 1;
nodes = (
"324.5 0 LINE",
"204 700 LINE",
"113 700 LINE",
"234 0 LINE"
);
},
{
closed = 1;
nodes = (
"126 0 LINE",
"126 700 LINE",
"36 700 LINE",
"36 0 LINE"
);
},
{
closed = 1;
nodes = (
"404 0 LINE",
"404 700 LINE",
"314 700 LINE",
"314 0 LINE"
);
}
);
width = 440;
},
{
anchors = (
{
name = bottom;
position = "{216, 0}";
},
{
name = top;
position = "{216, 700}";
}
);
associatedMasterId = "BEE1AFF0-4415-4363-825D-BBA98FF62E65";
layerId = "FEA9C9A9-D8CF-4A70-9FC7-9637B112DB3A";
name = "26 déc. 22 à 11:46";
paths = (
{
closed = 1;
nodes = (
"346 100 LINE",
"154 700 LINE",
"92 700 LINE",
"92 628 LINE",
"291 0 LINE",
"391 0 LINE"
);
},
{
closed = 1;
nodes = (
"141 0 LINE",
"141 700 LINE",
"36 700 LINE",
"36 0 LINE"
);
},
{
closed = 1;
nodes = (
"396 0 LINE",
"396 700 LINE",
"291 700 LINE",
"291 0 LINE"
);
}
);
width = 432;
},
{
anchors = (
{
name = bottom;
position = "{216, 0}";
},
{
name = top;
position = "{216, 700}";
}
);
associatedMasterId = "BEE1AFF0-4415-4363-825D-BBA98FF62E65";
layerId = "02B29470-806C-4249-9D47-BE2F148B5B30";
name = "26 déc. 22 à 11:47";
paths = (
{
closed = 1;
nodes = (
"346 100 LINE",
"154 700 LINE",
"92 700 LINE",
"92 628 LINE",
"291 0 LINE",
"391 0 LINE"
);
},
{
closed = 1;
nodes = (
"141 0 LINE",
"141 700 LINE",
"36 700 LINE",
"36 0 LINE"
);
},
{
closed = 1;
nodes = (
"396 0 LINE",
"396 700 LINE",
"291 700 LINE",
"291 0 LINE"
);
}
);
width = 432;
},
{
anchors = (
{
name = bottom;
position = "{216, 0}";
},
{
name = top;
position = "{216, 700}";
}
);
associatedMasterId = "BEE1AFF0-4415-4363-825D-BBA98FF62E65";
layerId = "666278B6-28A5-459C-B34D-40C695B2B969";
name = "26 déc. 22 à 11:53";
paths = (
{
closed = 1;
nodes = (
"316 100 LINE",
"174 700 LINE",
"102 700 LINE",
"102 628 LINE",
"251 0 LINE",
"391 0 LINE"
);
},
{
closed = 1;
nodes = (
"131 0 LINE",
"131 700 LINE",
"36 700 LINE",
"36 0 LINE"
);
},
{
closed = 1;
nodes = (
"396 0 LINE",
"396 700 LINE",
"301 700 LINE",
"301 0 LINE"
);
}
);
width = 432;
},
{
anchors = (
{
name = bottom;
position = "{226, 0}";
},
{
name = top;
position = "{226, 700}";
}
);
associatedMasterId = "BEE1AFF0-4415-4363-825D-BBA98FF62E65";
layerId = "F6735C60-65A7-4AB9-AA85-F87E01B5473B";
name = "26 déc. 22 à 11:55";
paths = (
{
closed = 1;
nodes = (
"329.5 100 LINE",
"171 700 LINE",
"90.5 700 LINE",
"90.5 628 LINE",
"259 0 LINE",
"329.5 0 LINE"
);
},
{
closed = 1;
nodes = (
"126 0 LINE",
"126 700 LINE",
"36 700 LINE",
"36 0 LINE"
);
},
{
closed = 1;
nodes = (
"394 0 LINE",
"394 700 LINE",
"304 700 LINE",
"304 0 LINE"
);
}
);
width = 430;
},
{
anchors = (
{
name = bottom;
position = "{218, 0}";
},
{
name = top;
position = "{218, 700}";
}
);
associatedMasterId = "BEE1AFF0-4415-4363-825D-BBA98FF62E65";
layerId = "D244CC8A-2049-4066-A97B-10CA622E49E6";
name = "5 juin 23 à 17:22";
paths = (
{
closed = 1;
nodes = (
"323 13.5 LINE",
"214.5 700 LINE",
"122.5 700 LINE",
"122.5 672 LINE",
"229 0 LINE",
"323 0 LINE"
);
},
{
closed = 1;
nodes = (
"126 0 LINE",
"126 700 LINE",
"36 700 LINE",
"36 0 LINE"
);
},
{
closed = 1;
nodes = (
"409.5 0 LINE",
"409.5 700 LINE",
"319.5 700 LINE",
"319.5 0 LINE"
);
}
);
width = 445.5;
}
);
leftKerningGroup = N;
leftMetricsKey = H;
rightKerningGroup = N;
rightMetricsKey = H;
unicode = 004E;
},
{
color = 4;
glyphname = Eng;
lastChange = "2023-06-06 07:09:38 +0000";
layers = (
{
components = (
{
name = N;
}
);
layerId = "BEE1AFF0-4415-4363-825D-BBA98FF62E65";
paths = (
{
closed = 1;
nodes = (
"342.5 -205 OFFCURVE",
"400 -163.5 OFFCURVE",
"400 -80.5 CURVE SMOOTH",
"400 50 LINE",
"310 50 LINE",
"310 -47 LINE SMOOTH",
"310 -114.5 OFFCURVE",
"277 -133.5 OFFCURVE",
"212 -104 CURVE",
"188 -185 LINE",
"219.5 -198.5 OFFCURVE",
"243.5 -205 OFFCURVE",
"271.5 -205 CURVE SMOOTH"
);
}
);
width = 440;
},
{
associatedMasterId = "BEE1AFF0-4415-4363-825D-BBA98FF62E65";
layerId = "E9684ACE-9804-42B5-8EA6-34370964234E";
name = "26 déc. 22 à 11:53";
paths = (
{
closed = 1;
nodes = (
"341.5 100 LINE",
"161 700 LINE",
"83.5 700 LINE",
"83.5 628 LINE",
"274 0 LINE",
"341.5 0 LINE"
);
},
{
closed = 1;
nodes = (
"131 0 LINE",
"131 700 LINE",
"36 700 LINE",
"36 0 LINE"
);
},
{
closed = 1;
nodes = (
"384 0 LINE",
"384 700 LINE",
"289 700 LINE",
"289 0 LINE"
);
}
);
width = 420;
},
{
associatedMasterId = "BEE1AFF0-4415-4363-825D-BBA98FF62E65";
layerId = "F68D72B3-B2FE-4A10-A3C7-351B88B84F42";
name = "26 déc. 22 à 12:00";
paths = (
{
closed = 1;
nodes = (
"341.5 100 LINE",
"161 700 LINE",
"83.5 700 LINE",
"83.5 628 LINE",
"274 0 LINE",
"341.5 0 LINE"
);
},
{
closed = 1;
nodes = (
"131 0 LINE",
"131 700 LINE",
"36 700 LINE",
"36 0 LINE"
);
},
{
closed = 1;
nodes = (
"384 0 LINE",
"384 700 LINE",
"289 700 LINE",
"289 0 LINE"
);
}
);
width = 420;
}
);
leftKerningGroup = N;
leftMetricsKey = H;
rightKerningGroup = N;
rightMetricsKey = H;
unicode = "014A,014B";
},
{
color = 4;
glyphname = O;
lastChange = "2023-06-09 06:24:24 +0000";
layers = (
{
anchors = (
{
name = bottom;
position = "{211, 0}";
},
{
name = center;
position = "{211, 350}";
},
{
name = ogonek;
position = "{427, 10}";
},
{
name = top;
position = "{211, 700}";
},
{
name = topleft;
position = "{-39, 700}";
},
{
name = topright;
position = "{461, 700}";
}
);
guideLines = (
{
position = "{211, -10}";
},
{
position = "{211, 710}";
}
);
layerId = "BEE1AFF0-4415-4363-825D-BBA98FF62E65";
paths = (
{
closed = 1;
nodes = (
"317 -10 OFFCURVE",
"396 76.5 OFFCURVE",
"396 350 CURVE SMOOTH",
"396 623.5 OFFCURVE",
"317 710 OFFCURVE",
"211 710 CURVE",
"211 610 LINE",
"252.5 610 OFFCURVE",
"286 558 OFFCURVE",
"286 350 CURVE SMOOTH",
"286 142 OFFCURVE",
"252.5 90 OFFCURVE",
"211 90 CURVE",
"211 -10 LINE"
);
},
{
closed = 1;
nodes = (
"211 90 LINE",
"169.5 90 OFFCURVE",
"136 142 OFFCURVE",
"136 350 CURVE SMOOTH",
"136 558 OFFCURVE",
"169.5 610 OFFCURVE",
"211 610 CURVE",
"211 710 LINE",
"105 710 OFFCURVE",
"26 623.5 OFFCURVE",
"26 350 CURVE SMOOTH",
"26 76.5 OFFCURVE",
"105 -10 OFFCURVE",
"211 -10 CURVE"
);
}
);
width = 422;
},
{
anchors = (
{
name = bottom;
position = "{240, 0}";
},
{
name = center;
position = "{240, 350}";
},
{
name = ogonek;
position = "{456, 10}";
},
{
name = top;
position = "{240, 700}";
},
{
name = topleft;
position = "{-10, 700}";
},
{
name = topright;
position = "{490, 700}";
}
);
associatedMasterId = "BEE1AFF0-4415-4363-825D-BBA98FF62E65";
layerId = "07DC447F-46D4-4B16-B885-0886296269AA";
name = "Oct 31 20, 23:07";
paths = (
{
closed = 1;
nodes = (
"455 350 LINE",
"455 526 OFFCURVE",
"388 708 OFFCURVE",
"240 708 CURVE",
"240 608 LINE",
"303 608 OFFCURVE",
"345 505 OFFCURVE",
"345 350 CURVE"
);
},
{
closed = 1;
nodes = (
"135 350 LINE",
"135 505 OFFCURVE",
"177 608 OFFCURVE",
"240 608 CURVE",
"240 708 LINE",
"92 708 OFFCURVE",
"25 526 OFFCURVE",
"25 350 CURVE"
);
},
{
closed = 1;
nodes = (
"345 195 OFFCURVE",
"303 92 OFFCURVE",
"240 92 CURVE",
"240 -8 LINE",
"388 -8 OFFCURVE",
"455 174 OFFCURVE",
"455 350 CURVE",
"345 350 LINE"
);
},
{
closed = 1;
nodes = (
"25 174 OFFCURVE",
"92 -8 OFFCURVE",
"240 -8 CURVE",
"240 92 LINE",
"177 92 OFFCURVE",
"135 195 OFFCURVE",
"135 350 CURVE",
"25 350 LINE"
);
}
);
width = 480;
},
{
anchors = (
{
name = bottom;
position = "{220, 0}";
},
{
name = center;
position = "{220, 350}";
},
{
name = ogonek;
position = "{436, 10}";
},
{
name = top;
position = "{220, 700}";
},
{
name = topleft;
position = "{-30, 700}";
},
{
name = topright;
position = "{470, 700}";
}
);
associatedMasterId = "BEE1AFF0-4415-4363-825D-BBA98FF62E65";
layerId = "CD5D28F5-7C63-4FD3-A196-3C721D01AE54";
name = "Oct 31 20, 23:21";
paths = (
{
closed = 1;
nodes = (
"35 111.5 OFFCURVE",
"98 -10 OFFCURVE",
"220 -10 CURVE",
"220 90 LINE",
"154 90 OFFCURVE",
"145 220 OFFCURVE",
"145 350 CURVE SMOOTH",
"145 480 OFFCURVE",
"154 610 OFFCURVE",
"220 610 CURVE",
"220 710 LINE",
"98 710 OFFCURVE",
"35 588.5 OFFCURVE",
"35 350 CURVE SMOOTH"
);
},
{
closed = 1;
nodes = (
"405 588.5 OFFCURVE",
"342 710 OFFCURVE",
"220 710 CURVE",
"220 610 LINE",
"286 610 OFFCURVE",
"295 480 OFFCURVE",
"295 350 CURVE SMOOTH",
"295 220 OFFCURVE",
"286 90 OFFCURVE",
"220 90 CURVE",
"220 -10 LINE",
"342 -10 OFFCURVE",
"405 111.5 OFFCURVE",
"405 350 CURVE SMOOTH"
);
}
);
width = 440;
}
);
leftKerningGroup = O;
rightKerningGroup = O;
unicode = 004F;
},
{
color = 4;
glyphname = Oslash;
lastChange = "2023-06-06 07:09:33 +0000";
layers = (
{
anchors = (
{
name = topleft;
position = "{-37.5, 700}";
},
{
name = topright;
position = "{462.5, 700}";
}
);
layerId = "BEE1AFF0-4415-4363-825D-BBA98FF62E65";
paths = (
{
closed = 1;
nodes = (
"62.5 -50 LINE",
"412 750 LINE",
"359.5 750 LINE",
"10 -50 LINE"
);
},
{
closed = 1;
nodes = (
"317 -10 OFFCURVE",
"396 76.5 OFFCURVE",
"396 350 CURVE SMOOTH",
"396 623.5 OFFCURVE",
"317 710 OFFCURVE",
"211 710 CURVE SMOOTH",
"105 710 OFFCURVE",
"26 623.5 OFFCURVE",
"26 350 CURVE SMOOTH",
"26 76.5 OFFCURVE",
"105 -10 OFFCURVE",
"211 -10 CURVE SMOOTH"
);
},
{
closed = 1;
nodes = (
"169.5 85 OFFCURVE",
"131 142 OFFCURVE",
"131 350 CURVE SMOOTH",
"131 558 OFFCURVE",
"169.5 615 OFFCURVE",
"211 615 CURVE SMOOTH",
"252.5 615 OFFCURVE",
"291 558 OFFCURVE",
"291 350 CURVE SMOOTH",
"291 142 OFFCURVE",
"252.5 85 OFFCURVE",
"211 85 CURVE SMOOTH"
);
}
);
width = 422;
}
);
leftKerningGroup = O;
rightKerningGroup = O;
unicode = "00D8,00F8";
},
{
color = 4;
glyphname = OE;
lastChange = "2023-06-06 07:09:38 +0000";
layers = (
{
layerId = "BEE1AFF0-4415-4363-825D-BBA98FF62E65";
paths = (
{
closed = 1;
nodes = (
"201 90 LINE",
"169.5 90 OFFCURVE",
"136 142 OFFCURVE",
"136 350 CURVE SMOOTH",
"136 558 OFFCURVE",
"169.5 610 OFFCURVE",
"201 610 CURVE",
"201 710 LINE",
"105 710 OFFCURVE",
"26 623.5 OFFCURVE",
"26 350 CURVE SMOOTH",
"26 76.5 OFFCURVE",
"105 -10 OFFCURVE",
"201 -10 CURVE"
);
},
{
closed = 1;
nodes = (
"521 0 LINE",
"521 90 LINE",
"336 90 LINE",
"336 0 LINE"
);
},
{
closed = 1;
nodes = (
"304 -10 OFFCURVE",
"336.5 86.5 OFFCURVE",
"336.5 350 CURVE SMOOTH",
"336.5 613.5 OFFCURVE",
"304 710 OFFCURVE",
"201 710 CURVE",
"201 610 LINE",
"242.5 610 OFFCURVE",
"276 558 OFFCURVE",
"276 350 CURVE SMOOTH",
"276 142 OFFCURVE",
"242.5 90 OFFCURVE",
"201 90 CURVE",
"201 -10 LINE"
);
},
{
closed = 1;
nodes = (
"386 0 LINE",
"386 700 LINE",
"306 700 LINE",
"306 0 LINE"
);
},
{
closed = 1;
nodes = (
"496 328 LINE",
"496 418 LINE",
"336 418 LINE",
"336 328 LINE"
);
},
{
closed = 1;
nodes = (
"521 610 LINE",
"521 700 LINE",
"336 700 LINE",
"336 610 LINE"
);
}
);
width = 541;
}
);
leftKerningGroup = O;
leftMetricsKey = O;
rightKerningGroup = E;
rightMetricsKey = E;
unicode = 0152;
},
{
color = 4;
glyphname = P;
lastChange = "2023-06-06 07:09:33 +0000";
layers = (
{
layerId = "BEE1AFF0-4415-4363-825D-BBA98FF62E65";
paths = (
{
closed = 1;
nodes = (
"141 0 LINE",
"141 700 LINE",
"36 700 LINE",
"36 0 LINE"
);
},
{
closed = 1;
nodes = (
"192 193 LINE SMOOTH",
"277.5 193 OFFCURVE",
"363 271 OFFCURVE",
"363 457 CURVE",
"261 446.5 LINE",
"261 357.5 OFFCURVE",
"232.5 293 OFFCURVE",
"175 293 CURVE SMOOTH",
"118 293 LINE",
"118 193 LINE"
);
},
{
closed = 1;
nodes = (
"363 457 LINE",
"363 642.5 OFFCURVE",
"277.5 700 OFFCURVE",
"192 700 CURVE SMOOTH",
"118 700 LINE",
"118 600 LINE",
"175 600 LINE SMOOTH",
"232.5 600 OFFCURVE",
"261 535.5 OFFCURVE",
"261 446.5 CURVE"
);
}
);
width = 383;
},
{
associatedMasterId = "BEE1AFF0-4415-4363-825D-BBA98FF62E65";
layerId = "90CB8D84-5F12-4E16-A1F5-0FE11DA1233B";
name = "Mar 10 21, 18:32";
paths = (
{
closed = 1;
nodes = (
"365 600 OFFCURVE",
"281 700 OFFCURVE",
"140 700 CURVE",
"140 600 LINE",
"215 600 OFFCURVE",
"265 540 OFFCURVE",
"265 450 CURVE SMOOTH",
"265 360 OFFCURVE",
"215 300 OFFCURVE",
"140 300 CURVE",
"140 200 LINE",
"281 200 OFFCURVE",
"365 300 OFFCURVE",
"365 450 CURVE SMOOTH"
);
}
);
width = 390;
},
{
associatedMasterId = "BEE1AFF0-4415-4363-825D-BBA98FF62E65";
layerId = "B9101CFD-4C7A-45DB-B97D-B3C12D00633A";
name = "Mar 10 21, 18:32";
paths = (
{
closed = 1;
nodes = (
"365 600 OFFCURVE",
"281 700 OFFCURVE",
"140 700 CURVE",
"140 600 LINE",
"215 600 OFFCURVE",
"265 540 OFFCURVE",
"265 450 CURVE SMOOTH",
"265 360 OFFCURVE",
"215 300 OFFCURVE",
"140 300 CURVE",
"140 200 LINE",
"281 200 OFFCURVE",
"365 300 OFFCURVE",
"365 450 CURVE SMOOTH"
);
}
);
width = 390;
},
{
associatedMasterId = "BEE1AFF0-4415-4363-825D-BBA98FF62E65";
layerId = "727739EE-EF4D-429B-AB07-2F4D45A978DD";
name = "3 sept. 22 à 16:15";
paths = (
{
closed = 1;
nodes = (
"360 610 OFFCURVE",
"281 700 OFFCURVE",
"140 700 CURVE",
"140 600 LINE",
"215 600 OFFCURVE",
"260 540 OFFCURVE",
"260 445 CURVE SMOOTH",
"260 350 OFFCURVE",
"215 250 OFFCURVE",
"140 250 CURVE",
"140 150 LINE",
"272 150 OFFCURVE",
"360 268 OFFCURVE",
"360 445 CURVE SMOOTH"
);
}
);
width = 380;
},
{
associatedMasterId = "BEE1AFF0-4415-4363-825D-BBA98FF62E65";
layerId = "F4B565EA-CC0B-45E1-A2DA-8AF2B4A423B2";
name = "28 oct. 22 à 16:50";
paths = (
{
closed = 1;
nodes = (
"289.5 150 OFFCURVE",
"361 302.5 OFFCURVE",
"361 455 CURVE SMOOTH",
"361 635.5 OFFCURVE",
"262 700 OFFCURVE",
"141 700 CURVE SMOOTH",
"71 700 LINE",
"71 600 LINE",
"141 600 LINE SMOOTH",
"221 600 OFFCURVE",
"261 532.5 OFFCURVE",
"261 445 CURVE SMOOTH",
"261 357 OFFCURVE",
"221 250 OFFCURVE",
"141 250 CURVE",
"141 150 LINE"
);
},
{
closed = 1;
nodes = (
"141 0 LINE",
"141 700 LINE",
"36 700 LINE",
"36 0 LINE"
);
}
);
width = 381;
},
{
associatedMasterId = "BEE1AFF0-4415-4363-825D-BBA98FF62E65";
layerId = "432BDC6D-9D6F-4E68-A986-5C68BE8589E7";
name = "6 juin 23 à 07:55";
paths = (
{
closed = 1;
nodes = (
"141 0 LINE",
"141 700 LINE",
"36 700 LINE",
"36 0 LINE"
);
},
{
closed = 1;
nodes = (
"138 600 LINE",
"174.5 600 LINE SMOOTH",
"236 600 OFFCURVE",
"261 534 OFFCURVE",
"261 462 CURVE SMOOTH",
"261 376.5 OFFCURVE",
"226 283 OFFCURVE",
"174.5 283 CURVE SMOOTH",
"138 283 LINE",
"138 183 LINE",
"192 183 LINE SMOOTH",
"304.5 183 OFFCURVE",
"367 328.5 OFFCURVE",
"367 462 CURVE SMOOTH",
"367 586.5 OFFCURVE",
"312.5 700 OFFCURVE",
"192 700 CURVE SMOOTH",
"138 700 LINE"
);
}
);
width = 387;
},
{
associatedMasterId = "BEE1AFF0-4415-4363-825D-BBA98FF62E65";
layerId = "F102E167-2188-49EE-B150-D358EE12136F";
name = "6 juin 23 à 07:58";
paths = (
{
closed = 1;
nodes = (
"141 0 LINE",
"141 700 LINE",
"36 700 LINE",
"36 0 LINE"
);
},
{
closed = 1;
nodes = (
"118 600 LINE",
"175 600 LINE SMOOTH",
"232.5 600 OFFCURVE",
"261 535.5 OFFCURVE",
"261 456.5 CURVE",
"363 467 LINE",
"363 642.5 OFFCURVE",
"277.5 700 OFFCURVE",
"192 700 CURVE SMOOTH",
"118 700 LINE"
);
},
{
closed = 1;
nodes = (
"192 213 LINE SMOOTH",
"277.5 213 OFFCURVE",
"363 291 OFFCURVE",
"363 467 CURVE",
"261 456.5 LINE",
"261 377.5 OFFCURVE",
"232.5 313 OFFCURVE",
"175 313 CURVE SMOOTH",
"118 313 LINE",
"118 213 LINE"
);
}
);
width = 387;
}
);
leftKerningGroup = H;
leftMetricsKey = H;
rightKerningGroup = P;
unicode = 0050;
},
{
color = 4;
glyphname = Thorn;
lastChange = "2023-06-07 09:48:04 +0000";
layers = (
{
layerId = "BEE1AFF0-4415-4363-825D-BBA98FF62E65";
paths = (
{
closed = 1;
nodes = (
"141 0 LINE",
"141 700 LINE",
"36 700 LINE",
"36 0 LINE"
);
},
{
closed = 1;
nodes = (
"192 116.5 LINE SMOOTH",
"277.5 116.5 OFFCURVE",
"363 194.5 OFFCURVE",
"363 380.5 CURVE",
"261 370 LINE",
"261 281 OFFCURVE",
"232.5 216.5 OFFCURVE",
"175 216.5 CURVE SMOOTH",
"118 216.5 LINE",
"118 116.5 LINE"
);
},
{
closed = 1;
nodes = (
"363 380.5 LINE",
"363 566 OFFCURVE",
"277.5 623.5 OFFCURVE",
"192 623.5 CURVE SMOOTH",
"118 623.5 LINE",
"118 523.5 LINE",
"175 523.5 LINE SMOOTH",
"232.5 523.5 OFFCURVE",
"261 459 OFFCURVE",
"261 370 CURVE"
);
}
);
width = 383;
}
);
leftKerningGroup = H;
leftMetricsKey = H;
rightKerningGroup = Thorn;
unicode = 00DE;
},
{
color = 4;
glyphname = Q;
lastChange = "2023-06-06 07:14:09 +0000";
layers = (
{
annotations = (
{
position = "{395, 61}";
text = "LONGER TAIL !!!";
type = Text;
}
);
components = (
{
alignment = -1;
locked = 1;
name = O;
}
);
layerId = "BEE1AFF0-4415-4363-825D-BBA98FF62E65";
paths = (
{
closed = 1;
nodes = (
"420 -22 LINE",
"329.5 90.5 LINE",
"260.5 44.5 LINE",
"337.5 -78.5 LINE"
);
}
);
width = 430;
}
);
leftKerningGroup = O;
leftMetricsKey = O;
rightKerningGroup = O;
unicode = 0051;
},
{
color = 4;
glyphname = R;
lastChange = "2023-06-06 07:09:33 +0000";
layers = (
{
associatedMasterId = "BEE1AFF0-4415-4363-825D-BBA98FF62E65";
layerId = "B99ADCFE-419A-4350-93C8-D2D672BE5420";
name = "Mar 10 21, 17:55";
paths = (
{
closed = 1;
nodes = (
"257.5 322 OFFCURVE",
"338 403 OFFCURVE",
"338 523.5 CURVE SMOOTH",
"338 629.5 OFFCURVE",
"279 700 OFFCURVE",
"191 700 CURVE SMOOTH",
"137 700 LINE",
"137 620 LINE",
"174 620 LINE SMOOTH",
"211 620 OFFCURVE",
"236 577.5 OFFCURVE",
"236 513.5 CURVE SMOOTH",
"236 431.5 OFFCURVE",
"196.5 377 OFFCURVE",
"137 377 CURVE",
"137 323 LINE"
);
},
{
closed = 1;
nodes = (
"140 0 LINE",
"140 700 LINE",
"40 700 LINE",
"40 0 LINE"
);
},
{
closed = 1;
nodes = (
"345 0 LINE",
"230 360 LINE",
"150 360 LINE",
"245 0 LINE"
);
}
);
width = 365;
},
{
associatedMasterId = "BEE1AFF0-4415-4363-825D-BBA98FF62E65";
layerId = "566DC0D1-BF61-42AC-B555-129F8272114F";
name = "Mar 12 21, 19:24";
paths = (
{
closed = 1;
nodes = (
"140 0 LINE",
"140 700 LINE",
"40 700 LINE",
"40 0 LINE"
);
},
{
closed = 1;
nodes = (
"360 608.5 OFFCURVE",
"272 700 OFFCURVE",
"140 700 CURVE",
"140 600 LINE",
"212 599 OFFCURVE",
"260 547.5 OFFCURVE",
"260 471.5 CURVE SMOOTH",
"260 372 OFFCURVE",
"212 300 OFFCURVE",
"140 300 CURVE",
"140 200 LINE",
"272 198 OFFCURVE",
"360 305 OFFCURVE",
"360 471.5 CURVE SMOOTH"
);
},
{
closed = 1;
nodes = (
"345 0 LINE",
"257.5 260 LINE",
"177.5 260 LINE",
"245 0 LINE"
);
}
);
width = 380;
},
{
associatedMasterId = "BEE1AFF0-4415-4363-825D-BBA98FF62E65";
layerId = "9301D22C-EE5F-4609-8E09-6259C5AC1E3D";
name = "Mar 12 21, 19:25";
paths = (
{
closed = 1;
nodes = (
"140 0 LINE",
"140 700 LINE",
"40 700 LINE",
"40 0 LINE"
);
},
{
closed = 1;
nodes = (
"360 608.5 OFFCURVE",
"272 700 OFFCURVE",
"140 700 CURVE",
"140 600 LINE",
"212 599 OFFCURVE",
"260 547.5 OFFCURVE",
"260 471.5 CURVE SMOOTH",
"260 372 OFFCURVE",
"212 300 OFFCURVE",
"140 300 CURVE",
"140 200 LINE",
"272 198 OFFCURVE",
"360 305 OFFCURVE",
"360 471.5 CURVE SMOOTH"
);
},
{
closed = 1;
nodes = (
"345 0 LINE",
"257.5 260 LINE",
"177.5 260 LINE",
"245 0 LINE"
);
}
);
width = 380;
},
{
anchors = (
{
name = bottom;
position = "{194, 0}";
},
{
name = top;
position = "{194, 700}";
}
);
guideLines = (
{
angle = 90;
position = "{363, 457}";
}
);
layerId = "BEE1AFF0-4415-4363-825D-BBA98FF62E65";
paths = (
{
closed = 1;
nodes = (
"141 0 LINE",
"141 700 LINE",
"36 700 LINE",
"36 0 LINE"
);
},
{
closed = 1;
nodes = (
"353 0 LINE",
"260.5 260 LINE",
"170.5 260 LINE",
"243 0 LINE"
);
},
{
closed = 1;
nodes = (
"192 193 LINE SMOOTH",
"277.5 193 OFFCURVE",
"363 271 OFFCURVE",
"363 457 CURVE",
"261 446.5 LINE",
"261 357.5 OFFCURVE",
"232.5 293 OFFCURVE",
"175 293 CURVE SMOOTH",
"118 293 LINE",
"118 193 LINE"
);
},
{
closed = 1;
nodes = (
"363 457 LINE",
"363 642.5 OFFCURVE",
"277.5 700 OFFCURVE",
"192 700 CURVE SMOOTH",
"118 700 LINE",
"118 600 LINE",
"175 600 LINE SMOOTH",
"232.5 600 OFFCURVE",
"261 535.5 OFFCURVE",
"261 446.5 CURVE"
);
}
);
width = 393;
},
{
associatedMasterId = "BEE1AFF0-4415-4363-825D-BBA98FF62E65";
layerId = "D9475B46-16FA-4F46-A53B-3AAA27CB6698";
name = "28 oct. 22 à 16:50";
paths = (
{
closed = 1;
nodes = (
"141 0 LINE",
"141 700 LINE",
"36 700 LINE",
"36 0 LINE"
);
},
{
closed = 1;
nodes = (
"346 0 LINE",
"258.5 260 LINE",
"178.5 260 LINE",
"246 0 LINE"
);
},
{
closed = 1;
nodes = (
"361 595 OFFCURVE",
"282 700 OFFCURVE",
"141 700 CURVE",
"141 600 LINE",
"216 600 OFFCURVE",
"261 535 OFFCURVE",
"261 445 CURVE SMOOTH",
"261 355 OFFCURVE",
"216 250 OFFCURVE",
"141 250 CURVE",
"141 150 LINE",
"273 150 OFFCURVE",
"361 268 OFFCURVE",
"361 445 CURVE SMOOTH"
);
}
);
width = 381;
},
{
associatedMasterId = "BEE1AFF0-4415-4363-825D-BBA98FF62E65";
layerId = "5ED7BBE5-FE3B-4D9D-ABFE-72DB01DFD739";
name = "28 oct. 22 à 16:56";
paths = (
{
closed = 1;
nodes = (
"141 0 LINE",
"141 700 LINE",
"36 700 LINE",
"36 0 LINE"
);
},
{
closed = 1;
nodes = (
"346 0 LINE",
"258.5 260 LINE",
"178.5 260 LINE",
"246 0 LINE"
);
},
{
closed = 1;
nodes = (
"138 600 LINE",
"175 600 LINE SMOOTH",
"232.5 600 OFFCURVE",
"261 545.5 OFFCURVE",
"261 466.5 CURVE",
"363 466.5 LINE",
"363 610.5 OFFCURVE",
"277.5 700 OFFCURVE",
"192 700 CURVE SMOOTH",
"138 700 LINE"
);
},
{
closed = 1;
nodes = (
"192 183 LINE SMOOTH",
"277.5 183 OFFCURVE",
"363 272.5 OFFCURVE",
"363 466.5 CURVE",
"261 466.5 LINE",
"261 337.5 OFFCURVE",
"232.5 283 OFFCURVE",
"175 283 CURVE SMOOTH",
"138 283 LINE",
"138 183 LINE"
);
}
);
width = 383;
},
{
anchors = (
{
name = bottom;
position = "{194, 0}";
},
{
name = top;
position = "{194, 700}";
}
);
associatedMasterId = "BEE1AFF0-4415-4363-825D-BBA98FF62E65";
layerId = "85C5D231-78B5-4E9A-BA66-BCC99DA8CB97";
name = "6 juin 23 à 08:14";
paths = (
{
closed = 1;
nodes = (
"141 0 LINE",
"141 700 LINE",
"36 700 LINE",
"36 0 LINE"
);
},
{
closed = 1;
nodes = (
"346 0 LINE",
"258.5 260 LINE",
"168.5 260 LINE",
"236 0 LINE"
);
},
{
closed = 1;
nodes = (
"138 600 LINE",
"174.5 600 LINE SMOOTH",
"236 600 OFFCURVE",
"261 534 OFFCURVE",
"261 462 CURVE SMOOTH",
"261 376.5 OFFCURVE",
"226 288 OFFCURVE",
"174.5 288 CURVE SMOOTH",
"138 288 LINE",
"138 198 LINE",
"192 198 LINE SMOOTH",
"304.5 198 OFFCURVE",
"367 328.5 OFFCURVE",
"367 462 CURVE SMOOTH",
"367 586.5 OFFCURVE",
"312.5 700 OFFCURVE",
"192 700 CURVE SMOOTH",
"138 700 LINE"
);
}
);
width = 397;
}
);
leftKerningGroup = H;
leftMetricsKey = H;
rightKerningGroup = R;
unicode = 0052;
},
{
color = 4;
glyphname = S;
lastChange = "2023-06-09 07:17:43 +0000";
layers = (
{
anchors = (
{
name = bottom;
position = "{170, 0}";
},
{
name = top;
position = "{192, 700}";
}
);
guideLines = (
{
angle = 90;
position = "{336, 166}";
},
{
angle = 90;
position = "{378.5, 500}";
},
{
position = "{208, -10}";
},
{
angle = 90;
position = "{31, 540}";
},
{
position = "{210, 710}";
},
{
position = "{166.5, 90}";
}
);
layerId = "BEE1AFF0-4415-4363-825D-BBA98FF62E65";
paths = (
{
closed = 1;
nodes = (
"258 -10 OFFCURVE",
"336 61 OFFCURVE",
"336 166 CURVE SMOOTH",
"336 242.5 OFFCURVE",
"294 290 OFFCURVE",
"225 383 CURVE SMOOTH",
"206.5 408 LINE SMOOTH",
"163 467 OFFCURVE",
"133.5 509 OFFCURVE",
"133.5 551.5 CURVE SMOOTH",
"133.5 590.5 OFFCURVE",
"158 610 OFFCURVE",
"186.5 610 CURVE SMOOTH",
"216 610 OFFCURVE",
"250 590 OFFCURVE",
"268.5 548.5 CURVE",
"337 615.5 LINE",
"298 676.5 OFFCURVE",
"246.5 710 OFFCURVE",
"192.5 710 CURVE SMOOTH",
"97.5 710 OFFCURVE",
"31 640 OFFCURVE",
"31 542 CURVE SMOOTH",
"31 471 OFFCURVE",
"67.5 417.5 OFFCURVE",
"132 330.5 CURVE SMOOTH",
"150.5 305.5 LINE SMOOTH",
"185.5 258 OFFCURVE",
"231 206.5 OFFCURVE",
"231 158 CURVE SMOOTH",
"231 118 OFFCURVE",
"200 90 OFFCURVE",
"166.5 90 CURVE SMOOTH",
"137 90 OFFCURVE",
"110.5 112 OFFCURVE",
"94 150.5 CURVE",
"16 96 LINE",
"54.5 19.5 OFFCURVE",
"113 -10 OFFCURVE",
"170 -10 CURVE SMOOTH"
);
}
);
width = 353;
},
{
anchors = (
{
name = bottom;
position = "{192, 0}";
},
{
name = top;
position = "{216, 708}";
}
);
associatedMasterId = "BEE1AFF0-4415-4363-825D-BBA98FF62E65";
guideLines = (
{
angle = 90;
position = "{28.5, 201.5}";
},
{
angle = 90;
position = "{396.5, 500}";
}
);
layerId = "50C0DA7B-4A9E-4506-A6DC-1F350A83F5D2";
name = "Mar 5 21, 16:05";
paths = (
{
closed = 1;
nodes = (
"296.5 -8 OFFCURVE",
"356.5 71.5 OFFCURVE",
"356.5 175.5 CURVE SMOOTH",
"356.5 249.5 OFFCURVE",
"318.5 324 OFFCURVE",
"238 389 CURVE SMOOTH",
"186.5 430.5 OFFCURVE",
"138.5 496.5 OFFCURVE",
"138.5 546 CURVE SMOOTH",
"138.5 589 OFFCURVE",
"160.5 618 OFFCURVE",
"193 618 CURVE SMOOTH",
"231 618 OFFCURVE",
"256.5 585 OFFCURVE",
"256.5 535 CURVE SMOOTH",
"256.5 524.5 OFFCURVE",
"255.5 513 OFFCURVE",
"253 500 CURVE",
"356.5 500 LINE",
"371.5 622.5 OFFCURVE",
"313 708 OFFCURVE",
"186 708 CURVE SMOOTH",
"86.5 708 OFFCURVE",
"38.5 645 OFFCURVE",
"38.5 551 CURVE SMOOTH",
"38.5 472.5 OFFCURVE",
"62.5 428 OFFCURVE",
"171 318 CURVE SMOOTH",
"218.5 270 OFFCURVE",
"256.5 218 OFFCURVE",
"256.5 170.5 CURVE SMOOTH",
"256.5 117.5 OFFCURVE",
"222.5 91 OFFCURVE",
"189 91 CURVE SMOOTH",
"157 91 OFFCURVE",
"135.5 115.5 OFFCURVE",
"135.5 163.5 CURVE SMOOTH",
"135.5 175.5 OFFCURVE",
"138 188.5 OFFCURVE",
"143.5 201.5 CURVE",
"38.5 201.5 LINE",
"13.5 34 OFFCURVE",
"120 -8 OFFCURVE",
"196 -8 CURVE SMOOTH"
);
}
);
width = 399;
},
{
anchors = (
{
name = bottom;
position = "{192, 0}";
},
{
name = top;
position = "{216, 708}";
}
);
associatedMasterId = "BEE1AFF0-4415-4363-825D-BBA98FF62E65";
guideLines = (
{
angle = 90;
position = "{28.5, 201.5}";
},
{
angle = 90;
position = "{396.5, 500}";
}
);
layerId = "AE6FF745-2AAF-418C-A98D-FBD64FFF652C";
name = "Mar 8 21, 18:42";
paths = (
{
closed = 1;
nodes = (
"222 389 LINE",
"177.5 430.5 OFFCURVE",
"135 500.5 OFFCURVE",
"135 550 CURVE",
"25 550 LINE",
"25 471.5 OFFCURVE",
"53.5 428 OFFCURVE",
"155.5 318 CURVE"
);
},
{
closed = 1;
nodes = (
"135 550 LINE",
"135 589.5 OFFCURVE",
"166.5 609.5 OFFCURVE",
"201.5 609.5 CURVE SMOOTH",
"238.5 609.5 OFFCURVE",
"279.5 587.5 OFFCURVE",
"293.5 543.5 CURVE",
"374 610.5 LINE",
"334.5 677 OFFCURVE",
"265.5 708 OFFCURVE",
"199.5 708 CURVE SMOOTH",
"109.5 708 OFFCURVE",
"25 651 OFFCURVE",
"25 550 CURVE"
);
},
{
closed = 1;
nodes = (
"177 311 LINE",
"221.5 269.5 OFFCURVE",
"264 199.5 OFFCURVE",
"264 150 CURVE",
"374 150 LINE",
"374 228.5 OFFCURVE",
"345.5 272 OFFCURVE",
"243.5 382 CURVE"
);
},
{
closed = 1;
nodes = (
"264 150 LINE",
"264 110.5 OFFCURVE",
"232.5 90.5 OFFCURVE",
"197.5 90.5 CURVE SMOOTH",
"160.5 90.5 OFFCURVE",
"119.5 112.5 OFFCURVE",
"105.5 156.5 CURVE",
"25 89.5 LINE",
"64.5 23 OFFCURVE",
"133.5 -8 OFFCURVE",
"199.5 -8 CURVE SMOOTH",
"289.5 -8 OFFCURVE",
"374 49 OFFCURVE",
"374 150 CURVE"
);
}
);
width = 399;
},
{
anchors = (
{
name = bottom;
position = "{192, 0}";
},
{
name = top;
position = "{216, 708}";
}
);
associatedMasterId = "BEE1AFF0-4415-4363-825D-BBA98FF62E65";
guideLines = (
{
angle = 90;
position = "{28.5, 201.5}";
},
{
angle = 90;
position = "{396.5, 500}";
}
);
layerId = "C091C8EA-4E06-40BF-889B-2881470A6EAC";
name = "Mar 8 21, 18:44";
paths = (
{
closed = 1;
nodes = (
"237 389 LINE",
"192.5 430.5 OFFCURVE",
"145 500.5 OFFCURVE",
"145 550 CURVE",
"35 550 LINE",
"35 471.5 OFFCURVE",
"63.5 423 OFFCURVE",
"165.5 313 CURVE"
);
},
{
closed = 1;
nodes = (
"145 550 LINE",
"145 589.5 OFFCURVE",
"176.5 609.5 OFFCURVE",
"201.5 609.5 CURVE SMOOTH",
"238.5 609.5 OFFCURVE",
"279.5 587.5 OFFCURVE",
"293.5 543.5 CURVE",
"374 610.5 LINE",
"334.5 677 OFFCURVE",
"265.5 708 OFFCURVE",
"199.5 708 CURVE SMOOTH",
"119.5 708 OFFCURVE",
"35 651 OFFCURVE",
"35 550 CURVE"
);
},
{
closed = 1;
nodes = (
"165.5 313 LINE",
"210 271.5 OFFCURVE",
"254 199.5 OFFCURVE",
"254 150 CURVE",
"364 150 LINE",
"364 228.5 OFFCURVE",
"339 279 OFFCURVE",
"237 389 CURVE"
);
},
{
closed = 1;
nodes = (
"254 150 LINE",
"254 110.5 OFFCURVE",
"232.5 90.5 OFFCURVE",
"197.5 90.5 CURVE SMOOTH",
"160.5 90.5 OFFCURVE",
"119.5 112.5 OFFCURVE",
"105.5 156.5 CURVE",
"25 89.5 LINE",
"64.5 23 OFFCURVE",
"133.5 -8 OFFCURVE",
"199.5 -8 CURVE SMOOTH",
"279.5 -8 OFFCURVE",
"364 49 OFFCURVE",
"364 150 CURVE"
);
}
);
width = 399;
},
{
anchors = (
{
name = bottom;
position = "{192, 0}";
},
{
name = top;
position = "{216, 708}";
}
);
associatedMasterId = "BEE1AFF0-4415-4363-825D-BBA98FF62E65";
guideLines = (
{
angle = 90;
position = "{28.5, 201.5}";
},
{
angle = 90;
position = "{396.5, 500}";
}
);
layerId = "FA2C2C95-4D8E-441F-9562-6F7085C43222";
name = "Mar 8 21, 18:46";
paths = (
{
closed = 1;
nodes = (
"140 545 LINE",
"140 585 OFFCURVE",
"173 609 OFFCURVE",
"205 609 CURVE SMOOTH",
"240 609 OFFCURVE",
"280 586.5 OFFCURVE",
"293.5 543.5 CURVE",
"374 610.5 LINE",
"334.5 677 OFFCURVE",
"265.5 708 OFFCURVE",
"199.5 708 CURVE SMOOTH",
"109 708 OFFCURVE",
"35 632 OFFCURVE",
"35 545 CURVE"
);
},
{
closed = 1;
nodes = (
"259 160 LINE",
"259 119 OFFCURVE",
"222.5 90 OFFCURVE",
"192.5 90 CURVE SMOOTH",
"158.5 90 OFFCURVE",
"119 113.5 OFFCURVE",
"105.5 156.5 CURVE",
"25 89.5 LINE",
"64.5 23 OFFCURVE",
"128.5 -8 OFFCURVE",
"194.5 -8 CURVE SMOOTH",
"274.5 -8 OFFCURVE",
"369 59 OFFCURVE",
"369 160 CURVE"
);
},
{
closed = 1;
nodes = (
"35 466.5 OFFCURVE",
"61.5 421 OFFCURVE",
"163.5 311 CURVE SMOOTH",
"208 269.5 OFFCURVE",
"259 209.5 OFFCURVE",
"259 160 CURVE",
"369 160 LINE",
"369 238.5 OFFCURVE",
"341.5 281.5 OFFCURVE",
"239.5 391.5 CURVE SMOOTH",
"195 433 OFFCURVE",
"140 495.5 OFFCURVE",
"140 545 CURVE",
"35 545 LINE"
);
}
);
width = 399;
},
{
anchors = (
{
name = bottom;
position = "{192, 0}";
},
{
name = top;
position = "{216, 708}";
}
);
associatedMasterId = "BEE1AFF0-4415-4363-825D-BBA98FF62E65";
guideLines = (
{
angle = 90;
position = "{28.5, 201.5}";
},
{
angle = 90;
position = "{396.5, 500}";
}
);
layerId = "A8F51051-1F21-4780-AD3C-2CAB4FDCF6EC";
name = "Mar 8 21, 18:47";
paths = (
{
closed = 1;
nodes = (
"140 545 LINE",
"140 585 OFFCURVE",
"173 609 OFFCURVE",
"205 609 CURVE SMOOTH",
"246 609 OFFCURVE",
"281 583 OFFCURVE",
"293.5 543.5 CURVE",
"374 610.5 LINE",
"334.5 677 OFFCURVE",
"265.5 708 OFFCURVE",
"199.5 708 CURVE SMOOTH",
"109 708 OFFCURVE",
"35 632 OFFCURVE",
"35 545 CURVE"
);
},
{
closed = 1;
nodes = (
"259 160 LINE",
"259 119 OFFCURVE",
"222.5 90 OFFCURVE",
"192.5 90 CURVE SMOOTH",
"153 90 OFFCURVE",
"118 116.5 OFFCURVE",
"105.5 156.5 CURVE",
"25 89.5 LINE",
"64.5 23 OFFCURVE",
"128.5 -8 OFFCURVE",
"194.5 -8 CURVE SMOOTH",
"274.5 -8 OFFCURVE",
"369 59 OFFCURVE",
"369 160 CURVE"
);
},
{
closed = 1;
nodes = (
"35 466.5 OFFCURVE",
"61.5 421 OFFCURVE",
"163.5 311 CURVE SMOOTH",
"208 269.5 OFFCURVE",
"259 209.5 OFFCURVE",
"259 160 CURVE",
"369 160 LINE",
"369 238.5 OFFCURVE",
"341.5 281.5 OFFCURVE",
"239.5 391.5 CURVE SMOOTH",
"195 433 OFFCURVE",
"140 495.5 OFFCURVE",
"140 545 CURVE",
"35 545 LINE"
);
}
);
width = 399;
},
{
anchors = (
{
name = bottom;
position = "{192, 0}";
},
{
name = top;
position = "{216, 708}";
}
);
associatedMasterId = "BEE1AFF0-4415-4363-825D-BBA98FF62E65";
guideLines = (
{
angle = 90;
position = "{28.5, 201.5}";
},
{
angle = 90;
position = "{396.5, 500}";
}
);
layerId = "1A1405B3-24B8-46BE-8AB9-DDB3E71F9DE6";
name = "Mar 8 21, 19:30";
paths = (
{
closed = 1;
nodes = (
"138.5 550 LINE",
"138.5 590 OFFCURVE",
"174 609 OFFCURVE",
"206 609 CURVE SMOOTH",
"247 609 OFFCURVE",
"277 578 OFFCURVE",
"289.5 538.5 CURVE",
"370 605.5 LINE",
"330.5 672 OFFCURVE",
"266.5 708 OFFCURVE",
"200.5 708 CURVE SMOOTH",
"110 708 OFFCURVE",
"33.5 637 OFFCURVE",
"33.5 550 CURVE"
);
},
{
closed = 1;
nodes = (
"259 160 LINE",
"259 119 OFFCURVE",
"222.5 90 OFFCURVE",
"192.5 90 CURVE SMOOTH",
"153 90 OFFCURVE",
"118 116.5 OFFCURVE",
"105.5 156.5 CURVE",
"25 89.5 LINE",
"64.5 23 OFFCURVE",
"128.5 -8 OFFCURVE",
"194.5 -8 CURVE SMOOTH",
"274.5 -8 OFFCURVE",
"369 59 OFFCURVE",
"369 160 CURVE"
);
},
{
closed = 1;
nodes = (
"33.5 471.5 OFFCURVE",
"61.5 421 OFFCURVE",
"163.5 311 CURVE SMOOTH",
"208 269.5 OFFCURVE",
"259 209.5 OFFCURVE",
"259 160 CURVE",
"369 160 LINE",
"369 238.5 OFFCURVE",
"341.5 281.5 OFFCURVE",
"239.5 391.5 CURVE SMOOTH",
"195 433 OFFCURVE",
"138.5 500.5 OFFCURVE",
"138.5 550 CURVE",
"33.5 550 LINE"
);
}
);
width = 395;
},
{
anchors = (
{
name = bottom;
position = "{182, 0}";
},
{
name = top;
position = "{206, 708}";
}
);
associatedMasterId = "BEE1AFF0-4415-4363-825D-BBA98FF62E65";
guideLines = (
{
angle = 90;
position = "{18.5, 201.5}";
},
{
angle = 90;
position = "{386.5, 500}";
}
);
layerId = "25401320-99DA-4946-A884-650F501A7E9F";
name = "Mar 10 21, 10:48";
paths = (
{
closed = 1;
nodes = (
"131.5 550 LINE",
"131.5 590 OFFCURVE",
"164 609 OFFCURVE",
"196 609 CURVE SMOOTH",
"237 609 OFFCURVE",
"262 578 OFFCURVE",
"274.5 538.5 CURVE",
"355 605.5 LINE",
"315.5 672 OFFCURVE",
"256.5 708 OFFCURVE",
"190.5 708 CURVE SMOOTH",
"113 708 OFFCURVE",
"31.5 637 OFFCURVE",
"31.5 550 CURVE"
);
},
{
closed = 1;
nodes = (
"249 160 LINE",
"249 119 OFFCURVE",
"212.5 90 OFFCURVE",
"182.5 90 CURVE SMOOTH",
"153 90 OFFCURVE",
"118 116.5 OFFCURVE",
"105.5 156.5 CURVE",
"25 89.5 LINE",
"64.5 23 OFFCURVE",
"128.5 -8 OFFCURVE",
"184.5 -8 CURVE SMOOTH",
"289 -8 OFFCURVE",
"359 64 OFFCURVE",
"359 160 CURVE"
);
},
{
closed = 1;
nodes = (
"31.5 471.5 OFFCURVE",
"51.5 421 OFFCURVE",
"153.5 311 CURVE SMOOTH",
"198 269.5 OFFCURVE",
"249 209.5 OFFCURVE",
"249 160 CURVE",
"359 160 LINE",
"359 238.5 OFFCURVE",
"331.5 281.5 OFFCURVE",
"229.5 391.5 CURVE SMOOTH",
"185 433 OFFCURVE",
"131.5 500.5 OFFCURVE",
"131.5 550 CURVE",
"31.5 550 LINE"
);
}
);
width = 384;
},
{
anchors = (
{
name = bottom;
position = "{187, 0}";
},
{
name = top;
position = "{211, 708}";
}
);
associatedMasterId = "BEE1AFF0-4415-4363-825D-BBA98FF62E65";
guideLines = (
{
angle = 90;
position = "{23.5, 201.5}";
},
{
angle = 90;
position = "{391.5, 500}";
}
);
layerId = "F0081A26-13A8-4B49-BFC6-ED17044D8EB1";
name = "Mar 10 21, 11:00";
paths = (
{
closed = 1;
nodes = (
"69.5 23 OFFCURVE",
"133.5 -8 OFFCURVE",
"189.5 -8 CURVE SMOOTH",
"294 -8 OFFCURVE",
"359 69 OFFCURVE",
"359 165 CURVE SMOOTH",
"359 225 OFFCURVE",
"336.5 281.5 OFFCURVE",
"234.5 391.5 CURVE",
"190 433 OFFCURVE",
"136.5 500.5 OFFCURVE",
"136.5 550 CURVE SMOOTH",
"136.5 590 OFFCURVE",
"169 608.5 OFFCURVE",
"201 608.5 CURVE SMOOTH",
"242 608.5 OFFCURVE",
"267 578 OFFCURVE",
"279.5 538.5 CURVE",
"360 605.5 LINE",
"320.5 672 OFFCURVE",
"261.5 708 OFFCURVE",
"195.5 708 CURVE SMOOTH",
"108 708 OFFCURVE",
"36.5 632.5 OFFCURVE",
"36.5 540 CURVE SMOOTH",
"36.5 491.5 OFFCURVE",
"56.5 421 OFFCURVE",
"158.5 311 CURVE",
"203 269.5 OFFCURVE",
"254 209.5 OFFCURVE",
"254 160 CURVE SMOOTH",
"254 119 OFFCURVE",
"217.5 91.5 OFFCURVE",
"187.5 91.5 CURVE SMOOTH",
"158 91.5 OFFCURVE",
"123 116.5 OFFCURVE",
"110.5 156.5 CURVE",
"30 89.5 LINE"
);
}
);
width = 390;
},
{
associatedMasterId = "BEE1AFF0-4415-4363-825D-BBA98FF62E65";
guideLines = (
{
angle = 90;
position = "{11, 201.5}";
},
{
angle = 90;
position = "{379, 500}";
}
);
layerId = "490027BE-9B9B-481A-949B-F2E7031CD584";
name = "13 avr. 22 à 17:02";
paths = (
{
closed = 1;
nodes = (
"52 36 OFFCURVE",
"98 -8 OFFCURVE",
"177 -8 CURVE SMOOTH",
"271.5 -8 OFFCURVE",
"336.5 69 OFFCURVE",
"336.5 165 CURVE SMOOTH",
"336.5 225 OFFCURVE",
"306.5 298 OFFCURVE",
"227 382.5 CURVE SMOOTH",
"203.5 407.5 LINE SMOOTH",
"153.5 461 OFFCURVE",
"129 508 OFFCURVE",
"129 549.5 CURVE SMOOTH",
"129 589 OFFCURVE",
"158.5 608 OFFCURVE",
"188.5 608 CURVE SMOOTH",
"218.5 608 OFFCURVE",
"247.5 585.5 OFFCURVE",
"262 538.5 CURVE",
"342.5 605.5 LINE",
"303 672 OFFCURVE",
"244.5 708 OFFCURVE",
"188.5 708 CURVE SMOOTH",
"93 708 OFFCURVE",
"29 636 OFFCURVE",
"29 538 CURVE SMOOTH",
"29 467 OFFCURVE",
"61.5 397.5 OFFCURVE",
"127 328 CURVE SMOOTH",
"150.5 303 LINE SMOOTH",
"191 260 OFFCURVE",
"231.5 206.5 OFFCURVE",
"231.5 160 CURVE SMOOTH",
"231.5 119 OFFCURVE",
"205 92 OFFCURVE",
"175 92 CURVE SMOOTH",
"143 92 OFFCURVE",
"113 116.5 OFFCURVE",
"100.5 156.5 CURVE",
"20 89.5 LINE"
);
}
);
width = 357.5;
},
{
associatedMasterId = "BEE1AFF0-4415-4363-825D-BBA98FF62E65";
guideLines = (
{
angle = 90;
position = "{11, 201.5}";
},
{
angle = 90;
position = "{379, 500}";
}
);
layerId = "6E4C057C-3220-482C-8E96-B4B2D66D0E7F";
name = "7 sept. 22 à 10:41";
paths = (
{
closed = 1;
nodes = (
"48.5 36 OFFCURVE",
"94.5 -8 OFFCURVE",
"177 -8 CURVE SMOOTH",
"276.5 -8 OFFCURVE",
"336.5 56.5 OFFCURVE",
"336.5 167.5 CURVE SMOOTH",
"336.5 232.5 OFFCURVE",
"306.5 298 OFFCURVE",
"227 382.5 CURVE SMOOTH",
"203.5 407.5 LINE SMOOTH",
"153.5 461 OFFCURVE",
"129 508 OFFCURVE",
"129 549.5 CURVE SMOOTH",
"129 589 OFFCURVE",
"158.5 608 OFFCURVE",
"188.5 608 CURVE SMOOTH",
"218.5 608 OFFCURVE",
"247.5 585.5 OFFCURVE",
"262 538.5 CURVE",
"342.5 605.5 LINE",
"303 672 OFFCURVE",
"244.5 708 OFFCURVE",
"188.5 708 CURVE SMOOTH",
"93 708 OFFCURVE",
"29 641 OFFCURVE",
"29 543 CURVE SMOOTH",
"29 472 OFFCURVE",
"61.5 397.5 OFFCURVE",
"127 328 CURVE SMOOTH",
"150.5 303 LINE SMOOTH",
"191 260 OFFCURVE",
"231.5 213 OFFCURVE",
"231.5 160 CURVE SMOOTH",
"231.5 120 OFFCURVE",
"208.5 92 OFFCURVE",
"175 92 CURVE SMOOTH",
"140.5 92 OFFCURVE",
"113 116.5 OFFCURVE",
"100.5 156.5 CURVE",
"20 89.5 LINE"
);
}
);
width = 357.5;
},
{
associatedMasterId = "BEE1AFF0-4415-4363-825D-BBA98FF62E65";
guideLines = (
{
angle = 90;
position = "{12.5, 201.5}";
},
{
angle = 90;
position = "{380.5, 500}";
}
);
layerId = "0FFB0AF2-48CA-4B99-B3F8-E1BDE35AFF8A";
name = "7 sept. 22 à 10:46";
paths = (
{
closed = 1;
nodes = (
"51 35.5 OFFCURVE",
"88.5 -8 OFFCURVE",
"170.5 -8 CURVE SMOOTH",
"270 -8 OFFCURVE",
"338 55 OFFCURVE",
"338 166 CURVE SMOOTH",
"338 231 OFFCURVE",
"296 288 OFFCURVE",
"227 381 CURVE SMOOTH",
"208.5 406 LINE SMOOTH",
"165 465 OFFCURVE",
"135.5 508 OFFCURVE",
"135.5 549.5 CURVE SMOOTH",
"135.5 589 OFFCURVE",
"165 608 OFFCURVE",
"195 608 CURVE SMOOTH",
"225 608 OFFCURVE",
"249 585.5 OFFCURVE",
"263.5 538.5 CURVE",
"344 605.5 LINE",
"304.5 672 OFFCURVE",
"251 708 OFFCURVE",
"195 708 CURVE SMOOTH",
"99.5 708 OFFCURVE",
"35.5 641 OFFCURVE",
"35.5 543 CURVE SMOOTH",
"35.5 472 OFFCURVE",
"69.5 415.5 OFFCURVE",
"134 328.5 CURVE SMOOTH",
"152.5 303.5 LINE SMOOTH",
"187.5 256 OFFCURVE",
"233 208.5 OFFCURVE",
"233 160 CURVE SMOOTH",
"233 120 OFFCURVE",
"202 92 OFFCURVE",
"168.5 92 CURVE SMOOTH",
"137.5 92 OFFCURVE",
"110 116 OFFCURVE",
"93.5 157.5 CURVE",
"16 103 LINE"
);
}
);
width = 360;
},
{
associatedMasterId = "BEE1AFF0-4415-4363-825D-BBA98FF62E65";
guideLines = (
{
angle = 90;
position = "{12.5, 201.5}";
},
{
angle = 90;
position = "{380.5, 500}";
}
);
layerId = "A71A7132-823F-4A03-92DA-A5A0C47CF8D5";
name = "5 oct. 22 à 10:23";
paths = (
{
closed = 1;
nodes = (
"51 35.5 OFFCURVE",
"88.5 -8 OFFCURVE",
"170.5 -8 CURVE SMOOTH",
"270 -8 OFFCURVE",
"338 55 OFFCURVE",
"338 166 CURVE SMOOTH",
"338 231 OFFCURVE",
"296 288 OFFCURVE",
"227 381 CURVE SMOOTH",
"208.5 406 LINE SMOOTH",
"165 465 OFFCURVE",
"135.5 508 OFFCURVE",
"135.5 549.5 CURVE SMOOTH",
"135.5 589 OFFCURVE",
"165 608 OFFCURVE",
"195 608 CURVE SMOOTH",
"231.5 608 OFFCURVE",
"258.5 579.5 OFFCURVE",
"275.5 535 CURVE",
"345 603 LINE",
"305.5 671 OFFCURVE",
"251.5 708 OFFCURVE",
"195 708 CURVE SMOOTH",
"99.5 708 OFFCURVE",
"35.5 641 OFFCURVE",
"35.5 543 CURVE SMOOTH",
"35.5 472 OFFCURVE",
"69.5 415.5 OFFCURVE",
"134 328.5 CURVE SMOOTH",
"152.5 303.5 LINE SMOOTH",
"187.5 256 OFFCURVE",
"233 208.5 OFFCURVE",
"233 160 CURVE SMOOTH",
"233 120 OFFCURVE",
"202 92 OFFCURVE",
"168.5 92 CURVE SMOOTH",
"137.5 92 OFFCURVE",
"110 116 OFFCURVE",
"93.5 157.5 CURVE",
"16 103 LINE"
);
}
);
width = 360;
},
{
associatedMasterId = "BEE1AFF0-4415-4363-825D-BBA98FF62E65";
guideLines = (
{
angle = 90;
position = "{16.5, 201.5}";
},
{
angle = 90;
position = "{384.5, 500}";
},
{
position = "{214, -10}";
}
);
layerId = "C6374A94-16E2-406D-B3C2-5088A3946907";
name = "26 oct. 22 à 09:36";
paths = (
{
closed = 1;
nodes = (
"53.5 25.5 OFFCURVE",
"116 -10 OFFCURVE",
"176 -10 CURVE SMOOTH",
"261.5 -10 OFFCURVE",
"342 61 OFFCURVE",
"342 166 CURVE SMOOTH",
"342 231 OFFCURVE",
"300 288 OFFCURVE",
"231 381 CURVE SMOOTH",
"212.5 406 LINE SMOOTH",
"169 465 OFFCURVE",
"139.5 508 OFFCURVE",
"139.5 549.5 CURVE SMOOTH",
"139.5 584 OFFCURVE",
"166 608.5 OFFCURVE",
"197.5 608.5 CURVE SMOOTH",
"226.5 608.5 OFFCURVE",
"259.5 588 OFFCURVE",
"279.5 535 CURVE",
"349 603 LINE",
"309.5 671 OFFCURVE",
"255.5 708 OFFCURVE",
"199 708 CURVE SMOOTH",
"103.5 708 OFFCURVE",
"37 638 OFFCURVE",
"37 540 CURVE SMOOTH",
"37 469 OFFCURVE",
"73.5 415.5 OFFCURVE",
"138 328.5 CURVE SMOOTH",
"156.5 303.5 LINE SMOOTH",
"191.5 256 OFFCURVE",
"237 208.5 OFFCURVE",
"237 160 CURVE SMOOTH",
"237 120 OFFCURVE",
"206 92 OFFCURVE",
"172.5 92 CURVE SMOOTH",
"139.5 92 OFFCURVE",
"110.5 119.5 OFFCURVE",
"94.5 166.5 CURVE",
"16 111.5 LINE"
);
}
);
width = 365;
}
);
leftKerningGroup = S;
rightKerningGroup = S;
unicode = 0053;
},
{
color = 4;
glyphname = Germandbls;
lastChange = "2023-06-06 07:09:33 +0000";
layers = (
{
layerId = "BEE1AFF0-4415-4363-825D-BBA98FF62E65";
paths = (
{
closed = 1;
nodes = (
"225 0 LINE SMOOTH",
"314.5 0 OFFCURVE",
"400 79 OFFCURVE",
"400 223 CURVE SMOOTH",
"400 377.5 OFFCURVE",
"303 406 OFFCURVE",
"202 406 CURVE",
"186 357 LINE",
"193 357 LINE SMOOTH",
"264 357 OFFCURVE",
"298 322.5 OFFCURVE",
"298 233.5 CURVE SMOOTH",
"298 154.5 OFFCURVE",
"269.5 100 OFFCURVE",
"208 100 CURVE SMOOTH",
"186 100 LINE",
"186 0 LINE"
);
},
{
closed = 1;
nodes = (
"136 0 LINE",
"136 700 LINE",
"36 700 LINE",
"36 0 LINE"
);
},
{
closed = 1;
nodes = (
"275.5 357 LINE",
"392 700 LINE",
"280.5 700 LINE",
"186 357 LINE"
);
},
{
closed = 1;
nodes = (
"328 610 LINE",
"328 700 LINE",
"71 700 LINE",
"71 610 LINE"
);
}
);
width = 430;
},
{
associatedMasterId = "BEE1AFF0-4415-4363-825D-BBA98FF62E65";
backgroundImage = {
imagePath = "../civette-main/_numbers symbols/esszett tilde.jpeg";
locked = "1";
transform = "{3.5383, 0, 0, 3.5383, -40, -75}";
};
layerId = "E4704932-BD40-42BE-9CC2-D98DDE16D3EA";
name = "10 nov. 22 à 15:15";
paths = (
{
closed = 1;
nodes = (
"136 0 LINE",
"136 700 LINE",
"36 700 LINE",
"36 0 LINE"
);
},
{
closed = 1;
nodes = (
"338 610 LINE",
"338 700 LINE",
"71 700 LINE",
"71 610 LINE"
);
},
{
closed = 1;
nodes = (
"310.5 425.5 LINE",
"432 700 LINE",
"310.5 700 LINE",
"239.5 434 LINE"
);
},
{
closed = 1;
nodes = (
"273 0 LINE SMOOTH",
"358.5 0 OFFCURVE",
"444 79 OFFCURVE",
"444 223 CURVE SMOOTH",
"444 363.5 OFFCURVE",
"362 406 OFFCURVE",
"252.5 406 CURVE SMOOTH",
"219 406 LINE",
"219 357 LINE",
"241 357 LINE SMOOTH",
"308 357 OFFCURVE",
"342 322.5 OFFCURVE",
"342 233.5 CURVE SMOOTH",
"342 154.5 OFFCURVE",
"313.5 100 OFFCURVE",
"256 100 CURVE SMOOTH",
"219 100 LINE",
"219 0 LINE"
);
}
);
width = 534;
},
{
associatedMasterId = "BEE1AFF0-4415-4363-825D-BBA98FF62E65";
backgroundImage = {
imagePath = "../civette-main/_numbers symbols/esszett tilde.jpeg";
locked = "1";
transform = "{3.5383, 0, 0, 3.5383, -40, -75}";
};
layerId = "71007AE2-DFD4-4819-9B5C-3F5C9814EAF8";
name = "10 nov. 22 à 15:22";
paths = (
{
closed = 1;
nodes = (
"136 0 LINE",
"136 700 LINE",
"36 700 LINE",
"36 0 LINE"
);
},
{
closed = 1;
nodes = (
"338 610 LINE",
"338 700 LINE",
"71 700 LINE",
"71 610 LINE"
);
},
{
closed = 1;
nodes = (
"281 425.5 LINE",
"402 700 LINE",
"300.5 700 LINE",
"194 382 LINE"
);
},
{
closed = 1;
nodes = (
"258 0 LINE",
"371.5 0 OFFCURVE",
"429 75 OFFCURVE",
"429 223 CURVE",
"429 371 OFFCURVE",
"388.5 446 OFFCURVE",
"280 446 CURVE SMOOTH",
"234 446 LINE",
"194 382 LINE",
"261 382 LINE SMOOTH",
"315 382 OFFCURVE",
"327 318 OFFCURVE",
"327 234 CURVE SMOOTH",
"327 142.5 OFFCURVE",
"295 100 OFFCURVE",
"241 100 CURVE SMOOTH",
"204 100 LINE",
"204 0 LINE"
);
}
);
width = 455;
}
);
leftKerningGroup = H;
leftMetricsKey = H;
rightKerningGroup = eszett;
unicode = 1E9E;
},
{
color = 4;
glyphname = T;
lastChange = "2023-06-08 11:37:50 +0000";
layers = (
{
anchors = (
{
name = bottom;
position = "{172, 0}";
},
{
name = center;
position = "{172, 350}";
},
{
name = top;
position = "{172, 700}";
}
);
layerId = "BEE1AFF0-4415-4363-825D-BBA98FF62E65";
paths = (
{
closed = 1;
nodes = (
"224.5 0 LINE",
"224.5 700 LINE",
"119.5 700 LINE",
"119.5 0 LINE"
);
},
{
closed = 1;
nodes = (
"328 610 LINE",
"328 700 LINE",
"16 700 LINE",
"16 610 LINE"
);
}
);
width = 344;
}
);
leftKerningGroup = T;
rightKerningGroup = T;
unicode = 0054;
},
{
color = 4;
glyphname = U;
lastChange = "2023-06-09 06:51:47 +0000";
layers = (
{
anchors = (
{
name = bottom;
position = "{206, 0}";
},
{
name = ogonek;
position = "{266, 0}";
},
{
name = top;
position = "{206, 700}";
},
{
name = topright;
position = "{391, 700}";
}
);
guideLines = (
{
position = "{461, -10}";
}
);
layerId = "BEE1AFF0-4415-4363-825D-BBA98FF62E65";
paths = (
{
closed = 1;
nodes = (
"376 205 LINE",
"376 700 LINE",
"271 700 LINE",
"271 205 LINE"
);
},
{
closed = 1;
nodes = (
"206 90 LINE",
"166 90 OFFCURVE",
"140.5 117 OFFCURVE",
"141 205 CURVE",
"36 205 LINE",
"36 70 OFFCURVE",
"99 -10 OFFCURVE",
"206 -10 CURVE"
);
},
{
closed = 1;
nodes = (
"313 -10 OFFCURVE",
"376 70 OFFCURVE",
"376 205 CURVE",
"271 205 LINE",
"271.5 117 OFFCURVE",
"246 90 OFFCURVE",
"206 90 CURVE",
"206 -10 LINE"
);
},
{
closed = 1;
nodes = (
"141 205 LINE",
"141 700 LINE",
"36 700 LINE",
"36 205 LINE"
);
}
);
width = 412;
},
{
associatedMasterId = "BEE1AFF0-4415-4363-825D-BBA98FF62E65";
guideLines = (
{
position = "{460, -10}";
}
);
layerId = "5733C88D-C0CC-4D5B-9823-996ECBD79533";
name = "Mar 11 21, 08:57";
paths = (
{
closed = 1;
nodes = (
"370 200 LINE",
"370 700 LINE",
"270 700 LINE",
"270 200 LINE"
);
},
{
closed = 1;
nodes = (
"140 200 LINE",
"140 700 LINE",
"40 700 LINE",
"40 200 LINE"
);
},
{
closed = 1;
nodes = (
"40 200 LINE",
"40 74 OFFCURVE",
"69 -10 OFFCURVE",
"205 -10 CURVE",
"205 90 LINE",
"163 90 OFFCURVE",
"140 112 OFFCURVE",
"140 200 CURVE"
);
},
{
closed = 1;
nodes = (
"270 112 OFFCURVE",
"247 90 OFFCURVE",
"205 90 CURVE",
"205 -10 LINE",
"341 -10 OFFCURVE",
"370 74 OFFCURVE",
"370 200 CURVE",
"270 200 LINE"
);
}
);
width = 410;
}
);
leftKerningGroup = U;
leftMetricsKey = H;
rightKerningGroup = U;
rightMetricsKey = H;
unicode = 0055;
},
{
color = 4;
glyphname = V;
lastChange = "2023-06-09 06:26:35 +0000";
layers = (
{
anchors = (
{
name = bottom;
position = "{210, 0}";
},
{
name = top;
position = "{210, 700}";
}
);
associatedMasterId = "BEE1AFF0-4415-4363-825D-BBA98FF62E65";
layerId = "FED604DF-8A0B-410C-83AA-4C208DD0E8C3";
name = "Oct 31 20, 15:30";
paths = (
{
closed = 1;
nodes = (
"265 156 LINE",
"119 700 LINE",
"15 700 LINE",
"203 0 LINE",
"223 0 LINE"
);
},
{
closed = 1;
nodes = (
"411 700 LINE",
"318 700 LINE",
"185 205.5 LINE",
"199.5 27.5 LINE",
"205.5 0 LINE",
"223 0 LINE"
);
}
);
width = 426;
},
{
anchors = (
{
name = bottom;
position = "{210, 0}";
},
{
name = top;
position = "{210, 700}";
}
);
associatedMasterId = "BEE1AFF0-4415-4363-825D-BBA98FF62E65";
layerId = "69B12F33-E28A-4586-8CDD-466E52BC45EE";
name = "Oct 31 20, 15:30";
paths = (
{
closed = 1;
nodes = (
"265 156 LINE",
"119 700 LINE",
"15 700 LINE",
"203 0 LINE",
"223 0 LINE"
);
},
{
closed = 1;
nodes = (
"411 700 LINE",
"318 700 LINE",
"185 205.5 LINE",
"199.5 27.5 LINE",
"205.5 0 LINE",
"223 0 LINE"
);
}
);
width = 426;
},
{
anchors = (
{
name = bottom;
position = "{191, 0}";
},
{
name = top;
position = "{191, 700}";
}
);
guideLines = (
{
position = "{236, 86}";
},
{
position = "{203.5, 10}";
}
);
layerId = "BEE1AFF0-4415-4363-825D-BBA98FF62E65";
paths = (
{
closed = 1;
nodes = (
"264 0 LINE",
"372 700 LINE",
"272 700 LINE",
"185.5 10 LINE",
"203.5 10 LINE",
"126 700 LINE",
"16 700 LINE",
"124 0 LINE"
);
}
);
width = 388;
},
{
anchors = (
{
name = bottom;
position = "{210, 0}";
},
{
name = top;
position = "{210, 700}";
}
);
associatedMasterId = "BEE1AFF0-4415-4363-825D-BBA98FF62E65";
layerId = "68C84C90-4951-417B-AAE2-542A814F8DD2";
name = "Oct 31 20, 18:15";
paths = (
{
closed = 1;
nodes = (
"265 156 LINE",
"119 700 LINE",
"15 700 LINE",
"213 -37 LINE"
);
},
{
closed = 1;
nodes = (
"411 700 LINE",
"318 700 LINE",
"185 205.5 LINE",
"199.5 27.5 LINE",
"213 -37 LINE"
);
}
);
width = 426;
},
{
anchors = (
{
name = bottom;
position = "{210, 0}";
},
{
name = top;
position = "{210, 700}";
}
);
associatedMasterId = "BEE1AFF0-4415-4363-825D-BBA98FF62E65";
layerId = "5015B637-4D4D-43E6-ABBB-DC6DE5F853BC";
name = "Oct 31 20, 23:00";
paths = (
{
closed = 1;
nodes = (
"213 -37 LINE",
"411 700 LINE",
"318 700 LINE",
"202 236 LINE",
"225 236 LINE",
"119 700 LINE",
"15 700 LINE"
);
}
);
width = 426;
},
{
anchors = (
{
name = bottom;
position = "{210, 0}";
},
{
name = top;
position = "{210, 700}";
}
);
associatedMasterId = "BEE1AFF0-4415-4363-825D-BBA98FF62E65";
layerId = "3039E61F-7FFC-4B9D-B7EC-F921BB4C82F3";
name = "Oct 31 20, 23:01";
paths = (
{
closed = 1;
nodes = (
"411 700 LINE",
"318 700 LINE",
"202 186 LINE",
"225 186 LINE",
"119 700 LINE",
"15 700 LINE",
"183 0 LINE",
"243 0 LINE"
);
}
);
width = 426;
}
);
leftKerningGroup = V;
leftMetricsKey = A;
rightKerningGroup = V;
rightMetricsKey = A;
unicode = 0056;
},
{
color = 4;
glyphname = W;
lastChange = "2023-06-09 07:24:09 +0000";
layers = (
{
anchors = (
{
name = bottom;
position = "{298, 0}";
},
{
name = top;
position = "{298, 700}";
}
);
guideLines = (
{
position = "{208.5, 10}";
},
{
position = "{241, 86}";
}
);
layerId = "BEE1AFF0-4415-4363-825D-BBA98FF62E65";
paths = (
{
closed = 1;
nodes = (
"246 0 LINE",
"304.5 600 LINE",
"291.5 600 LINE",
"344 0 LINE",
"482 0 LINE",
"574 700 LINE",
"469 700 LINE",
"408 35.5 LINE",
"418.5 35 LINE",
"343.5 700 LINE",
"251.5 700 LINE",
"174 35.5 LINE",
"184.5 35.5 LINE",
"126 700 LINE",
"16 700 LINE",
"108 0 LINE"
);
}
);
width = 590;
},
{
associatedMasterId = "BEE1AFF0-4415-4363-825D-BBA98FF62E65";
layerId = "1DD5C15B-E3B7-490E-B69F-C6CF91271DE8";
name = "Mar 10 21, 17:54";
paths = (
{
closed = 1;
nodes = (
"371 700 LINE",
"291 700 LINE",
"199.5 76 LINE",
"227.5 76 LINE",
"145 700 LINE",
"35 700 LINE",
"163 0 LINE",
"243 0 LINE"
);
},
{
closed = 1;
nodes = (
"627 700 LINE",
"527 700 LINE",
"435.5 76 LINE",
"463.5 76 LINE",
"381 700 LINE",
"291 700 LINE",
"419 0 LINE",
"514 0 LINE"
);
}
);
width = 648;
},
{
associatedMasterId = "BEE1AFF0-4415-4363-825D-BBA98FF62E65";
layerId = "2176D9AD-98C4-457C-8A9B-A7EDEF071374";
name = "Mar 10 21, 18:08";
paths = (
{
closed = 1;
nodes = (
"351 700 LINE",
"271 700 LINE",
"179.5 76 LINE",
"207.5 76 LINE",
"125 700 LINE",
"15 700 LINE",
"143 0 LINE",
"223 0 LINE"
);
},
{
closed = 1;
nodes = (
"607 700 LINE",
"507 700 LINE",
"415.5 76 LINE",
"443.5 76 LINE",
"361 700 LINE",
"271 700 LINE",
"399 0 LINE",
"494 0 LINE"
);
}
);
width = 622;
},
{
associatedMasterId = "BEE1AFF0-4415-4363-825D-BBA98FF62E65";
layerId = "052B7F7A-7CCA-4166-8787-D413A712E1FD";
name = "Mar 10 21, 18:11";
paths = (
{
closed = 1;
nodes = (
"319.5 700 LINE",
"246 700 LINE",
"167 76 LINE",
"195 76 LINE",
"125 700 LINE",
"15 700 LINE",
"130.5 0 LINE",
"230.5 0 LINE"
);
},
{
closed = 1;
nodes = (
"576 700 LINE",
"476 700 LINE",
"397 76 LINE",
"425 76 LINE",
"355 700 LINE",
"282 700 LINE",
"360.5 0 LINE",
"460.5 0 LINE"
);
}
);
width = 622;
},
{
associatedMasterId = "BEE1AFF0-4415-4363-825D-BBA98FF62E65";
layerId = "FB2084F1-0B22-4EF1-BD33-C68B782738AA";
name = "Mar 10 21, 18:47";
paths = (
{
closed = 1;
nodes = (
"319.5 -150 LINE",
"246 -150 LINE",
"167 -774 LINE",
"195 -774 LINE",
"125 -150 LINE",
"15 -150 LINE",
"125.5 -850 LINE",
"235.5 -850 LINE"
);
},
{
closed = 1;
nodes = (
"576 -150 LINE",
"476 -150 LINE",
"397 -774 LINE",
"425 -774 LINE",
"355 -150 LINE",
"282 -150 LINE",
"355.5 -850 LINE",
"465.5 -850 LINE"
);
},
{
closed = 1;
nodes = (
"346 700 LINE",
"272 700 LINE",
"184.5 76 LINE",
"202.5 76 LINE",
"125 700 LINE",
"15 700 LINE",
"138 0 LINE",
"248 0 LINE"
);
},
{
closed = 1;
nodes = (
"601 700 LINE",
"527 700 LINE",
"439.5 76 LINE",
"457.5 76 LINE",
"380 700 LINE",
"270 700 LINE",
"393 0 LINE",
"503 0 LINE"
);
}
);
width = 591;
},
{
associatedMasterId = "BEE1AFF0-4415-4363-825D-BBA98FF62E65";
layerId = "77DB6AB8-6A19-4BF8-851E-FD0B195DB2A7";
name = "Mar 10 21, 18:51";
paths = (
{
closed = 1;
nodes = (
"128 0 LINE",
"258 0 LINE",
"315 500 LINE",
"302 500 LINE",
"359 0 LINE",
"489 0 LINE",
"602 700 LINE",
"502 700 LINE",
"420 80.5 LINE",
"430.5 80 LINE",
"366 700 LINE",
"261 700 LINE",
"188 80.5 LINE",
"198.5 80.5 LINE",
"125 700 LINE",
"15 700 LINE"
);
}
);
width = 617;
},
{
associatedMasterId = "BEE1AFF0-4415-4363-825D-BBA98FF62E65";
layerId = "75223288-B262-4145-8B1B-95AF8ABB74F7";
name = "Mar 10 21, 18:57";
paths = (
{
closed = 1;
nodes = (
"128 0 LINE",
"258 0 LINE",
"315 500 LINE",
"302 500 LINE",
"359 0 LINE",
"494 0 LINE",
"607 700 LINE",
"502 700 LINE",
"420 80.5 LINE",
"430.5 80 LINE",
"366 700 LINE",
"261 700 LINE",
"188 80.5 LINE",
"198.5 80.5 LINE",
"125 700 LINE",
"15 700 LINE"
);
}
);
width = 622;
},
{
anchors = (
{
name = bottom;
position = "{296, 0}";
},
{
name = top;
position = "{296, 700}";
}
);
associatedMasterId = "BEE1AFF0-4415-4363-825D-BBA98FF62E65";
guideLines = (
{
position = "{206.5, 10}";
},
{
position = "{239, 86}";
}
);
layerId = "7FD7547D-CDEE-418A-9F6C-405B308D18C9";
name = "5 juin 23 à 13:21";
paths = (
{
closed = 1;
nodes = (
"116 0 LINE",
"244 0 LINE",
"302.5 525 LINE",
"289.5 525 LINE",
"342 0 LINE",
"470 0 LINE",
"572 700 LINE",
"467 700 LINE",
"401 35.5 LINE",
"411.5 35 LINE",
"341.5 700 LINE",
"254.5 700 LINE",
"177 35.5 LINE",
"187.5 35.5 LINE",
"124 700 LINE",
"14 700 LINE"
);
}
);
width = 586;
}
);
leftKerningGroup = V;
leftMetricsKey = A;
rightKerningGroup = V;
rightMetricsKey = A;
unicode = 0057;
},
{
color = 4;
glyphname = X;
lastChange = "2023-06-09 07:21:51 +0000";
layers = (
{
layerId = "BEE1AFF0-4415-4363-825D-BBA98FF62E65";
paths = (
{
closed = 1;
nodes = (
"376 0 LINE",
"126 700 LINE",
"16 700 LINE",
"266 0 LINE"
);
},
{
closed = 1;
nodes = (
"116 0 LINE",
"231 398 LINE",
"151 398 LINE",
"21 0 LINE"
);
},
{
closed = 1;
nodes = (
"241 337 LINE",
"356 700 LINE",
"261 700 LINE",
"161 337 LINE"
);
}
);
width = 392;
},
{
anchors = (
{
name = bottom;
position = "{242, 0}";
},
{
name = top;
position = "{242, 700}";
}
);
associatedMasterId = "BEE1AFF0-4415-4363-825D-BBA98FF62E65";
layerId = "0E8EA135-EF28-4305-80BE-1475DCE18809";
name = "Jul 1 21, 18:45";
paths = (
{
closed = 1;
nodes = (
"399.5 0 LINE",
"144.5 700 LINE",
"43.5 700 LINE",
"298.5 0 LINE"
);
},
{
closed = 1;
nodes = (
"119.5 0 LINE",
"244.5 398 LINE",
"174.5 398 LINE",
"24.5 0 LINE"
);
},
{
closed = 1;
nodes = (
"250.5 337 LINE",
"385.5 700 LINE",
"290.5 700 LINE",
"180.5 337 LINE"
);
}
);
width = 445.5;
},
{
associatedMasterId = "BEE1AFF0-4415-4363-825D-BBA98FF62E65";
layerId = "240F709F-7F3D-46F6-AF69-82A9E2415577";
name = "Oct 11 21, 14:31";
paths = (
{
closed = 1;
nodes = (
"370 0 LINE",
"125 700 LINE",
"15 700 LINE",
"260 0 LINE"
);
},
{
closed = 1;
nodes = (
"115 0 LINE",
"230 398 LINE",
"150 398 LINE",
"20 0 LINE"
);
},
{
closed = 1;
nodes = (
"245 337 LINE",
"360 700 LINE",
"265 700 LINE",
"165 337 LINE"
);
}
);
width = 385;
}
);
leftKerningGroup = X;
rightKerningGroup = X;
unicode = 0058;
},
{
color = 4;
glyphname = Y;
lastChange = "2023-06-09 07:22:04 +0000";
layers = (
{
anchors = (
{
name = bottom;
position = "{185, 0}";
},
{
name = top;
position = "{185, 700}";
},
{
name = topleft;
position = "{22, 700}";
}
);
layerId = "BEE1AFF0-4415-4363-825D-BBA98FF62E65";
paths = (
{
closed = 1;
nodes = (
"232 177 LINE",
"354 700 LINE",
"254 700 LINE",
"179.5 270.5 LINE",
"195 270.5 LINE",
"126 700 LINE",
"16 700 LINE",
"136 177 LINE"
);
},
{
closed = 1;
nodes = (
"234 0 LINE",
"234 192.5 LINE",
"134 192.5 LINE",
"134 0 LINE"
);
}
);
width = 370;
}
);
leftKerningGroup = Y;
leftMetricsKey = V;
rightKerningGroup = Y;
rightMetricsKey = V;
unicode = 0059;
},
{
color = 4;
glyphname = Z;
lastChange = "2023-06-09 07:38:56 +0000";
layers = (
{
anchors = (
{
name = bottom;
position = "{172, 0}";
},
{
name = center;
position = "{172, 350}";
},
{
name = top;
position = "{172, 700}";
}
);
guideLines = (
{
angle = 90;
position = "{327, 700}";
}
);
layerId = "BEE1AFF0-4415-4363-825D-BBA98FF62E65";
paths = (
{
closed = 1;
nodes = (
"128 0 LINE",
"328 700 LINE",
"216 700 LINE",
"16 0 LINE"
);
},
{
closed = 1;
nodes = (
"321.5 0 LINE",
"321.5 90 LINE",
"71 90 LINE",
"71 0 LINE"
);
},
{
closed = 1;
nodes = (
"257 610 LINE",
"257 700 LINE",
"21 700 LINE",
"21 610 LINE"
);
}
);
width = 344;
}
);
leftKerningGroup = Z;
rightKerningGroup = Z;
unicode = 005A;
},
{
color = 4;
glyphname = a;
lastChange = "2023-06-09 07:36:33 +0000";
layers = (
{
anchors = (
{
name = bottom;
position = "{165.5, 0}";
},
{
name = ogonek;
position = "{300, 0}";
},
{
name = top;
position = "{174, 505}";
}
);
guideLines = (
{
position = "{225.5, 505}";
}
);
layerId = "BEE1AFF0-4415-4363-825D-BBA98FF62E65";
paths = (
{
closed = 1;
nodes = (
"300 0 LINE",
"300 400 LINE SMOOTH",
"300 482.5 OFFCURVE",
"248 505 OFFCURVE",
"184 505 CURVE SMOOTH",
"143.5 505 OFFCURVE",
"90 496 OFFCURVE",
"42 478 CURVE",
"60 399.5 LINE",
"97.5 417.5 OFFCURVE",
"131.5 425 OFFCURVE",
"160 425 CURVE SMOOTH",
"190.5 425 OFFCURVE",
"200 413 OFFCURVE",
"200 373.5 CURVE SMOOTH",
"200 150 LINE",
"232 0 LINE"
);
},
{
closed = 1;
nodes = (
"191 -5 OFFCURVE",
"235 55.5 OFFCURVE",
"235 138 CURVE",
"200 150 LINE",
"200 107.5 OFFCURVE",
"178.5 80 OFFCURVE",
"153 80 CURVE SMOOTH",
"127.5 80 OFFCURVE",
"110 107.5 OFFCURVE",
"110 148.5 CURVE SMOOTH",
"110 194 OFFCURVE",
"131.5 267.5 OFFCURVE",
"259.5 267.5 CURVE",
"259.5 315.5 LINE",
"75 315.5 OFFCURVE",
"16 226.5 OFFCURVE",
"16 133 CURVE SMOOTH",
"16 45.5 OFFCURVE",
"67.5 -5 OFFCURVE",
"126.5 -5 CURVE SMOOTH"
);
}
);
width = 336;
},
{
associatedMasterId = "BEE1AFF0-4415-4363-825D-BBA98FF62E65";
backgroundImage = {
imagePath = "../civette-main/_bdc/a.jpeg";
locked = "1";
transform = "{3.44725, 0, 0, 3.44725, -29, -36}";
};
layerId = "41ED8A80-591C-4359-A164-7F502D90A8F5";
name = "31 mars 22 à 11:25";
paths = (
{
closed = 1;
nodes = (
"302 472.5 OFFCURVE",
"215.5 439 OFFCURVE",
"112.5 384.5 CURVE",
"85.5 458.5 LINE",
"168.5 521 OFFCURVE",
"390.5 576.5 OFFCURVE",
"390.5 412 CURVE SMOOTH",
"390.5 200 LINE",
"298 200 LINE",
"298 348.5 LINE"
);
},
{
closed = 1;
nodes = (
"390.5 0 LINE",
"330.5 0 LINE",
"297.5 100 LINE",
"297.5 250 LINE",
"390.5 250 LINE"
);
},
{
closed = 1;
nodes = (
"322.5 277.5 LINE",
"157 224 OFFCURVE",
"139 155 OFFCURVE",
"139 106 CURVE SMOOTH",
"139 57 OFFCURVE",
"173 59.5 OFFCURVE",
"193 59.5 CURVE SMOOTH",
"213 59.5 OFFCURVE",
"264.5 66 OFFCURVE",
"328 159 CURVE",
"356 131.5 LINE",
"252 0 OFFCURVE",
"232.5 -16 OFFCURVE",
"155 -16 CURVE SMOOTH",
"77.5 -16 OFFCURVE",
"45 58.5 OFFCURVE",
"45 114 CURVE SMOOTH",
"45 169.5 OFFCURVE",
"129.5 325.5 OFFCURVE",
"322.5 325.5 CURVE"
);
},
{
closed = 1;
nodes = (
"334 129.5 OFFCURVE",
"268 63 OFFCURVE",
"227 63 CURVE SMOOTH",
"208 63 OFFCURVE",
"194.5 77.5 OFFCURVE",
"194.5 115 CURVE",
"101.5 105 LINE",
"101.5 25.5 OFFCURVE",
"150 -13 OFFCURVE",
"206 -13 CURVE SMOOTH",
"275.5 -13 OFFCURVE",
"310.5 47.5 OFFCURVE",
"369 135 CURVE",
"344 175.5 LINE"
);
},
{
closed = 1;
nodes = (
"297.5 497.5 LINE",
"297.5 97.5 LINE",
"330.5 -2.5 LINE",
"390.5 -2.5 LINE",
"390.5 497.5 LINE"
);
}
);
width = 426.5;
},
{
associatedMasterId = "BEE1AFF0-4415-4363-825D-BBA98FF62E65";
backgroundImage = {
imagePath = "../civette-main/_bdc/a.jpeg";
locked = "1";
transform = "{3.44725, 0, 0, 3.44725, -104.5, -36}";
};
layerId = "A4582684-9135-47F3-B7BF-317FFCE57CC1";
name = "31 mars 22 à 11:31";
paths = (
{
closed = 1;
nodes = (
"200 -13 OFFCURVE",
"235 47.5 OFFCURVE",
"293.5 135 CURVE",
"268.5 175.5 LINE",
"258.5 129.5 OFFCURVE",
"192.5 63 OFFCURVE",
"151.5 63 CURVE SMOOTH",
"132.5 63 OFFCURVE",
"119 77.5 OFFCURVE",
"119 115 CURVE",
"26 105 LINE",
"26 25.5 OFFCURVE",
"74.5 -13 OFFCURVE",
"130.5 -13 CURVE SMOOTH"
);
},
{
closed = 1;
nodes = (
"315 0 LINE",
"315 250 LINE",
"222 250 LINE",
"222 100 LINE",
"255 0 LINE"
);
},
{
closed = 1;
nodes = (
"315 200 LINE",
"315 404.5 LINE SMOOTH",
"315 546 OFFCURVE",
"173.5 535 OFFCURVE",
"54 470.5 CURVE SMOOTH",
"34.5 460 LINE",
"62 389.5 LINE",
"86 400.5 LINE SMOOTH",
"179.5 443.5 OFFCURVE",
"222.5 461 OFFCURVE",
"222.5 349.5 CURVE SMOOTH",
"222.5 200 LINE"
);
},
{
closed = 1;
nodes = (
"119 199 OFFCURVE",
"197.5 245.5 OFFCURVE",
"297 277.5 CURVE",
"297 315.5 LINE",
"145 315.5 OFFCURVE",
"26 223 OFFCURVE",
"26 105 CURVE",
"119 115 LINE"
);
}
);
width = 351;
},
{
associatedMasterId = "BEE1AFF0-4415-4363-825D-BBA98FF62E65";
backgroundImage = {
imagePath = "../civette-main/_bdc/a.jpeg";
locked = "1";
transform = "{3.44725, 0, 0, 3.44725, -104.5, -36}";
};
layerId = "03D97DCC-52B8-458A-BA2A-EB831C78188D";
name = "4 mai 22 à 15:35";
paths = (
{
closed = 1;
nodes = (
"200 -13 OFFCURVE",
"235 47.5 OFFCURVE",
"293.5 135 CURVE",
"268.5 175.5 LINE",
"258.5 129.5 OFFCURVE",
"192.5 63 OFFCURVE",
"151.5 63 CURVE SMOOTH",
"132.5 63 OFFCURVE",
"119 77.5 OFFCURVE",
"119 115 CURVE",
"26 105 LINE",
"26 25.5 OFFCURVE",
"74.5 -13 OFFCURVE",
"130.5 -13 CURVE SMOOTH"
);
},
{
closed = 1;
nodes = (
"315 0 LINE",
"315 250 LINE",
"222 250 LINE",
"222 100 LINE",
"255 0 LINE"
);
},
{
closed = 1;
nodes = (
"315 200 LINE",
"315 404.5 LINE SMOOTH",
"315 546 OFFCURVE",
"173.5 535 OFFCURVE",
"54 470.5 CURVE SMOOTH",
"42.5 464.5 LINE",
"70.5 393.5 LINE",
"86 400.5 LINE SMOOTH",
"179.5 443 OFFCURVE",
"222.5 461 OFFCURVE",
"222.5 349.5 CURVE SMOOTH",
"222.5 200 LINE"
);
},
{
closed = 1;
nodes = (
"119 199 OFFCURVE",
"197.5 245.5 OFFCURVE",
"297 277.5 CURVE",
"297 315.5 LINE",
"145 315.5 OFFCURVE",
"26 223 OFFCURVE",
"26 105 CURVE",
"119 115 LINE"
);
}
);
width = 351;
},
{
associatedMasterId = "BEE1AFF0-4415-4363-825D-BBA98FF62E65";
guideLines = (
{
position = "{229.5, 510}";
}
);
layerId = "1AC0E5B7-A040-4B81-BE14-C52B12F52488";
name = "3 sept. 22 à 11:46";
paths = (
{
closed = 1;
nodes = (
"181 -10 OFFCURVE",
"224 36.5 OFFCURVE",
"251 99 CURVE",
"231 143 LINE",
"211 95 OFFCURVE",
"176 69 OFFCURVE",
"148.5 69 CURVE SMOOTH",
"125.5 69 OFFCURVE",
"108 87 OFFCURVE",
"108 124.5 CURVE SMOOTH",
"108 180 OFFCURVE",
"147 254.5 OFFCURVE",
"278 272.5 CURVE",
"278 310.5 LINE",
"91 310.5 OFFCURVE",
"15 201.5 OFFCURVE",
"15 109 CURVE SMOOTH",
"15 41 OFFCURVE",
"57 -10 OFFCURVE",
"121.5 -10 CURVE SMOOTH"
);
},
{
closed = 1;
nodes = (
"296 0 LINE",
"296 400 LINE SMOOTH",
"296 482.5 OFFCURVE",
"251.5 510 OFFCURVE",
"192 510 CURVE SMOOTH",
"144 510 OFFCURVE",
"86.5 492 OFFCURVE",
"35.5 468 CURVE",
"62 401 LINE",
"106 421 OFFCURVE",
"139.5 435.5 OFFCURVE",
"163 435.5 CURVE SMOOTH",
"190 435.5 OFFCURVE",
"203.5 416 OFFCURVE",
"203.5 362.5 CURVE SMOOTH",
"203 100 LINE",
"236 0 LINE"
);
}
);
width = 332;
},
{
associatedMasterId = "BEE1AFF0-4415-4363-825D-BBA98FF62E65";
guideLines = (
{
position = "{229.5, 510}";
}
);
layerId = "16499F94-97F4-45DE-8462-90B4E5ABDA9A";
name = "3 sept. 22 à 14:08";
paths = (
{
closed = 1;
nodes = (
"181 -10 OFFCURVE",
"224 36.5 OFFCURVE",
"251 99 CURVE",
"231 143 LINE",
"211 95 OFFCURVE",
"176 69 OFFCURVE",
"148.5 69 CURVE SMOOTH",
"125.5 69 OFFCURVE",
"108 87 OFFCURVE",
"108 124.5 CURVE SMOOTH",
"108 180 OFFCURVE",
"147 249.5 OFFCURVE",
"278 267.5 CURVE",
"278 315.5 LINE",
"91 315.5 OFFCURVE",
"15 201.5 OFFCURVE",
"15 109 CURVE SMOOTH",
"15 41 OFFCURVE",
"57 -10 OFFCURVE",
"121.5 -10 CURVE SMOOTH"
);
},
{
closed = 1;
nodes = (
"296 0 LINE",
"296 400 LINE SMOOTH",
"296 482.5 OFFCURVE",
"246.5 510 OFFCURVE",
"182.5 510 CURVE SMOOTH",
"137 510 OFFCURVE",
"83.5 496 OFFCURVE",
"35.5 478 CURVE",
"55.5 389.5 LINE",
"87 404 OFFCURVE",
"121 414 OFFCURVE",
"148.5 414 CURVE SMOOTH",
"180.5 414 OFFCURVE",
"203.5 400 OFFCURVE",
"203.5 362.5 CURVE SMOOTH",
"203 100 LINE",
"236 0 LINE"
);
}
);
width = 332;
},
{
anchors = (
{
name = bottom;
position = "{167, 0}";
},
{
name = ogonek;
position = "{300, 10}";
},
{
name = top;
position = "{180, 500}";
}
);
associatedMasterId = "BEE1AFF0-4415-4363-825D-BBA98FF62E65";
guideLines = (
{
position = "{227, 505}";
}
);
layerId = "3C96A49B-6D42-47C1-B465-2F3D387B3E51";
name = "26 déc. 22 à 10:28";
paths = (
{
closed = 1;
nodes = (
"16 45.5 OFFCURVE",
"67.5 -5 OFFCURVE",
"126.5 -5 CURVE SMOOTH",
"169.5 -5 OFFCURVE",
"215 22 OFFCURVE",
"248.5 99 CURVE",
"228.5 144.5 LINE",
"210 100.5 OFFCURVE",
"182 79 OFFCURVE",
"158 79 CURVE SMOOTH",
"132.5 79 OFFCURVE",
"111 102 OFFCURVE",
"111 143.5 CURVE SMOOTH",
"111 199 OFFCURVE",
"150 267.5 OFFCURVE",
"280.5 267.5 CURVE",
"280.5 315.5 LINE",
"93.5 315.5 OFFCURVE",
"16 229.5 OFFCURVE",
"16 128 CURVE SMOOTH"
);
},
{
closed = 1;
nodes = (
"297 0 LINE",
"297 400 LINE SMOOTH",
"297 482.5 OFFCURVE",
"244 505 OFFCURVE",
"180 505 CURVE SMOOTH",
"139.5 505 OFFCURVE",
"86 496 OFFCURVE",
"38 478 CURVE",
"56 393.5 LINE",
"88 408.5 OFFCURVE",
"123 419 OFFCURVE",
"151 419 CURVE SMOOTH",
"183 419 OFFCURVE",
"201 405 OFFCURVE",
"201 367.5 CURVE SMOOTH",
"200.5 150 LINE",
"233.5 0 LINE"
);
}
);
width = 333;
}
);
leftKerningGroup = a;
rightKerningGroup = n;
rightMetricsKey = n;
unicode = 0061;
},
{
color = 4;
glyphname = ae;
lastChange = "2023-06-08 06:40:01 +0000";
layers = (
{
guideLines = (
{
angle = 90;
position = "{398, 171.5}";
},
{
position = "{200.5, 86.5}";
}
);
layerId = "BEE1AFF0-4415-4363-825D-BBA98FF62E65";
paths = (
{
closed = 1;
nodes = (
"427.5 -5 OFFCURVE",
"486 50.5 OFFCURVE",
"495 165.5 CURVE",
"399 170.5 LINE",
"393.5 100 OFFCURVE",
"382 75 OFFCURVE",
"353 75 CURVE SMOOTH",
"312 75 OFFCURVE",
"289 124.5 OFFCURVE",
"289 250 CURVE SMOOTH",
"289 375.5 OFFCURVE",
"312 425 OFFCURVE",
"353 425 CURVE SMOOTH",
"383 425 OFFCURVE",
"405 398.5 OFFCURVE",
"405 286 CURVE",
"500 228 LINE",
"500 264 LINE SMOOTH",
"500 422.5 OFFCURVE",
"444 505 OFFCURVE",
"353 505 CURVE SMOOTH",
"272 505 OFFCURVE",
"228.5 422.5 OFFCURVE",
"228.5 278 CURVE",
"201 268.5 LINE",
"201 86.5 OFFCURVE",
"258 -5 OFFCURVE",
"353 -5 CURVE SMOOTH"
);
},
{
closed = 1;
nodes = (
"196 -5 OFFCURVE",
"271 55.5 OFFCURVE",
"271 138 CURVE",
"216 150 LINE",
"216 107.5 OFFCURVE",
"181 79 OFFCURVE",
"153 79 CURVE SMOOTH",
"125 79 OFFCURVE",
"110 107.5 OFFCURVE",
"110 148.5 CURVE SMOOTH",
"110 194 OFFCURVE",
"131.5 267.5 OFFCURVE",
"259.5 267.5 CURVE",
"259.5 315.5 LINE",
"75 315.5 OFFCURVE",
"16 226.5 OFFCURVE",
"16 133 CURVE SMOOTH",
"16 45.5 OFFCURVE",
"63 -5 OFFCURVE",
"126.5 -5 CURVE SMOOTH"
);
},
{
closed = 1;
nodes = (
"267 277.5 LINE",
"267 400 LINE SMOOTH",
"267 482.5 OFFCURVE",
"248 505 OFFCURVE",
"184 505 CURVE SMOOTH",
"143.5 505 OFFCURVE",
"90 496 OFFCURVE",
"42 478 CURVE",
"60 399.5 LINE",
"97.5 417.5 OFFCURVE",
"131.5 425 OFFCURVE",
"160 425 CURVE SMOOTH",
"190.5 425 OFFCURVE",
"201 413 OFFCURVE",
"201 373.5 CURVE SMOOTH",
"201 277.5 LINE"
);
},
{
closed = 1;
nodes = (
"499.5 228 LINE",
"484 293 LINE",
"269 293 LINE",
"269 228 LINE"
);
}
);
width = 522;
}
);
leftKerningGroup = a;
leftMetricsKey = a;
rightKerningGroup = o;
rightMetricsKey = e;
unicode = 00E6;
},
{
color = 4;
glyphname = b;
lastChange = "2023-06-07 13:58:50 +0000";
layers = (
{
components = (
{
name = _part.bowl;
}
);
guideLines = (
{
position = "{174, 505}";
}
);
layerId = "BEE1AFF0-4415-4363-825D-BBA98FF62E65";
paths = (
{
closed = 1;
nodes = (
"106 0 LINE",
"138 150 LINE",
"138 805 LINE",
"38 775 LINE",
"38 0 LINE"
);
}
);
width = 363;
}
);
leftKerningGroup = H;
leftMetricsKey = h;
rightKerningGroup = o;
rightMetricsKey = o;
unicode = 0062;
},
{
color = 4;
glyphname = c;
lastChange = "2023-06-09 06:23:33 +0000";
layers = (
{
anchors = (
{
name = bottom;
position = "{179, 0}";
},
{
name = top;
position = "{179, 505}";
}
);
layerId = "BEE1AFF0-4415-4363-825D-BBA98FF62E65";
paths = (
{
closed = 1;
nodes = (
"257.5 -5 OFFCURVE",
"305 57 OFFCURVE",
"318 181.5 CURVE",
"221 186.5 LINE",
"216.5 101 OFFCURVE",
"209 75 OFFCURVE",
"179 75 CURVE SMOOTH",
"138 75 OFFCURVE",
"125 124.5 OFFCURVE",
"125 250 CURVE SMOOTH",
"125 375.5 OFFCURVE",
"138 425 OFFCURVE",
"179 425 CURVE SMOOTH",
"209 425 OFFCURVE",
"216.5 398.5 OFFCURVE",
"221 311 CURVE",
"318 331 LINE",
"302.5 445 OFFCURVE",
"256 505 OFFCURVE",
"179 505 CURVE SMOOTH",
"83.5 505 OFFCURVE",
"22 413.5 OFFCURVE",
"22 250 CURVE SMOOTH",
"22 86.5 OFFCURVE",
"84 -5 OFFCURVE",
"179 -5 CURVE SMOOTH"
);
}
);
width = 334;
},
{
associatedMasterId = "BEE1AFF0-4415-4363-825D-BBA98FF62E65";
backgroundImage = {
imagePath = "../civette-main/_bdc/c.jpeg";
locked = "1";
transform = "{3.38118, 0, 0, 3.38118, 0, -47}";
};
layerId = "0D52E0BF-F79D-4C8C-8174-E70F46F7002F";
name = "31 mars 22 à 18:16";
paths = (
{
closed = 1;
nodes = (
"75.5 510 OFFCURVE",
"18 430.5 OFFCURVE",
"18 250 CURVE SMOOTH",
"18 72.5 OFFCURVE",
"75.5 -10 OFFCURVE",
"161.5 -10 CURVE",
"161.5 61 LINE",
"126.5 61 OFFCURVE",
"106.5 125.5 OFFCURVE",
"106.5 250 CURVE SMOOTH",
"106.5 377.5 OFFCURVE",
"126.5 439 OFFCURVE",
"161.5 439 CURVE",
"161.5 510 LINE"
);
}
);
width = 600;
},
{
associatedMasterId = "BEE1AFF0-4415-4363-825D-BBA98FF62E65";
backgroundImage = {
imagePath = "../civette-main/_bdc/c.jpeg";
locked = "1";
transform = "{3.38118, 0, 0, 3.38118, 0, -47}";
};
layerId = "A05EB43A-B08F-40BB-AE76-65EFBF801A24";
name = "31 mars 22 à 18:17";
paths = (
{
closed = 1;
nodes = (
"75.5 510 OFFCURVE",
"13 415.5 OFFCURVE",
"13 235 CURVE SMOOTH",
"13 57.5 OFFCURVE",
"75.5 -10 OFFCURVE",
"161.5 -10 CURVE",
"161.5 61 LINE",
"126.5 61 OFFCURVE",
"101.5 110.5 OFFCURVE",
"101.5 235 CURVE SMOOTH",
"101.5 362.5 OFFCURVE",
"126.5 439 OFFCURVE",
"161.5 439 CURVE",
"161.5 510 LINE"
);
},
{
closed = 1;
nodes = (
"161.5 439 LINE",
"206.5 439 OFFCURVE",
"226.5 377.5 OFFCURVE",
"226.5 250 CURVE SMOOTH",
"226.5 125.5 OFFCURVE",
"206.5 61 OFFCURVE",
"161.5 61 CURVE",
"161.5 -10 LINE",
"247.5 -10 OFFCURVE",
"305 72.5 OFFCURVE",
"305 250 CURVE SMOOTH",
"305 430.5 OFFCURVE",
"247.5 510 OFFCURVE",
"161.5 510 CURVE"
);
}
);
width = 600;
},
{
associatedMasterId = "BEE1AFF0-4415-4363-825D-BBA98FF62E65";
backgroundImage = {
imagePath = "../civette-main/_bdc/c.jpeg";
locked = "1";
transform = "{3.38118, 0, 0, 3.38118, 0, -47}";
};
layerId = "5A6F34A9-3881-4849-A722-D476898FB67A";
name = "31 mars 22 à 18:18";
paths = (
{
closed = 1;
nodes = (
"75.5 510 OFFCURVE",
"13 415.5 OFFCURVE",
"13 235 CURVE SMOOTH",
"13 57.5 OFFCURVE",
"75.5 -10 OFFCURVE",
"161.5 -10 CURVE",
"161.5 61 LINE",
"126.5 61 OFFCURVE",
"101.5 110.5 OFFCURVE",
"101.5 235 CURVE SMOOTH",
"101.5 362.5 OFFCURVE",
"126.5 439 OFFCURVE",
"161.5 439 CURVE",
"161.5 510 LINE"
);
},
{
closed = 1;
nodes = (
"161.5 439 LINE",
"206.5 439 OFFCURVE",
"226.5 377.5 OFFCURVE",
"226.5 250 CURVE SMOOTH",
"226.5 125.5 OFFCURVE",
"206.5 61 OFFCURVE",
"161.5 61 CURVE",
"161.5 -10 LINE",
"247.5 -10 OFFCURVE",
"305 72.5 OFFCURVE",
"305 250 CURVE SMOOTH",
"305 430.5 OFFCURVE",
"247.5 510 OFFCURVE",
"161.5 510 CURVE"
);
},
{
closed = 1;
nodes = (
"187 341.5 LINE",
"187 120 LINE",
"385.5 64.5 LINE",
"385.5 397 LINE"
);
}
);
width = 600;
},
{
associatedMasterId = "BEE1AFF0-4415-4363-825D-BBA98FF62E65";
backgroundImage = {
imagePath = "../civette-main/_bdc/c.jpeg";
locked = "1";
transform = "{3.38118, 0, 0, 3.38118, 0, -47}";
};
layerId = "25EF8526-8D24-4FD4-8B87-D266351378F5";
name = "31 mars 22 à 18:20";
paths = (
{
closed = 1;
nodes = (
"13 57.5 OFFCURVE",
"75.5 -10 OFFCURVE",
"161.5 -10 CURVE",
"161.5 61 LINE",
"126.5 61 OFFCURVE",
"101.5 110.5 OFFCURVE",
"101.5 235 CURVE SMOOTH",
"101.5 362.5 OFFCURVE",
"126.5 439 OFFCURVE",
"161.5 439 CURVE",
"161.5 510 LINE",
"75.5 510 OFFCURVE",
"13 415.5 OFFCURVE",
"13 235 CURVE SMOOTH"
);
},
{
closed = 1;
nodes = (
"226 -10 OFFCURVE",
"268 32 OFFCURVE",
"285.5 136 CURVE",
"164 161.5 LINE",
"215 164.5 LINE",
"211 106.5 OFFCURVE",
"190 61 OFFCURVE",
"161.5 61 CURVE",
"161.5 -10 LINE"
);
},
{
closed = 1;
nodes = (
"192.5 439 OFFCURVE",
"206.5 410 OFFCURVE",
"215.5 350.5 CURVE",
"289 371 LINE",
"268 466.5 OFFCURVE",
"225 510 OFFCURVE",
"161.5 510 CURVE",
"161.5 439 LINE"
);
}
);
width = 600;
}
);
leftKerningGroup = o;
leftMetricsKey = o;
rightKerningGroup = c;
unicode = 0063;
},
{
color = 4;
glyphname = d;
lastChange = "2023-06-07 13:58:23 +0000";
layers = (
{
components = (
{
name = _part.bowl;
transform = "{-1, 0, 0, -1, 363, 500}";
}
);
guideLines = (
{
angle = 90;
position = "{172, 382}";
}
);
layerId = "BEE1AFF0-4415-4363-825D-BBA98FF62E65";
paths = (
{
closed = 1;
nodes = (
"325 0 LINE",
"325 805 LINE",
"225 775 LINE",
"225 150 LINE",
"257 0 LINE"
);
}
);
width = 363;
},
{
associatedMasterId = "BEE1AFF0-4415-4363-825D-BBA98FF62E65";
layerId = "38405E7E-E3AB-4B9C-BD29-DF61B2D7A5F1";
name = "14 avr. 22 à 09:34";
paths = (
{
closed = 1;
nodes = (
"257.5 0 LINE",
"350.5 0 LINE",
"350.5 805 LINE",
"257.5 775 LINE"
);
},
{
closed = 1;
nodes = (
"18 73.5 OFFCURVE",
"78.5 -10 OFFCURVE",
"163.5 -10 CURVE SMOOTH",
"232.5 -10 OFFCURVE",
"277.5 62.5 OFFCURVE",
"302.5 170.5 CURVE",
"263 184 LINE",
"242.5 121 OFFCURVE",
"216.5 70 OFFCURVE",
"179.5 68 CURVE SMOOTH",
"149 66.5 OFFCURVE",
"122 113 OFFCURVE",
"122 255.5 CURVE SMOOTH",
"122 376 OFFCURVE",
"155.5 440 OFFCURVE",
"197.5 440 CURVE SMOOTH",
"239.5 440 OFFCURVE",
"243 392.5 OFFCURVE",
"262 356 CURVE",
"304 377.5 LINE",
"276.5 462.5 OFFCURVE",
"261 504.5 OFFCURVE",
"193.5 504.5 CURVE SMOOTH",
"106 504.5 OFFCURVE",
"18 440.5 OFFCURVE",
"18 255.5 CURVE SMOOTH"
);
}
);
width = 386.5;
},
{
associatedMasterId = "BEE1AFF0-4415-4363-825D-BBA98FF62E65";
layerId = "8B6FA18D-7D0E-4151-AC6A-5DD87AC47408";
name = "14 avr. 22 à 09:37";
paths = (
{
closed = 1;
nodes = (
"257.5 0 LINE",
"350.5 0 LINE",
"350.5 805 LINE",
"257.5 775 LINE"
);
},
{
closed = 1;
nodes = (
"185 440 LINE",
"226.5 440 OFFCURVE",
"238.5 382 OFFCURVE",
"257.5 326 CURVE",
"299.5 347.5 LINE",
"285.5 438 OFFCURVE",
"249 528.5 OFFCURVE",
"185 530 CURVE"
);
},
{
closed = 1;
nodes = (
"33.5 77.5 OFFCURVE",
"95.5 -10 OFFCURVE",
"181.5 -10 CURVE",
"186.5 61 LINE",
"151.5 61 OFFCURVE",
"122 130.5 OFFCURVE",
"122 255 CURVE SMOOTH",
"122 382.5 OFFCURVE",
"149.5 440 OFFCURVE",
"185 440 CURVE",
"185 530 LINE",
"99 530 OFFCURVE",
"33.5 435.5 OFFCURVE",
"33.5 255 CURVE SMOOTH"
);
},
{
closed = 1;
nodes = (
"250.5 -10 OFFCURVE",
"279.5 80 OFFCURVE",
"300.5 170.5 CURVE",
"261 184 LINE",
"237.5 106.5 OFFCURVE",
"223.5 63 OFFCURVE",
"186.5 61 CURVE",
"181.5 -10 LINE"
);
}
);
width = 386.5;
},
{
associatedMasterId = "BEE1AFF0-4415-4363-825D-BBA98FF62E65";
layerId = "86502B96-BEC4-4F80-BD82-81F1D978DA9D";
name = "14 avr. 22 à 09:37";
paths = (
{
closed = 1;
nodes = (
"237 0 LINE",
"330 0 LINE",
"330 805 LINE",
"237 775 LINE"
);
},
{
closed = 1;
nodes = (
"83.5 532 OFFCURVE",
"18 435.5 OFFCURVE",
"18 255 CURVE SMOOTH",
"18 77.5 OFFCURVE",
"80 -10 OFFCURVE",
"166 -10 CURVE SMOOTH",
"230 -10 OFFCURVE",
"259 80 OFFCURVE",
"280 170.5 CURVE",
"240.5 184 LINE",
"217 106.5 OFFCURVE",
"203 63 OFFCURVE",
"171 61 CURVE SMOOTH",
"136 59 OFFCURVE",
"106.5 130.5 OFFCURVE",
"106.5 255 CURVE SMOOTH",
"106.5 382.5 OFFCURVE",
"134 440 OFFCURVE",
"169.5 440 CURVE SMOOTH",
"206 440 OFFCURVE",
"218 382 OFFCURVE",
"237 326 CURVE",
"279 347.5 LINE",
"265 438 OFFCURVE",
"228.5 528.5 OFFCURVE",
"169.5 530 CURVE SMOOTH"
);
}
);
width = 366;
},
{
associatedMasterId = "BEE1AFF0-4415-4363-825D-BBA98FF62E65";
layerId = "50542F99-2953-42D1-8BDE-CF1AFB0E3E01";
name = "7 juin 22 à 15:19";
paths = (
{
closed = 1;
nodes = (
"235 0 LINE",
"328 0 LINE",
"328 805 LINE",
"235 775 LINE"
);
},
{
closed = 1;
nodes = (
"81.5 532 OFFCURVE",
"16 435.5 OFFCURVE",
"16 255 CURVE SMOOTH",
"16 77.5 OFFCURVE",
"78 -10 OFFCURVE",
"164 -10 CURVE SMOOTH",
"228 -10 OFFCURVE",
"257 80 OFFCURVE",
"278 170.5 CURVE",
"238.5 184 LINE",
"215 106.5 OFFCURVE",
"201 63 OFFCURVE",
"169 61 CURVE SMOOTH",
"134 59 OFFCURVE",
"104.5 130.5 OFFCURVE",
"104.5 255 CURVE SMOOTH",
"104.5 382.5 OFFCURVE",
"132 440 OFFCURVE",
"167.5 440 CURVE SMOOTH",
"204 440 OFFCURVE",
"216 382 OFFCURVE",
"235 326 CURVE",
"277 347.5 LINE",
"263 438 OFFCURVE",
"226.5 528.5 OFFCURVE",
"167.5 530 CURVE SMOOTH"
);
}
);
width = 364;
}
);
leftKerningGroup = o;
leftMetricsKey = o;
rightKerningGroup = H;
rightMetricsKey = l;
unicode = 0064;
},
{
color = 4;
glyphname = eth;
lastChange = "2023-06-08 06:49:03 +0000";
layers = (
{
guideLines = (
{
position = "{603, 248.5}";
},
{
position = "{553, 505}";
},
{
position = "{553, -5}";
},
{
position = "{553, 75}";
},
{
position = "{175, 505}";
}
);
layerId = "BEE1AFF0-4415-4363-825D-BBA98FF62E65";
paths = (
{
closed = 1;
nodes = (
"290.5 -5 OFFCURVE",
"337.5 97.5 OFFCURVE",
"337.5 287 CURVE SMOOTH",
"337.5 432.5 OFFCURVE",
"282.5 601 OFFCURVE",
"136.5 750 CURVE",
"91 704.5 LINE",
"202 575.5 OFFCURVE",
"234.5 418.5 OFFCURVE",
"234.5 291.5 CURVE SMOOTH",
"234.5 118.5 OFFCURVE",
"219 75 OFFCURVE",
"183 75 CURVE SMOOTH",
"151 75 OFFCURVE",
"125 109.5 OFFCURVE",
"125 248.5 CURVE",
"22 248.5 LINE",
"22 75.5 OFFCURVE",
"88 -5 OFFCURVE",
"183 -5 CURVE SMOOTH"
);
},
{
closed = 1;
nodes = (
"125 248.5 LINE",
"125 385.5 OFFCURVE",
"151 436.5 OFFCURVE",
"185.5 436.5 CURVE SMOOTH",
"205.5 436.5 OFFCURVE",
"228 419 OFFCURVE",
"250.5 388.5 CURVE",
"287.5 439 LINE",
"251 484 OFFCURVE",
"211 505 OFFCURVE",
"174 505 CURVE SMOOTH",
"92 505 OFFCURVE",
"22 409 OFFCURVE",
"22 248.5 CURVE"
);
},
{
closed = 1;
nodes = (
"309 628.5 LINE",
"299.5 673 LINE",
"39.5 626 LINE",
"53.5 581.5 LINE"
);
}
);
width = 359.5;
},
{
associatedMasterId = "BEE1AFF0-4415-4363-825D-BBA98FF62E65";
backgroundImage = {
imagePath = "../civette-main/_numbers symbols/eth.jpeg";
locked = "1";
transform = "{3.51862, 0, 0, 3.51862, 0, -91}";
};
layerId = "30C2BEE2-E732-415C-8800-5416CB606669";
name = "5 juin 23 à 10:56";
paths = (
{
closed = 1;
nodes = (
"358 -14.5 OFFCURVE",
"411 139.5 OFFCURVE",
"411 278 CURVE SMOOTH",
"411 487 OFFCURVE",
"313.5 618.5 OFFCURVE",
"95.5 787 CURVE",
"71 758.5 LINE",
"283.5 607.5 OFFCURVE",
"314 389.5 OFFCURVE",
"314 278.5 CURVE SMOOTH",
"314 167.5 OFFCURVE",
"275.5 82 OFFCURVE",
"232.5 82 CURVE",
"232.5 -14.5 LINE"
);
},
{
closed = 1;
nodes = (
"232.5 82 LINE",
"192.5 82 OFFCURVE",
"154 153.5 OFFCURVE",
"154 253.5 CURVE SMOOTH",
"154 353.5 OFFCURVE",
"191 443.5 OFFCURVE",
"241 443.5 CURVE SMOOTH",
"282.5 443.5 OFFCURVE",
"308.5 439.5 OFFCURVE",
"328 405 CURVE",
"353 429 LINE",
"330 470.5 OFFCURVE",
"275.5 505.5 OFFCURVE",
"244 505.5 CURVE SMOOTH",
"212.5 505.5 OFFCURVE",
"53 497.5 OFFCURVE",
"53 253 CURVE SMOOTH",
"53 160.5 OFFCURVE",
"81 -14.5 OFFCURVE",
"232.5 -14.5 CURVE"
);
},
{
closed = 1;
nodes = (
"384.5 664 LINE",
"369.5 709 LINE",
"69.5 639 LINE",
"84.5 594 LINE"
);
}
);
width = 600;
},
{
associatedMasterId = "BEE1AFF0-4415-4363-825D-BBA98FF62E65";
backgroundImage = {
imagePath = "../civette-main/_numbers symbols/eth.jpeg";
locked = "1";
transform = "{3.51862, 0, 0, 3.51862, 0, -91}";
};
layerId = "2B1C5769-E54A-4C5A-BFA3-01E31579303D";
name = "5 juin 23 à 10:59";
paths = (
{
closed = 1;
nodes = (
"358 -14.5 OFFCURVE",
"411 139.5 OFFCURVE",
"411 278 CURVE SMOOTH",
"411 487 OFFCURVE",
"347.5 636.5 OFFCURVE",
"129.5 805 CURVE",
"78 768 LINE",
"290.5 617 OFFCURVE",
"314 389.5 OFFCURVE",
"314 278.5 CURVE SMOOTH",
"314 167.5 OFFCURVE",
"275.5 82 OFFCURVE",
"232.5 82 CURVE",
"232.5 -14.5 LINE"
);
},
{
closed = 1;
nodes = (
"232.5 82 LINE",
"192.5 82 OFFCURVE",
"154 153.5 OFFCURVE",
"154 253.5 CURVE SMOOTH",
"154 443.5 OFFCURVE",
"257.5 490.5 OFFCURVE",
"304.5 407 CURVE",
"341.5 442.5 LINE",
"240 586.5 OFFCURVE",
"53 487.5 OFFCURVE",
"53 253 CURVE SMOOTH",
"53 160.5 OFFCURVE",
"81 -14.5 OFFCURVE",
"232.5 -14.5 CURVE"
);
},
{
closed = 1;
nodes = (
"384.5 664 LINE",
"369.5 709 LINE",
"69.5 639 LINE",
"84.5 594 LINE"
);
}
);
width = 600;
},
{
associatedMasterId = "BEE1AFF0-4415-4363-825D-BBA98FF62E65";
backgroundImage = {
imagePath = "../civette-main/_numbers symbols/eth.jpeg";
locked = "1";
transform = "{3.51862, 0, 0, 3.51862, 0, -91}";
};
guideLines = (
{
position = "{657, 248.5}";
}
);
layerId = "87D8CB40-A7C3-4228-B087-476E1282AC11";
name = "5 juin 23 à 11:01";
paths = (
{
closed = 1;
nodes = (
"328.5 -14.5 OFFCURVE",
"412.5 115 OFFCURVE",
"412.5 287 CURVE SMOOTH",
"412.5 446 OFFCURVE",
"341 641.5 OFFCURVE",
"129.5 805 CURVE",
"78 768 LINE",
"255.5 642 OFFCURVE",
"314.5 443 OFFCURVE",
"314.5 291.5 CURVE SMOOTH",
"314.5 172 OFFCURVE",
"277.5 82 OFFCURVE",
"232.5 82 CURVE",
"232.5 -14.5 LINE"
);
},
{
closed = 1;
nodes = (
"232.5 82 LINE",
"192.5 82 OFFCURVE",
"154 148.5 OFFCURVE",
"154 248.5 CURVE SMOOTH",
"154 438.5 OFFCURVE",
"257.5 490.5 OFFCURVE",
"304.5 407 CURVE",
"341.5 442.5 LINE",
"240 586.5 OFFCURVE",
"56 482.5 OFFCURVE",
"56 248.5 CURVE SMOOTH",
"56 155.5 OFFCURVE",
"81 -14.5 OFFCURVE",
"232.5 -14.5 CURVE"
);
},
{
closed = 1;
nodes = (
"384.5 664 LINE",
"369.5 709 LINE",
"69.5 639 LINE",
"84.5 594 LINE"
);
},
{
closed = 1;
nodes = (
"509.5 505 OFFCURVE",
"457 419 OFFCURVE",
"457 250 CURVE SMOOTH",
"457 81 OFFCURVE",
"509.5 -5 OFFCURVE",
"607 -5 CURVE SMOOTH",
"704.5 -5 OFFCURVE",
"757 80.5 OFFCURVE",
"757 250 CURVE SMOOTH",
"757 418.5 OFFCURVE",
"704.5 505 OFFCURVE",
"607 505 CURVE SMOOTH"
);
},
{
closed = 1;
nodes = (
"555 378 OFFCURVE",
"571 425 OFFCURVE",
"607 425 CURVE SMOOTH",
"643 425 OFFCURVE",
"659 377.5 OFFCURVE",
"659 249.5 CURVE SMOOTH",
"659 121.5 OFFCURVE",
"643 75 OFFCURVE",
"607 75 CURVE SMOOTH",
"571 75 OFFCURVE",
"555 122 OFFCURVE",
"555 250 CURVE SMOOTH"
);
}
);
width = 600;
},
{
associatedMasterId = "BEE1AFF0-4415-4363-825D-BBA98FF62E65";
backgroundImage = {
imagePath = "../civette-main/_numbers symbols/eth.jpeg";
locked = "1";
transform = "{3.51862, 0, 0, 3.51862, -58, -91}";
};
guideLines = (
{
position = "{599, 248.5}";
},
{
position = "{549, 505}";
},
{
position = "{549, -5}";
},
{
position = "{549, 75}";
}
);
layerId = "51F914CD-8B1C-4920-914C-95674A6E0D52";
name = "5 juin 23 à 11:09";
paths = (
{
closed = 1;
nodes = (
"18 75.5 OFFCURVE",
"74 -5 OFFCURVE",
"174 -5 CURVE SMOOTH",
"287.5 -5 OFFCURVE",
"334.5 97.5 OFFCURVE",
"334.5 287 CURVE SMOOTH",
"334.5 454 OFFCURVE",
"272.5 661 OFFCURVE",
"38.5 829 CURVE",
"133.5 814.5 LINE",
"36.5 718 LINE",
"-5.5 798 LINE",
"193 659 OFFCURVE",
"236.5 451.5 OFFCURVE",
"236.5 291.5 CURVE SMOOTH",
"236.5 118.5 OFFCURVE",
"216 75 OFFCURVE",
"174 75 CURVE SMOOTH",
"137 75 OFFCURVE",
"116 109.5 OFFCURVE",
"116 248.5 CURVE",
"18 248.5 LINE"
);
},
{
closed = 1;
nodes = (
"116 248.5 LINE",
"116 438.5 OFFCURVE",
"199.5 490.5 OFFCURVE",
"246.5 407 CURVE",
"283.5 442.5 LINE",
"182 586.5 OFFCURVE",
"18 482.5 OFFCURVE",
"18 248.5 CURVE"
);
},
{
closed = 1;
nodes = (
"317 627.5 LINE",
"306.5 673 LINE",
"46.5 626 LINE",
"56.5 580.5 LINE"
);
}
);
width = 542;
},
{
associatedMasterId = "BEE1AFF0-4415-4363-825D-BBA98FF62E65";
guideLines = (
{
position = "{599, 248.5}";
},
{
position = "{549, 505}";
},
{
position = "{549, -5}";
},
{
position = "{549, 75}";
}
);
layerId = "40D26F7B-911C-4357-BA06-F44D3C711207";
name = "7 juin 23 à 11:59";
paths = (
{
closed = 1;
nodes = (
"287.5 -5 OFFCURVE",
"334.5 97.5 OFFCURVE",
"334.5 287 CURVE SMOOTH",
"334.5 454 OFFCURVE",
"272.5 661 OFFCURVE",
"38.5 829 CURVE",
"133.5 814.5 LINE",
"36.5 718 LINE",
"-5.5 798 LINE",
"193 659 OFFCURVE",
"236.5 451.5 OFFCURVE",
"236.5 291.5 CURVE SMOOTH",
"236.5 118.5 OFFCURVE",
"216 75 OFFCURVE",
"174 75 CURVE SMOOTH",
"137 75 OFFCURVE",
"116 109.5 OFFCURVE",
"116 248.5 CURVE",
"18 248.5 LINE",
"18 75.5 OFFCURVE",
"74 -5 OFFCURVE",
"174 -5 CURVE SMOOTH"
);
},
{
closed = 1;
nodes = (
"116 248.5 LINE",
"116 438.5 OFFCURVE",
"199.5 490.5 OFFCURVE",
"246.5 407 CURVE",
"283.5 442.5 LINE",
"182 586.5 OFFCURVE",
"18 482.5 OFFCURVE",
"18 248.5 CURVE"
);
},
{
closed = 1;
nodes = (
"316 628.5 LINE",
"306.5 673 LINE",
"46.5 626 LINE",
"55.5 581.5 LINE"
);
}
);
width = 360.5;
}
);
leftKerningGroup = o;
leftMetricsKey = o;
rightKerningGroup = o;
rightMetricsKey = o;
unicode = 00F0;
},
{
color = 4;
glyphname = e;
lastChange = "2023-06-09 07:36:12 +0000";
layers = (
{
anchors = (
{
name = bottom;
position = "{179, -5}";
},
{
name = ogonek;
position = "{215.5, 0}";
},
{
name = top;
position = "{179, 505}";
}
);
guideLines = (
{
position = "{527, 425}";
}
);
layerId = "BEE1AFF0-4415-4363-825D-BBA98FF62E65";
paths = (
{
closed = 1;
nodes = (
"252.5 -5 OFFCURVE",
"311 50.5 OFFCURVE",
"320 165.5 CURVE",
"224 170.5 LINE",
"218.5 105 OFFCURVE",
"207 80 OFFCURVE",
"179 80 CURVE SMOOTH",
"139.5 80 OFFCURVE",
"125 129.5 OFFCURVE",
"125 250 CURVE SMOOTH",
"125 375.5 OFFCURVE",
"138 425 OFFCURVE",
"179 425 CURVE SMOOTH",
"209 425 OFFCURVE",
"230 398.5 OFFCURVE",
"230 286 CURVE",
"325 228 LINE",
"325 264 LINE SMOOTH",
"325 422.5 OFFCURVE",
"270 505 OFFCURVE",
"179 505 CURVE SMOOTH",
"83.5 505 OFFCURVE",
"22 413.5 OFFCURVE",
"22 250 CURVE SMOOTH",
"22 86.5 OFFCURVE",
"84 -5 OFFCURVE",
"179 -5 CURVE SMOOTH"
);
},
{
closed = 1;
nodes = (
"325 228 LINE",
"305 293 LINE",
"96 293 LINE",
"96 228 LINE"
);
}
);
width = 347;
},
{
associatedMasterId = "BEE1AFF0-4415-4363-825D-BBA98FF62E65";
layerId = "60C025C4-4D9A-4A6F-B70B-F4F478742D93";
name = "31 mars 22 à 18:22";
paths = (
{
closed = 1;
nodes = (
"18 57.5 OFFCURVE",
"80.5 -10 OFFCURVE",
"166.5 -10 CURVE",
"166.5 61 LINE",
"131.5 61 OFFCURVE",
"106.5 110.5 OFFCURVE",
"106.5 235 CURVE SMOOTH",
"106.5 362.5 OFFCURVE",
"131.5 439 OFFCURVE",
"166.5 439 CURVE",
"166.5 510 LINE",
"80.5 510 OFFCURVE",
"18 415.5 OFFCURVE",
"18 235 CURVE SMOOTH"
);
},
{
closed = 1;
nodes = (
"231 -10 OFFCURVE",
"273 32 OFFCURVE",
"290.5 136 CURVE",
"218.5 151 LINE",
"212.5 99.5 OFFCURVE",
"193 61 OFFCURVE",
"166.5 61 CURVE",
"166.5 -10 LINE"
);
},
{
closed = 1;
nodes = (
"166.5 439 LINE",
"193 439 OFFCURVE",
"212.5 400.5 OFFCURVE",
"218.5 349 CURVE",
"290.5 364 LINE",
"273 468 OFFCURVE",
"231 510 OFFCURVE",
"166.5 510 CURVE"
);
},
{
closed = 1;
nodes = (
"295 248 LINE",
"295 313 LINE",
"85 313 LINE",
"85 248 LINE"
);
}
);
width = 304.5;
}
);
leftKerningGroup = o;
leftMetricsKey = o;
rightKerningGroup = o;
rightMetricsKey = o;
unicode = 0065;
},
{
color = 4;
glyphname = f;
lastChange = "2023-06-09 07:37:39 +0000";
layers = (
{
guideLines = (
{
angle = 90;
position = "{288.5, 540}";
},
{
position = "{190, 710}";
}
);
layerId = "BEE1AFF0-4415-4363-825D-BBA98FF62E65";
paths = (
{
closed = 1;
nodes = (
"176 0.5 LINE",
"176 560 LINE SMOOTH",
"176 608 OFFCURVE",
"187.5 630 OFFCURVE",
"217 630 CURVE SMOOTH",
"228 630 OFFCURVE",
"242 626.5 OFFCURVE",
"258.5 620.5 CURVE",
"292.5 690.5 LINE",
"254.5 703 OFFCURVE",
"220 710 OFFCURVE",
"190 710 CURVE SMOOTH",
"120 710 OFFCURVE",
"76 673 OFFCURVE",
"76 585.5 CURVE SMOOTH",
"76 0.5 LINE"
);
},
{
closed = 1;
nodes = (
"278.5 420 LINE",
"278.5 500 LINE",
"16 500 LINE",
"16 420 LINE"
);
}
);
width = 298.5;
},
{
associatedMasterId = "BEE1AFF0-4415-4363-825D-BBA98FF62E65";
backgroundImage = {
imagePath = "../civette-main/_bdc/fj.jpeg";
transform = "{-3.25355, 0, 0, -3.25355, 323.5, 715.5}";
};
layerId = "3575558B-DD63-440B-8A6D-5B7260900333";
name = "3 sept. 22 à 10:13";
paths = (
{
closed = 1;
nodes = (
"315 592.5 LINE",
"276.5 684 OFFCURVE",
"224 720 OFFCURVE",
"179 720 CURVE SMOOTH",
"115 720 OFFCURVE",
"82.5 675 OFFCURVE",
"82.5 603.5 CURVE SMOOTH",
"82.5 0 LINE",
"175.5 0 LINE",
"175.5 592.5 LINE SMOOTH",
"175.5 629 OFFCURVE",
"188.5 644.5 OFFCURVE",
"205.5 644.5 CURVE SMOOTH",
"235 644.5 OFFCURVE",
"277.5 599.5 OFFCURVE",
"290 542 CURVE"
);
}
);
width = 600;
},
{
associatedMasterId = "BEE1AFF0-4415-4363-825D-BBA98FF62E65";
backgroundImage = {
imagePath = "../civette-main/_bdc/fj.jpeg";
transform = "{-3.25355, 0, 0, -3.25355, 323.5, 715.5}";
};
layerId = "FCD77C1E-6624-41AA-B868-8D7DD327D1BB";
name = "3 sept. 22 à 10:14";
paths = (
{
closed = 1;
nodes = (
"147 0 LINE",
"146.5 562.5 LINE SMOOTH",
"146.5 616 OFFCURVE",
"160 635.5 OFFCURVE",
"187 635.5 CURVE SMOOTH",
"217 635.5 OFFCURVE",
"263.5 612 OFFCURVE",
"327.5 583 CURVE",
"271.5 559 LINE",
"331 710 LINE",
"342 654 LINE",
"285 685 OFFCURVE",
"215 710 OFFCURVE",
"158 710 CURVE SMOOTH",
"98.5 710 OFFCURVE",
"54 682.5 OFFCURVE",
"54 600 CURVE SMOOTH",
"54 0 LINE"
);
}
);
width = 600;
}
);
leftKerningGroup = t;
leftMetricsKey = t;
rightKerningGroup = f;
unicode = 0066;
},
{
color = 4;
glyphname = g;
lastChange = "2023-06-09 07:14:09 +0000";
layers = (
{
anchors = (
{
name = bottom;
position = "{179, -200}";
},
{
name = top;
position = "{183.5, 505}";
}
);
guideLines = (
{
angle = 90;
position = "{238.5, 305}";
}
);
layerId = "BEE1AFF0-4415-4363-825D-BBA98FF62E65";
paths = (
{
closed = 1;
nodes = (
"271.5 120.5 OFFCURVE",
"338.5 192.5 OFFCURVE",
"338.5 313.5 CURVE SMOOTH",
"338.5 433.5 OFFCURVE",
"271.5 505 OFFCURVE",
"183.5 505 CURVE SMOOTH",
"95.5 505 OFFCURVE",
"28.5 433.5 OFFCURVE",
"28.5 313.5 CURVE SMOOTH",
"28.5 192.5 OFFCURVE",
"95.5 120.5 OFFCURVE",
"183.5 120.5 CURVE SMOOTH"
);
},
{
closed = 1;
nodes = (
"85 -170 OFFCURVE",
"149.5 -170 CURVE SMOOTH",
"239 -170 OFFCURVE",
"346 -112 OFFCURVE",
"346 -12 CURVE SMOOTH",
"346 41.5 OFFCURVE",
"310 74.5 OFFCURVE",
"257 71.5 CURVE SMOOTH",
"135 65 LINE SMOOTH",
"115 64 OFFCURVE",
"103.5 73 OFFCURVE",
"103.5 86 CURVE SMOOTH",
"103.5 102.5 OFFCURVE",
"122 129 OFFCURVE",
"164 166 CURVE",
"126 176 LINE",
"56.5 150.5 OFFCURVE",
"26 95 OFFCURVE",
"26 55 CURVE SMOOTH",
"26 20.5 OFFCURVE",
"51 -9.5 OFFCURVE",
"99 -7 CURVE SMOOTH",
"229 0 LINE SMOOTH",
"249 1 OFFCURVE",
"259 -10.5 OFFCURVE",
"259 -25.5 CURVE SMOOTH",
"259 -61 OFFCURVE",
"210 -95 OFFCURVE",
"156 -95 CURVE SMOOTH",
"126 -95 OFFCURVE",
"102 -84.5 OFFCURVE",
"102 -58 CURVE SMOOTH",
"102 -39 OFFCURVE",
"113.5 -5 OFFCURVE",
"136.5 17 CURVE",
"98.5 17 LINE",
"53.5 -1.5 OFFCURVE",
"30 -45.5 OFFCURVE",
"30 -77.5 CURVE SMOOTH",
"30 -139 OFFCURVE"
);
},
{
closed = 1;
nodes = (
"149.5 200.5 OFFCURVE",
"128.5 251 OFFCURVE",
"128.5 313.5 CURVE SMOOTH",
"128.5 371 OFFCURVE",
"149.5 425 OFFCURVE",
"183.5 425 CURVE SMOOTH",
"217.5 425 OFFCURVE",
"238.5 371 OFFCURVE",
"238.5 313.5 CURVE SMOOTH",
"238.5 251 OFFCURVE",
"217.5 200.5 OFFCURVE",
"183.5 200.5 CURVE SMOOTH"
);
},
{
closed = 1;
nodes = (
"263 501.5 OFFCURVE",
"288.5 525.5 OFFCURVE",
"340.5 525.5 CURVE",
"340.5 621.5 LINE",
"259 621.5 OFFCURVE",
"219 554.5 OFFCURVE",
"249.5 459 CURVE",
"283 458.5 LINE"
);
}
);
width = 372;
},
{
associatedMasterId = "BEE1AFF0-4415-4363-825D-BBA98FF62E65";
backgroundImage = {
imagePath = "../civette-main/_bdc/g.jpeg";
locked = "1";
transform = "{3.27006, 0, 0, 3.27006, -16, -147}";
};
layerId = "A633C81A-A1E3-4C64-9D35-07CE201D9714";
name = "13 avr. 22 à 17:12";
paths = (
{
closed = 1;
nodes = (
"249.5 110 OFFCURVE",
"305 181.5 OFFCURVE",
"305 310 CURVE SMOOTH",
"305 438.5 OFFCURVE",
"249.5 510 OFFCURVE",
"161.5 510 CURVE SMOOTH",
"73.5 510 OFFCURVE",
"18 438.5 OFFCURVE",
"18 310 CURVE SMOOTH",
"18 181.5 OFFCURVE",
"73.5 110 OFFCURVE",
"161.5 110 CURVE SMOOTH"
);
},
{
closed = 1;
nodes = (
"127.5 181 OFFCURVE",
"106.5 225 OFFCURVE",
"106.5 310 CURVE SMOOTH",
"106.5 385 OFFCURVE",
"127.5 439 OFFCURVE",
"161.5 439 CURVE SMOOTH",
"195.5 439 OFFCURVE",
"216.5 385 OFFCURVE",
"216.5 310 CURVE SMOOTH",
"216.5 225 OFFCURVE",
"195.5 181 OFFCURVE",
"161.5 181 CURVE SMOOTH"
);
},
{
closed = 1;
nodes = (
"246 501.5 OFFCURVE",
"271.5 525.5 OFFCURVE",
"323.5 525.5 CURVE",
"323.5 611.5 LINE",
"242 611.5 OFFCURVE",
"202 544.5 OFFCURVE",
"232.5 459 CURVE",
"266 458.5 LINE"
);
},
{
closed = 1;
nodes = (
"47.5 129 OFFCURVE",
"19 111.5 OFFCURVE",
"19 69 CURVE SMOOTH",
"19 26.5 OFFCURVE",
"32 7.5 OFFCURVE",
"77 7.5 CURVE SMOOTH",
"122 7.5 OFFCURVE",
"172 16.5 OFFCURVE",
"187.5 17.5 CURVE SMOOTH",
"203 18.5 OFFCURVE",
"208 15.5 OFFCURVE",
"208 9 CURVE SMOOTH",
"208 -32.5 OFFCURVE",
"140.5 -71 OFFCURVE",
"115.5 -71 CURVE SMOOTH",
"90.5 -71 OFFCURVE",
"82 -57.5 OFFCURVE",
"82 -37 CURVE SMOOTH",
"82 -16.5 OFFCURVE",
"89.5 -9.5 OFFCURVE",
"109.5 29.5 CURVE",
"97 29.5 OFFCURVE",
"109.5 29.5 OFFCURVE",
"81.5 29.5 CURVE",
"67.5 20 OFFCURVE",
"30.5 -47 OFFCURVE",
"30.5 -55 CURVE SMOOTH",
"30.5 -63 OFFCURVE",
"16 -123.5 OFFCURVE",
"106.5 -123.5 CURVE SMOOTH",
"197 -123.5 OFFCURVE",
"280.5 -30 OFFCURVE",
"280.5 21 CURVE SMOOTH",
"280.5 76 OFFCURVE",
"232.5 74 OFFCURVE",
"213.5 73.5 CURVE SMOOTH",
"194.5 73 OFFCURVE",
"164.5 72.5 OFFCURVE",
"128 68.5 CURVE SMOOTH",
"91.5 64.5 OFFCURVE",
"74.5 77.5 OFFCURVE",
"74.5 93 CURVE SMOOTH",
"74.5 111.5 OFFCURVE",
"98 121 OFFCURVE",
"110 135 CURVE",
"87.5 153.5 LINE"
);
}
);
width = 400;
},
{
associatedMasterId = "BEE1AFF0-4415-4363-825D-BBA98FF62E65";
layerId = "FEBE8DDC-64E3-4F0A-B1FA-86766924B4D7";
name = "13 avr. 22 à 17:14";
paths = (
{
closed = 1;
nodes = (
"249.5 110 OFFCURVE",
"305 181.5 OFFCURVE",
"305 310 CURVE SMOOTH",
"305 438.5 OFFCURVE",
"249.5 510 OFFCURVE",
"161.5 510 CURVE SMOOTH",
"73.5 510 OFFCURVE",
"18 438.5 OFFCURVE",
"18 310 CURVE SMOOTH",
"18 181.5 OFFCURVE",
"73.5 110 OFFCURVE",
"161.5 110 CURVE SMOOTH"
);
},
{
closed = 1;
nodes = (
"127.5 181 OFFCURVE",
"106.5 225 OFFCURVE",
"106.5 310 CURVE SMOOTH",
"106.5 385 OFFCURVE",
"127.5 439 OFFCURVE",
"161.5 439 CURVE SMOOTH",
"195.5 439 OFFCURVE",
"216.5 385 OFFCURVE",
"216.5 310 CURVE SMOOTH",
"216.5 225 OFFCURVE",
"195.5 181 OFFCURVE",
"161.5 181 CURVE SMOOTH"
);
},
{
closed = 1;
nodes = (
"246 501.5 OFFCURVE",
"271.5 525.5 OFFCURVE",
"323.5 525.5 CURVE",
"323.5 611.5 LINE",
"242 611.5 OFFCURVE",
"202 544.5 OFFCURVE",
"232.5 459 CURVE",
"266 458.5 LINE"
);
},
{
closed = 1;
nodes = (
"40.5 125 OFFCURVE",
"17.5 73.5 OFFCURVE",
"17.5 43 CURVE SMOOTH",
"17.5 14.5 OFFCURVE",
"37.5 -7 OFFCURVE",
"77 -5 CURVE SMOOTH",
"187.5 0 LINE SMOOTH",
"199 0.5 OFFCURVE",
"208 -5 OFFCURVE",
"208 -12.5 CURVE SMOOTH",
"208 -52.5 OFFCURVE",
"167.5 -83.5 OFFCURVE",
"115.5 -83.5 CURVE SMOOTH",
"96.5 -83.5 OFFCURVE",
"82 -68.5 OFFCURVE",
"82 -49.5 CURVE SMOOTH",
"82 -42.5 OFFCURVE",
"94 -13 OFFCURVE",
"109.5 17 CURVE",
"97 17 OFFCURVE",
"109.5 17 OFFCURVE",
"81.5 17 CURVE",
"53 -2.5 OFFCURVE",
"30.5 -39.5 OFFCURVE",
"30.5 -67.5 CURVE SMOOTH",
"30.5 -119.5 OFFCURVE",
"76 -145.5 OFFCURVE",
"129 -145.5 CURVE SMOOTH",
"204.5 -145.5 OFFCURVE",
"295.5 -93.5 OFFCURVE",
"295.5 8.5 CURVE SMOOTH",
"295.5 40 OFFCURVE",
"266 63 OFFCURVE",
"228.5 61 CURVE SMOOTH",
"128 56 LINE SMOOTH",
"92 54 OFFCURVE",
"76.5 58.5 OFFCURVE",
"76.5 70.5 CURVE SMOOTH",
"76.5 81 OFFCURVE",
"89 110.5 OFFCURVE",
"110 135 CURVE",
"87.5 153.5 LINE"
);
}
);
width = 400;
},
{
associatedMasterId = "BEE1AFF0-4415-4363-825D-BBA98FF62E65";
layerId = "1B8227C4-73DB-4C98-84D9-2763AA8A884D";
name = "4 mai 22 à 17:09";
paths = (
{
closed = 1;
nodes = (
"265 89 OFFCURVE",
"320.5 160.5 OFFCURVE",
"320.5 300 CURVE SMOOTH",
"320.5 438.5 OFFCURVE",
"265 510 OFFCURVE",
"177 510 CURVE SMOOTH",
"89 510 OFFCURVE",
"33.5 438.5 OFFCURVE",
"33.5 300 CURVE SMOOTH",
"33.5 160.5 OFFCURVE",
"89 89 OFFCURVE",
"177 89 CURVE SMOOTH"
);
},
{
closed = 1;
nodes = (
"143 160 OFFCURVE",
"122 204 OFFCURVE",
"122 300 CURVE SMOOTH",
"122 385 OFFCURVE",
"143 439 OFFCURVE",
"177 439 CURVE SMOOTH",
"211 439 OFFCURVE",
"232 385 OFFCURVE",
"232 300 CURVE SMOOTH",
"232 204 OFFCURVE",
"211 160 OFFCURVE",
"177 160 CURVE SMOOTH"
);
},
{
closed = 1;
nodes = (
"256.5 501.5 OFFCURVE",
"282 525.5 OFFCURVE",
"334 525.5 CURVE",
"334 611.5 LINE",
"252.5 611.5 OFFCURVE",
"212.5 544.5 OFFCURVE",
"243 459 CURVE",
"276.5 458.5 LINE"
);
},
{
closed = 1;
nodes = (
"51 125 OFFCURVE",
"28 73.5 OFFCURVE",
"28 43 CURVE SMOOTH",
"28 14.5 OFFCURVE",
"48 -7 OFFCURVE",
"87.5 -5 CURVE SMOOTH",
"198 0 LINE SMOOTH",
"209.5 0.5 OFFCURVE",
"218.5 -5 OFFCURVE",
"218.5 -12.5 CURVE SMOOTH",
"218.5 -52.5 OFFCURVE",
"178 -83.5 OFFCURVE",
"126 -83.5 CURVE SMOOTH",
"107 -83.5 OFFCURVE",
"92.5 -68.5 OFFCURVE",
"92.5 -49.5 CURVE SMOOTH",
"92.5 -42.5 OFFCURVE",
"104.5 -13 OFFCURVE",
"120 17 CURVE",
"107.5 17 OFFCURVE",
"120 17 OFFCURVE",
"92 17 CURVE",
"63.5 -2.5 OFFCURVE",
"41 -39.5 OFFCURVE",
"41 -67.5 CURVE SMOOTH",
"41 -119.5 OFFCURVE",
"86.5 -145.5 OFFCURVE",
"139.5 -145.5 CURVE SMOOTH",
"215 -145.5 OFFCURVE",
"306 -93.5 OFFCURVE",
"306 8.5 CURVE SMOOTH",
"306 40 OFFCURVE",
"276.5 63 OFFCURVE",
"239 61 CURVE SMOOTH",
"138.5 56 LINE SMOOTH",
"102.5 54 OFFCURVE",
"87 58.5 OFFCURVE",
"87 70.5 CURVE SMOOTH",
"87 81 OFFCURVE",
"99.5 110.5 OFFCURVE",
"120.5 135 CURVE",
"98 153.5 LINE"
);
}
);
width = 342;
},
{
associatedMasterId = "BEE1AFF0-4415-4363-825D-BBA98FF62E65";
guideLines = (
{
angle = 90;
position = "{231.5, 305}";
}
);
layerId = "40A2ECA3-E6FA-409C-8AAD-6F667E2EC50E";
name = "7 juin 22 à 12:02";
paths = (
{
closed = 1;
nodes = (
"264.5 99 OFFCURVE",
"325 170.5 OFFCURVE",
"325 305 CURVE SMOOTH",
"325 438.5 OFFCURVE",
"264.5 510 OFFCURVE",
"176.5 510 CURVE SMOOTH",
"88.5 510 OFFCURVE",
"28 438.5 OFFCURVE",
"28 305 CURVE SMOOTH",
"28 170.5 OFFCURVE",
"88.5 99 OFFCURVE",
"176.5 99 CURVE SMOOTH"
);
},
{
closed = 1;
nodes = (
"142.5 170 OFFCURVE",
"121.5 224 OFFCURVE",
"121.5 305 CURVE SMOOTH",
"121.5 385 OFFCURVE",
"142.5 439 OFFCURVE",
"176.5 439 CURVE SMOOTH",
"210.5 439 OFFCURVE",
"231.5 385 OFFCURVE",
"231.5 305 CURVE SMOOTH",
"231.5 224 OFFCURVE",
"210.5 170 OFFCURVE",
"176.5 170 CURVE SMOOTH"
);
},
{
closed = 1;
nodes = (
"256 501.5 OFFCURVE",
"281.5 525.5 OFFCURVE",
"333.5 525.5 CURVE",
"333.5 611.5 LINE",
"252 611.5 OFFCURVE",
"212 544.5 OFFCURVE",
"242.5 459 CURVE",
"276 458.5 LINE"
);
},
{
closed = 1;
nodes = (
"-7.5 132.5 OFFCURVE",
"-20 -8 OFFCURVE",
"87 -4.5 CURVE SMOOTH",
"226.5 0 LINE SMOOTH",
"241.5 0.5 OFFCURVE",
"250.5 -8.5 OFFCURVE",
"250.5 -20.5 CURVE SMOOTH",
"250.5 -57 OFFCURVE",
"187.5 -85 OFFCURVE",
"139 -85 CURVE SMOOTH",
"109 -85 OFFCURVE",
"85 -74.5 OFFCURVE",
"85 -48 CURVE SMOOTH",
"85 -29 OFFCURVE",
"96.5 -5 OFFCURVE",
"119.5 17 CURVE",
"107 17 OFFCURVE",
"119.5 17 OFFCURVE",
"91.5 17 CURVE",
"46.5 -1.5 OFFCURVE",
"23 -35.5 OFFCURVE",
"23 -67.5 CURVE SMOOTH",
"23 -125.5 OFFCURVE",
"79.5 -154 OFFCURVE",
"144 -154 CURVE SMOOTH",
"230.5 -154 OFFCURVE",
"331 -103 OFFCURVE",
"331 -1 CURVE SMOOTH",
"331 42 OFFCURVE",
"301.5 71 OFFCURVE",
"263.5 70 CURVE SMOOTH",
"119.5 65.5 LINE SMOOTH",
"74.5 64 OFFCURVE",
"73 99 OFFCURVE",
"148.5 165.5 CURVE",
"135.5 170.5 LINE"
);
}
);
width = 349.5;
},
{
associatedMasterId = "BEE1AFF0-4415-4363-825D-BBA98FF62E65";
guideLines = (
{
angle = 90;
position = "{242.5, 305}";
}
);
layerId = "1691637C-4D6E-42A6-9308-B53F4B4EAA48";
name = "26 oct. 22 à 11:33";
paths = (
{
closed = 1;
nodes = (
"275.5 109 OFFCURVE",
"339 180.5 OFFCURVE",
"339 307.5 CURVE SMOOTH",
"339 433.5 OFFCURVE",
"275.5 505 OFFCURVE",
"187.5 505 CURVE SMOOTH",
"99.5 505 OFFCURVE",
"36.5 433.5 OFFCURVE",
"36.5 307.5 CURVE SMOOTH",
"36.5 180.5 OFFCURVE",
"99.5 109 OFFCURVE",
"187.5 109 CURVE SMOOTH"
);
},
{
closed = 1;
nodes = (
"153.5 188.5 OFFCURVE",
"132.5 245 OFFCURVE",
"132.5 307.5 CURVE SMOOTH",
"132.5 371 OFFCURVE",
"153.5 425 OFFCURVE",
"187.5 425 CURVE SMOOTH",
"221.5 425 OFFCURVE",
"242.5 371 OFFCURVE",
"242.5 307.5 CURVE SMOOTH",
"242.5 245 OFFCURVE",
"221.5 188.5 OFFCURVE",
"187.5 188.5 CURVE SMOOTH"
);
},
{
closed = 1;
nodes = (
"267 501.5 OFFCURVE",
"292.5 525.5 OFFCURVE",
"344.5 525.5 CURVE",
"344.5 621.5 LINE",
"263 621.5 OFFCURVE",
"223 554.5 OFFCURVE",
"253.5 459 CURVE",
"287 458.5 LINE"
);
},
{
closed = 1;
nodes = (
"60.5 150.5 OFFCURVE",
"30 95 OFFCURVE",
"30 55 CURVE SMOOTH",
"30 20.5 OFFCURVE",
"55 -7 OFFCURVE",
"103 -5 CURVE SMOOTH",
"231.5 0 LINE SMOOTH",
"254 1 OFFCURVE",
"261.5 -7 OFFCURVE",
"261.5 -20.5 CURVE SMOOTH",
"261.5 -57 OFFCURVE",
"198.5 -85 OFFCURVE",
"150 -85 CURVE SMOOTH",
"120 -85 OFFCURVE",
"96 -74.5 OFFCURVE",
"96 -48 CURVE SMOOTH",
"96 -29 OFFCURVE",
"107.5 -5 OFFCURVE",
"130.5 17 CURVE",
"118 17 OFFCURVE",
"130.5 17 OFFCURVE",
"102.5 17 CURVE",
"57.5 -1.5 OFFCURVE",
"34 -35.5 OFFCURVE",
"34 -67.5 CURVE SMOOTH",
"34 -125.5 OFFCURVE",
"90.5 -159 OFFCURVE",
"155 -159 CURVE SMOOTH",
"236.5 -159 OFFCURVE",
"350 -102 OFFCURVE",
"350 0 CURVE SMOOTH",
"350 45.5 OFFCURVE",
"307 73.5 OFFCURVE",
"261 71.5 CURVE SMOOTH",
"130.5 66.5 LINE SMOOTH",
"110.5 65.5 OFFCURVE",
"99 72.5 OFFCURVE",
"99 85.5 CURVE SMOOTH",
"99 102 OFFCURVE",
"117.5 128.5 OFFCURVE",
"159.5 165.5 CURVE",
"130 176 LINE"
);
}
);
width = 366;
},
{
anchors = (
{
name = bottom;
position = "{183, -200}";
},
{
name = top;
position = "{187.5, 505}";
}
);
associatedMasterId = "BEE1AFF0-4415-4363-825D-BBA98FF62E65";
guideLines = (
{
angle = 90;
position = "{242.5, 305}";
}
);
layerId = "66C508FD-0C60-496F-AF79-B440844E6ABD";
name = "26 déc. 22 à 14:19";
paths = (
{
closed = 1;
nodes = (
"275.5 109 OFFCURVE",
"339 180.5 OFFCURVE",
"339 307.5 CURVE SMOOTH",
"339 433.5 OFFCURVE",
"275.5 505 OFFCURVE",
"187.5 505 CURVE SMOOTH",
"99.5 505 OFFCURVE",
"36.5 433.5 OFFCURVE",
"36.5 307.5 CURVE SMOOTH",
"36.5 180.5 OFFCURVE",
"99.5 109 OFFCURVE",
"187.5 109 CURVE SMOOTH"
);
},
{
closed = 1;
nodes = (
"153.5 188.5 OFFCURVE",
"132.5 245 OFFCURVE",
"132.5 307.5 CURVE SMOOTH",
"132.5 371 OFFCURVE",
"153.5 425 OFFCURVE",
"187.5 425 CURVE SMOOTH",
"221.5 425 OFFCURVE",
"242.5 371 OFFCURVE",
"242.5 307.5 CURVE SMOOTH",
"242.5 245 OFFCURVE",
"221.5 188.5 OFFCURVE",
"187.5 188.5 CURVE SMOOTH"
);
},
{
closed = 1;
nodes = (
"267 501.5 OFFCURVE",
"292.5 525.5 OFFCURVE",
"344.5 525.5 CURVE",
"344.5 621.5 LINE",
"263 621.5 OFFCURVE",
"223 554.5 OFFCURVE",
"253.5 459 CURVE",
"287 458.5 LINE"
);
},
{
closed = 1;
nodes = (
"60.5 150.5 OFFCURVE",
"30 95 OFFCURVE",
"30 55 CURVE SMOOTH",
"30 20.5 OFFCURVE",
"55 -7 OFFCURVE",
"103 -5 CURVE SMOOTH",
"231.5 0 LINE SMOOTH",
"254 1 OFFCURVE",
"261.5 -17 OFFCURVE",
"261.5 -30.5 CURVE SMOOTH",
"261.5 -67 OFFCURVE",
"198.5 -95 OFFCURVE",
"150 -95 CURVE SMOOTH",
"120 -95 OFFCURVE",
"96 -84.5 OFFCURVE",
"96 -58 CURVE SMOOTH",
"96 -39 OFFCURVE",
"107.5 -5 OFFCURVE",
"130.5 17 CURVE",
"118 17 OFFCURVE",
"130.5 17 OFFCURVE",
"102.5 17 CURVE",
"57.5 -1.5 OFFCURVE",
"34 -45.5 OFFCURVE",
"34 -77.5 CURVE SMOOTH",
"34 -135.5 OFFCURVE",
"90.5 -169 OFFCURVE",
"155 -169 CURVE SMOOTH",
"236.5 -169 OFFCURVE",
"350 -112 OFFCURVE",
"350 -10 CURVE SMOOTH",
"350 43.5 OFFCURVE",
"317 73 OFFCURVE",
"261 71 CURVE SMOOTH",
"130.5 66 LINE SMOOTH",
"110.5 65 OFFCURVE",
"99 72.5 OFFCURVE",
"99 85.5 CURVE SMOOTH",
"99 102 OFFCURVE",
"117.5 128.5 OFFCURVE",
"159.5 165.5 CURVE",
"130 176 LINE"
);
}
);
width = 366;
},
{
anchors = (
{
name = bottom;
position = "{179, -200}";
},
{
name = top;
position = "{183.5, 505}";
}
);
associatedMasterId = "BEE1AFF0-4415-4363-825D-BBA98FF62E65";
guideLines = (
{
angle = 90;
position = "{238.5, 305}";
}
);
layerId = "FBDBFF59-8BFF-4B20-911A-4B44866FC901";
name = "7 juin 23 à 11:29";
paths = (
{
closed = 1;
nodes = (
"271.5 110.5 OFFCURVE",
"334.5 182.5 OFFCURVE",
"334.5 308.5 CURVE SMOOTH",
"334.5 433.5 OFFCURVE",
"271.5 505 OFFCURVE",
"183.5 505 CURVE SMOOTH",
"95.5 505 OFFCURVE",
"32.5 433.5 OFFCURVE",
"32.5 308.5 CURVE SMOOTH",
"32.5 182.5 OFFCURVE",
"95.5 110.5 OFFCURVE",
"183.5 110.5 CURVE SMOOTH"
);
},
{
closed = 1;
nodes = (
"232.5 -169 OFFCURVE",
"346 -114 OFFCURVE",
"346 -12 CURVE SMOOTH",
"346 41.5 OFFCURVE",
"315 74.5 OFFCURVE",
"262 71.5 CURVE SMOOTH",
"136.5 64.5 LINE SMOOTH",
"116.5 63.5 OFFCURVE",
"105 72.5 OFFCURVE",
"105 85.5 CURVE SMOOTH",
"105 102 OFFCURVE",
"123.5 128.5 OFFCURVE",
"165.5 165.5 CURVE",
"126 176 LINE",
"56.5 150.5 OFFCURVE",
"26 95 OFFCURVE",
"26 55 CURVE SMOOTH",
"26 20.5 OFFCURVE",
"51 -9.5 OFFCURVE",
"99 -7 CURVE SMOOTH",
"236 0 LINE SMOOTH",
"256 1 OFFCURVE",
"266 -10.5 OFFCURVE",
"266 -25.5 CURVE SMOOTH",
"266 -61 OFFCURVE",
"209.5 -95 OFFCURVE",
"156 -95 CURVE SMOOTH",
"126 -95 OFFCURVE",
"102 -84.5 OFFCURVE",
"102 -58 CURVE SMOOTH",
"102 -39 OFFCURVE",
"113.5 -5 OFFCURVE",
"136.5 17 CURVE",
"98.5 17 LINE",
"53.5 -1.5 OFFCURVE",
"30 -45.5 OFFCURVE",
"30 -77.5 CURVE SMOOTH",
"30 -135.5 OFFCURVE",
"86.5 -169 OFFCURVE",
"151 -169 CURVE SMOOTH"
);
},
{
closed = 1;
nodes = (
"149.5 190.5 OFFCURVE",
"128.5 246 OFFCURVE",
"128.5 308.5 CURVE SMOOTH",
"128.5 371 OFFCURVE",
"149.5 425 OFFCURVE",
"183.5 425 CURVE SMOOTH",
"217.5 425 OFFCURVE",
"238.5 371 OFFCURVE",
"238.5 308.5 CURVE SMOOTH",
"238.5 246 OFFCURVE",
"217.5 190.5 OFFCURVE",
"183.5 190.5 CURVE SMOOTH"
);
},
{
closed = 1;
nodes = (
"263 501.5 OFFCURVE",
"288.5 525.5 OFFCURVE",
"340.5 525.5 CURVE",
"340.5 621.5 LINE",
"259 621.5 OFFCURVE",
"219 554.5 OFFCURVE",
"249.5 459 CURVE",
"283 458.5 LINE"
);
}
);
width = 372;
},
{
anchors = (
{
name = bottom;
position = "{179, -200}";
},
{
name = top;
position = "{183.5, 505}";
}
);
associatedMasterId = "BEE1AFF0-4415-4363-825D-BBA98FF62E65";
guideLines = (
{
angle = 90;
position = "{238.5, 305}";
}
);
layerId = "18E70237-0F56-4397-8042-DA4FECE6645F";
name = "7 juin 23 à 15:52";
paths = (
{
closed = 1;
nodes = (
"271.5 110.5 OFFCURVE",
"338.5 182.5 OFFCURVE",
"338.5 308.5 CURVE SMOOTH",
"338.5 433.5 OFFCURVE",
"271.5 505 OFFCURVE",
"183.5 505 CURVE SMOOTH",
"95.5 505 OFFCURVE",
"28.5 433.5 OFFCURVE",
"28.5 308.5 CURVE SMOOTH",
"28.5 182.5 OFFCURVE",
"95.5 110.5 OFFCURVE",
"183.5 110.5 CURVE SMOOTH"
);
},
{
closed = 1;
nodes = (
"85 -170 OFFCURVE",
"149.5 -170 CURVE SMOOTH",
"239 -170 OFFCURVE",
"346 -112 OFFCURVE",
"346 -12 CURVE SMOOTH",
"346 41.5 OFFCURVE",
"310 74.5 OFFCURVE",
"257 71.5 CURVE SMOOTH",
"135 65 LINE SMOOTH",
"115 64 OFFCURVE",
"103.5 73 OFFCURVE",
"103.5 86 CURVE SMOOTH",
"103.5 102.5 OFFCURVE",
"122 129 OFFCURVE",
"164 166 CURVE",
"126 176 LINE",
"56.5 150.5 OFFCURVE",
"26 95 OFFCURVE",
"26 55 CURVE SMOOTH",
"26 20.5 OFFCURVE",
"51 -9.5 OFFCURVE",
"99 -7 CURVE SMOOTH",
"229 0 LINE SMOOTH",
"249 1 OFFCURVE",
"259 -10.5 OFFCURVE",
"259 -25.5 CURVE SMOOTH",
"259 -61 OFFCURVE",
"210 -95 OFFCURVE",
"156 -95 CURVE SMOOTH",
"126 -95 OFFCURVE",
"102 -84.5 OFFCURVE",
"102 -58 CURVE SMOOTH",
"102 -39 OFFCURVE",
"113.5 -5 OFFCURVE",
"136.5 17 CURVE",
"98.5 17 LINE",
"53.5 -1.5 OFFCURVE",
"30 -45.5 OFFCURVE",
"30 -77.5 CURVE SMOOTH",
"30 -139 OFFCURVE"
);
},
{
closed = 1;
nodes = (
"149.5 190.5 OFFCURVE",
"128.5 246 OFFCURVE",
"128.5 308.5 CURVE SMOOTH",
"128.5 371 OFFCURVE",
"149.5 425 OFFCURVE",
"183.5 425 CURVE SMOOTH",
"217.5 425 OFFCURVE",
"238.5 371 OFFCURVE",
"238.5 308.5 CURVE SMOOTH",
"238.5 246 OFFCURVE",
"217.5 190.5 OFFCURVE",
"183.5 190.5 CURVE SMOOTH"
);
},
{
closed = 1;
nodes = (
"263 501.5 OFFCURVE",
"288.5 525.5 OFFCURVE",
"340.5 525.5 CURVE",
"340.5 621.5 LINE",
"259 621.5 OFFCURVE",
"219 554.5 OFFCURVE",
"249.5 459 CURVE",
"283 458.5 LINE"
);
}
);
width = 372;
}
);
leftKerningGroup = g;
rightKerningGroup = g;
unicode = 0067;
},
{
color = 4;
glyphname = gbreve;
lastChange = "2023-06-06 07:09:33 +0000";
layers = (
{
anchors = (
{
name = bottom;
position = "{179, -200}";
},
{
name = top;
position = "{183.5, 505}";
}
);
layerId = "BEE1AFF0-4415-4363-825D-BBA98FF62E65";
paths = (
{
closed = 1;
nodes = (
"271.5 110.5 OFFCURVE",
"334.5 182.5 OFFCURVE",
"334.5 308.5 CURVE SMOOTH",
"334.5 433.5 OFFCURVE",
"271.5 505 OFFCURVE",
"183.5 505 CURVE SMOOTH",
"95.5 505 OFFCURVE",
"32.5 433.5 OFFCURVE",
"32.5 308.5 CURVE SMOOTH",
"32.5 182.5 OFFCURVE",
"95.5 110.5 OFFCURVE",
"183.5 110.5 CURVE SMOOTH"
);
},
{
closed = 1;
nodes = (
"232.5 -169 OFFCURVE",
"346 -114 OFFCURVE",
"346 -12 CURVE SMOOTH",
"346 41.5 OFFCURVE",
"315 74.5 OFFCURVE",
"262 71.5 CURVE SMOOTH",
"136.5 64.5 LINE SMOOTH",
"116.5 63.5 OFFCURVE",
"105 72.5 OFFCURVE",
"105 85.5 CURVE SMOOTH",
"105 102 OFFCURVE",
"123.5 128.5 OFFCURVE",
"165.5 165.5 CURVE",
"126 176 LINE",
"56.5 150.5 OFFCURVE",
"26 95 OFFCURVE",
"26 55 CURVE SMOOTH",
"26 20.5 OFFCURVE",
"51 -9.5 OFFCURVE",
"99 -7 CURVE SMOOTH",
"236 0 LINE SMOOTH",
"256 1 OFFCURVE",
"266 -10.5 OFFCURVE",
"266 -25.5 CURVE SMOOTH",
"266 -61 OFFCURVE",
"209.5 -95 OFFCURVE",
"156 -95 CURVE SMOOTH",
"126 -95 OFFCURVE",
"102 -84.5 OFFCURVE",
"102 -58 CURVE SMOOTH",
"102 -39 OFFCURVE",
"113.5 -5 OFFCURVE",
"136.5 17 CURVE",
"98.5 17 LINE",
"53.5 -1.5 OFFCURVE",
"30 -45.5 OFFCURVE",
"30 -77.5 CURVE SMOOTH",
"30 -135.5 OFFCURVE",
"86.5 -169 OFFCURVE",
"151 -169 CURVE SMOOTH"
);
},
{
closed = 1;
nodes = (
"149.5 190.5 OFFCURVE",
"128.5 246 OFFCURVE",
"128.5 308.5 CURVE SMOOTH",
"128.5 371 OFFCURVE",
"149.5 425 OFFCURVE",
"183.5 425 CURVE SMOOTH",
"217.5 425 OFFCURVE",
"238.5 371 OFFCURVE",
"238.5 308.5 CURVE SMOOTH",
"238.5 246 OFFCURVE",
"217.5 190.5 OFFCURVE",
"183.5 190.5 CURVE SMOOTH"
);
},
{
closed = 1;
nodes = (
"362 505 LINE",
"231 496.5 LINE",
"231 466.5 LINE",
"362 415 LINE"
);
},
{
closed = 1;
nodes = (
"248.5 532.5 OFFCURVE",
"294 581.5 OFFCURVE",
"294 644 CURVE",
"230 644 LINE",
"230 611 OFFCURVE",
"210 585 OFFCURVE",
"184 585 CURVE SMOOTH",
"158 585 OFFCURVE",
"138 611 OFFCURVE",
"138 644 CURVE",
"74 644 LINE",
"74 581.5 OFFCURVE",
"119.5 532.5 OFFCURVE",
"184 532.5 CURVE SMOOTH"
);
}
);
width = 362;
}
);
leftKerningGroup = g;
leftMetricsKey = g;
rightKerningGroup = g;
unicode = 011F;
},
{
color = 4;
glyphname = gdotaccent;
lastChange = "2023-06-06 07:09:33 +0000";
layers = (
{
anchors = (
{
name = bottom;
position = "{183, -200}";
},
{
name = top;
position = "{187.5, 505}";
}
);
layerId = "BEE1AFF0-4415-4363-825D-BBA98FF62E65";
paths = (
{
closed = 1;
nodes = (
"271.5 110.5 OFFCURVE",
"334.5 182.5 OFFCURVE",
"334.5 308.5 CURVE SMOOTH",
"334.5 433.5 OFFCURVE",
"271.5 505 OFFCURVE",
"183.5 505 CURVE SMOOTH",
"95.5 505 OFFCURVE",
"32.5 433.5 OFFCURVE",
"32.5 308.5 CURVE SMOOTH",
"32.5 182.5 OFFCURVE",
"95.5 110.5 OFFCURVE",
"183.5 110.5 CURVE SMOOTH"
);
},
{
closed = 1;
nodes = (
"232.5 -169 OFFCURVE",
"346 -114 OFFCURVE",
"346 -12 CURVE SMOOTH",
"346 41.5 OFFCURVE",
"315 74.5 OFFCURVE",
"262 71.5 CURVE SMOOTH",
"136.5 64.5 LINE SMOOTH",
"116.5 63.5 OFFCURVE",
"105 72.5 OFFCURVE",
"105 85.5 CURVE SMOOTH",
"105 102 OFFCURVE",
"123.5 128.5 OFFCURVE",
"165.5 165.5 CURVE",
"126 176 LINE",
"56.5 150.5 OFFCURVE",
"26 95 OFFCURVE",
"26 55 CURVE SMOOTH",
"26 20.5 OFFCURVE",
"51 -9.5 OFFCURVE",
"99 -7 CURVE SMOOTH",
"236 0 LINE SMOOTH",
"256 1 OFFCURVE",
"266 -10.5 OFFCURVE",
"266 -25.5 CURVE SMOOTH",
"266 -61 OFFCURVE",
"209.5 -95 OFFCURVE",
"156 -95 CURVE SMOOTH",
"126 -95 OFFCURVE",
"102 -84.5 OFFCURVE",
"102 -58 CURVE SMOOTH",
"102 -39 OFFCURVE",
"113.5 -5 OFFCURVE",
"136.5 17 CURVE",
"98.5 17 LINE",
"53.5 -1.5 OFFCURVE",
"30 -45.5 OFFCURVE",
"30 -77.5 CURVE SMOOTH",
"30 -135.5 OFFCURVE",
"86.5 -169 OFFCURVE",
"151 -169 CURVE SMOOTH"
);
},
{
closed = 1;
nodes = (
"149.5 190.5 OFFCURVE",
"128.5 246 OFFCURVE",
"128.5 308.5 CURVE SMOOTH",
"128.5 371 OFFCURVE",
"149.5 425 OFFCURVE",
"183.5 425 CURVE SMOOTH",
"217.5 425 OFFCURVE",
"238.5 371 OFFCURVE",
"238.5 308.5 CURVE SMOOTH",
"238.5 246 OFFCURVE",
"217.5 190.5 OFFCURVE",
"183.5 190.5 CURVE SMOOTH"
);
},
{
closed = 1;
nodes = (
"366 505 LINE",
"235 496.5 LINE",
"235 466.5 LINE",
"366 415 LINE"
);
},
{
closed = 1;
nodes = (
"222.5 547.5 OFFCURVE",
"250 575 OFFCURVE",
"250 610 CURVE SMOOTH",
"250 645 OFFCURVE",
"222.5 672.5 OFFCURVE",
"187.5 672.5 CURVE SMOOTH",
"152.5 672.5 OFFCURVE",
"125 645 OFFCURVE",
"125 610 CURVE SMOOTH",
"125 575 OFFCURVE",
"152.5 547.5 OFFCURVE",
"187.5 547.5 CURVE SMOOTH"
);
}
);
width = 366;
}
);
leftKerningGroup = g;
rightKerningGroup = g;
unicode = 0121;
},
{
color = 4;
glyphname = h;
lastChange = "2023-06-07 12:25:21 +0000";
layers = (
{
components = (
{
name = l;
}
);
layerId = "BEE1AFF0-4415-4363-825D-BBA98FF62E65";
paths = (
{
closed = 1;
nodes = (
"328 0 LINE",
"328 383.5 LINE SMOOTH",
"328 460 OFFCURVE",
"289.5 505 OFFCURVE",
"225.5 505 CURVE SMOOTH",
"180.5 505 OFFCURVE",
"135 474 OFFCURVE",
"96.5 382.5 CURVE",
"121.5 327 LINE",
"134 384.5 OFFCURVE",
"169.5 425 OFFCURVE",
"199 425 CURVE SMOOTH",
"216 425 OFFCURVE",
"228 409 OFFCURVE",
"228 372.5 CURVE SMOOTH",
"228 0 LINE"
);
}
);
width = 364;
}
);
leftKerningGroup = H;
leftMetricsKey = l;
rightKerningGroup = n;
rightMetricsKey = n;
unicode = 0068;
},
{
color = 4;
glyphname = idotless;
lastChange = "2023-06-08 06:40:56 +0000";
layers = (
{
anchors = (
{
name = bottom;
position = "{88, 0}";
},
{
name = ogonek;
position = "{138, 0}";
},
{
name = top;
position = "{88, 500}";
}
);
layerId = "BEE1AFF0-4415-4363-825D-BBA98FF62E65";
paths = (
{
closed = 1;
nodes = (
"138 0 LINE",
"138 500 LINE",
"38 500 LINE",
"38 0 LINE"
);
}
);
width = 176;
}
);
leftKerningGroup = i;
rightKerningGroup = i;
unicode = 0131;
},
{
color = 4;
glyphname = jdotless;
lastChange = "2023-06-08 06:09:10 +0000";
layers = (
{
anchors = (
{
name = bottom;
position = "{83, -200}";
},
{
name = top;
position = "{90, 500}";
}
);
layerId = "BEE1AFF0-4415-4363-825D-BBA98FF62E65";
paths = (
{
closed = 1;
nodes = (
"72.5 -220 OFFCURVE",
"140 -178.5 OFFCURVE",
"140 -95.5 CURVE SMOOTH",
"140 500 LINE",
"40 500 LINE",
"40 -64.5 LINE SMOOTH",
"40 -111.5 OFFCURVE",
"24 -135 OFFCURVE",
"-7.5 -135 CURVE SMOOTH",
"-21.5 -135 OFFCURVE",
"-38 -130.5 OFFCURVE",
"-58.5 -121.5 CURVE",
"-82 -200 LINE",
"-50.5 -213.5 OFFCURVE",
"-26.5 -220 OFFCURVE",
"1.5 -220 CURVE SMOOTH"
);
}
);
width = 178;
},
{
anchors = (
{
name = bottom;
position = "{87, -179.5}";
},
{
name = top;
position = "{84, 500}";
}
);
associatedMasterId = "BEE1AFF0-4415-4363-825D-BBA98FF62E65";
layerId = "C5AD60F5-3946-48D8-AD14-0F48264312C2";
name = "3 sept. 22 à 11:52";
paths = (
{
closed = 1;
nodes = (
"38.5 500 LINE",
"39 -30.5 LINE SMOOTH",
"39 -84 OFFCURVE",
"25.5 -103.5 OFFCURVE",
"-1.5 -103.5 CURVE SMOOTH",
"-16.5 -103.5 OFFCURVE",
"-36 -97.5 OFFCURVE",
"-60 -88 CURVE",
"-86 -155.5 LINE",
"-47.5 -170 OFFCURVE",
"-7.5 -179.5 OFFCURVE",
"27.5 -179.5 CURVE SMOOTH",
"87 -179.5 OFFCURVE",
"131.5 -152 OFFCURVE",
"131.5 -69.5 CURVE SMOOTH",
"131.5 500 LINE"
);
}
);
width = 167.5;
}
);
leftKerningGroup = j;
rightKerningGroup = j;
rightMetricsKey = idotless;
unicode = 0237;
},
{
color = 4;
glyphname = k;
lastChange = "2023-06-07 13:10:29 +0000";
layers = (
{
anchors = (
{
name = bottom;
position = "{186, 0}";
},
{
name = top;
position = "{181, 800}";
}
);
annotations = (
{
position = "{236.5, 618.5}";
text = "TROP GRAS";
type = Text;
},
{
position = "{281, 207}";
type = Text;
}
);
components = (
{
name = l;
}
);
layerId = "BEE1AFF0-4415-4363-825D-BBA98FF62E65";
paths = (
{
closed = 1;
nodes = (
"138 100 LINE",
"334.5 500 LINE",
"229.5 500 LINE",
"88 100 LINE"
);
},
{
closed = 1;
nodes = (
"356 0 LINE",
"240 314 LINE",
"174 314 LINE",
"251 0 LINE"
);
}
);
width = 362;
},
{
associatedMasterId = "BEE1AFF0-4415-4363-825D-BBA98FF62E65";
layerId = "3A580352-953C-4F57-A0D3-4296D9F8BBDC";
name = "3 sept. 22 à 14:45";
paths = (
{
closed = 1;
nodes = (
"36 0 LINE",
"96 0 LINE",
"129 100 LINE",
"129 805 LINE",
"36 775 LINE"
);
},
{
closed = 1;
nodes = (
"385 0 LINE",
"249.5 314 LINE",
"177.5 314 LINE",
"270 0 LINE"
);
},
{
closed = 1;
nodes = (
"95.5 0 LINE",
"339.5 500 LINE",
"229.5 500 LINE",
"50.5 0 LINE"
);
}
);
width = 600;
},
{
associatedMasterId = "BEE1AFF0-4415-4363-825D-BBA98FF62E65";
layerId = "148197F2-F742-421E-8CBB-7BDF7B9D8601";
name = "3 sept. 22 à 14:47";
paths = (
{
closed = 1;
nodes = (
"36 0 LINE",
"96 0 LINE",
"114 100 LINE",
"129 351.5 LINE",
"129 805 LINE",
"36 775 LINE"
);
},
{
closed = 1;
nodes = (
"355 0 LINE",
"234.5 314 LINE",
"172.5 314 LINE",
"250 0 LINE"
);
},
{
closed = 1;
nodes = (
"95.5 0 LINE",
"339.5 500 LINE",
"239.5 500 LINE",
"50.5 0 LINE"
);
}
);
width = 365;
}
);
leftKerningGroup = H;
leftMetricsKey = l;
rightKerningGroup = k;
rightMetricsKey = x;
unicode = 006B;
},
{
color = 4;
glyphname = l;
lastChange = "2023-06-07 12:24:52 +0000";
layers = (
{
anchors = (
{
name = bottom;
position = "{88, 0}";
},
{
name = center;
position = "{88, 400}";
},
{
name = top;
position = "{88, 789.5}";
},
{
name = topright;
position = "{152, 800}";
}
);
layerId = "BEE1AFF0-4415-4363-825D-BBA98FF62E65";
paths = (
{
closed = 1;
nodes = (
"138 0 LINE",
"138 805 LINE",
"38 774 LINE",
"38 0 LINE"
);
}
);
width = 176;
}
);
leftKerningGroup = H;
rightKerningGroup = H;
unicode = 006C;
},
{
color = 4;
glyphname = lslash;
lastChange = "2023-06-08 06:34:32 +0000";
layers = (
{
components = (
{
name = l;
transform = "{1, 0, 0, 1, 36, 0}";
}
);
layerId = "BEE1AFF0-4415-4363-825D-BBA98FF62E65";
paths = (
{
closed = 1;
nodes = (
"244 397 LINE",
"217 433.5 LINE",
"6 285.5 LINE",
"33.5 248.5 LINE"
);
}
);
width = 250;
}
);
rightKerningGroup = lslash;
unicode = 0142;
},
{
color = 4;
glyphname = m;
lastChange = "2023-06-09 06:52:45 +0000";
layers = (
{
layerId = "BEE1AFF0-4415-4363-825D-BBA98FF62E65";
paths = (
{
closed = 1;
nodes = (
"322 0 LINE",
"322 383.5 LINE SMOOTH",
"322 460 OFFCURVE",
"286.5 505 OFFCURVE",
"222.5 505 CURVE SMOOTH",
"169.5 505 OFFCURVE",
"133 474 OFFCURVE",
"94.5 382.5 CURVE",
"119.5 327 LINE",
"132 384.5 OFFCURVE",
"164 425 OFFCURVE",
"191 425 CURVE SMOOTH",
"208 425 OFFCURVE",
"221 409 OFFCURVE",
"221 372.5 CURVE SMOOTH",
"221 0 LINE"
);
},
{
closed = 1;
nodes = (
"136 0 LINE",
"136 400 LINE",
"104 500 LINE",
"36 500 LINE",
"36 0 LINE"
);
},
{
closed = 1;
nodes = (
"507 0 LINE",
"507 383.5 LINE SMOOTH",
"507 460 OFFCURVE",
"467.5 505 OFFCURVE",
"403.5 505 CURVE SMOOTH",
"350.5 505 OFFCURVE",
"324 474 OFFCURVE",
"285.5 382.5 CURVE",
"310.5 327 LINE",
"323 384.5 OFFCURVE",
"350 425 OFFCURVE",
"377 425 CURVE SMOOTH",
"394 425 OFFCURVE",
"407 409 OFFCURVE",
"407 372.5 CURVE SMOOTH",
"407 0 LINE"
);
}
);
width = 543;
}
);
leftKerningGroup = n;
leftMetricsKey = n;
rightKerningGroup = n;
rightMetricsKey = h;
unicode = 006D;
},
{
color = 4;
glyphname = n;
lastChange = "2023-06-07 13:09:18 +0000";
layers = (
{
anchors = (
{
name = bottom;
position = "{181, 0}";
},
{
name = top;
position = "{181, 500}";
}
);
guideLines = (
{
position = "{225.5, 505}";
}
);
layerId = "BEE1AFF0-4415-4363-825D-BBA98FF62E65";
paths = (
{
closed = 1;
nodes = (
"326 0 LINE",
"326 383.5 LINE SMOOTH",
"326 460 OFFCURVE",
"287.5 505 OFFCURVE",
"223.5 505 CURVE SMOOTH",
"178.5 505 OFFCURVE",
"133 474 OFFCURVE",
"94.5 382.5 CURVE",
"119.5 327 LINE",
"132 384.5 OFFCURVE",
"167.5 425 OFFCURVE",
"197 425 CURVE SMOOTH",
"214 425 OFFCURVE",
"226 409 OFFCURVE",
"226 372.5 CURVE SMOOTH",
"226 0 LINE"
);
},
{
closed = 1;
nodes = (
"136 0 LINE",
"136 400 LINE",
"104 500 LINE",
"36 500 LINE",
"36 0 LINE"
);
}
);
width = 362;
},
{
associatedMasterId = "BEE1AFF0-4415-4363-825D-BBA98FF62E65";
backgroundImage = {
imagePath = "../civette-main/_bdc/n.jpeg";
locked = "1";
transform = "{3.57138, 0, 0, 3.57138, 0, -37}";
};
layerId = "DD804FA0-20C2-41F4-85F6-9A1E9AE9E3B2";
name = "31 mars 22 à 10:57";
paths = (
{
closed = 1;
nodes = (
"206.5 424.5 OFFCURVE",
"250 452 OFFCURVE",
"281 452 CURVE SMOOTH",
"309 452 OFFCURVE",
"326 423.5 OFFCURVE",
"326 398.5 CURVE",
"419 413.5 LINE",
"419 472 OFFCURVE",
"371 530.5 OFFCURVE",
"305.5 530.5 CURVE SMOOTH",
"254 530.5 OFFCURVE",
"191 494.5 OFFCURVE",
"132.5 393.5 CURVE",
"157.5 343 LINE"
);
},
{
closed = 1;
nodes = (
"169 0 LINE",
"169 400 LINE",
"136 500 LINE",
"76 500 LINE",
"76 0 LINE"
);
},
{
closed = 1;
nodes = (
"419 0 LINE",
"419 413.5 LINE",
"326 398.5 LINE",
"326 0 LINE"
);
}
);
width = 600;
},
{
associatedMasterId = "BEE1AFF0-4415-4363-825D-BBA98FF62E65";
backgroundImage = {
imagePath = "../civette-main/_bdc/n.jpeg";
locked = "1";
transform = "{3.57138, 0, 0, 3.57138, -40, -37}";
};
layerId = "AA48BEB6-D9B2-4C2D-BAA2-79062AC4C56B";
name = "31 mars 22 à 10:59";
paths = (
{
closed = 1;
nodes = (
"137 433.5 OFFCURVE",
"236 498.5 OFFCURVE",
"236 398.5 CURVE",
"329 413.5 LINE",
"329 519 OFFCURVE",
"170 621.5 OFFCURVE",
"92.5 393.5 CURVE",
"117.5 343 LINE"
);
},
{
closed = 1;
nodes = (
"129 0 LINE",
"129 400 LINE",
"96 500 LINE",
"36 500 LINE",
"36 0 LINE"
);
},
{
closed = 1;
nodes = (
"329 0 LINE",
"329 413.5 LINE",
"236 398.5 LINE",
"236 0 LINE"
);
}
);
width = 415;
},
{
associatedMasterId = "BEE1AFF0-4415-4363-825D-BBA98FF62E65";
backgroundImage = {
imagePath = "../civette-main/_bdc/n.jpeg";
locked = "1";
transform = "{3.57138, 0, 0, 3.57138, -40, -37}";
};
layerId = "C61E3373-C4DD-4C0F-9DD5-804EE03A6DDB";
name = "31 mars 22 à 11:00";
paths = (
{
closed = 1;
nodes = (
"137 433.5 OFFCURVE",
"232 493.5 OFFCURVE",
"232 393.5 CURVE",
"325 408.5 LINE",
"325 514 OFFCURVE",
"170 621.5 OFFCURVE",
"92.5 393.5 CURVE",
"117.5 343 LINE"
);
},
{
closed = 1;
nodes = (
"129 0 LINE",
"129 400 LINE",
"96 500 LINE",
"36 500 LINE",
"36 0 LINE"
);
},
{
closed = 1;
nodes = (
"325 0 LINE",
"325 408.5 LINE",
"232 393.5 LINE",
"232 0 LINE"
);
}
);
width = 361;
}
);
leftKerningGroup = n;
rightKerningGroup = n;
unicode = 006E;
},
{
color = 4;
glyphname = o;
lastChange = "2023-06-09 07:37:56 +0000";
layers = (
{
associatedMasterId = "BEE1AFF0-4415-4363-825D-BBA98FF62E65";
backgroundImage = {
imagePath = "../civette-main/_bdc/o.jpeg";
locked = "1";
transform = "{3.50211, 0, 0, 3.50211, -48.5, -62}";
};
layerId = "443AC40E-718C-4870-B2C6-1DACD1F2B6CD";
name = "31 mars 22 à 11:05";
paths = (
{
closed = 1;
nodes = (
"99 510 OFFCURVE",
"36.5 369.5 OFFCURVE",
"36.5 248.5 CURVE",
"131 248.5 LINE",
"131 359.5 OFFCURVE",
"179 424 OFFCURVE",
"211.5 424 CURVE",
"211.5 510 LINE"
);
},
{
closed = 1;
nodes = (
"211.5 424 LINE",
"244 424 OFFCURVE",
"292 359.5 OFFCURVE",
"292 248.5 CURVE",
"386.5 248.5 LINE",
"386.5 369.5 OFFCURVE",
"324 510 OFFCURVE",
"211.5 510 CURVE"
);
},
{
closed = 1;
nodes = (
"211.5 72.5 LINE",
"179 72.5 OFFCURVE",
"131 137 OFFCURVE",
"131 248.5 CURVE",
"36.5 248.5 LINE",
"36.5 127 OFFCURVE",
"99 -13.5 OFFCURVE",
"211.5 -13.5 CURVE"
);
},
{
closed = 1;
nodes = (
"324 -13.5 OFFCURVE",
"386.5 127 OFFCURVE",
"386.5 248.5 CURVE",
"292 248.5 LINE",
"292 137 OFFCURVE",
"244 72.5 OFFCURVE",
"211.5 72.5 CURVE",
"211.5 -13.5 LINE"
);
}
);
width = 600;
},
{
associatedMasterId = "BEE1AFF0-4415-4363-825D-BBA98FF62E65";
backgroundImage = {
imagePath = "../civette-main/_bdc/o.jpeg";
locked = "1";
transform = "{3.50211, 0, 0, 3.50211, -48.5, -62}";
};
layerId = "2EA1FED7-F395-4940-AD4E-48C8164B0560";
name = "31 mars 22 à 11:05";
paths = (
{
closed = 1;
nodes = (
"99 510 OFFCURVE",
"36.5 369.5 OFFCURVE",
"36.5 248.5 CURVE",
"131 248.5 LINE",
"131 359.5 OFFCURVE",
"179 424 OFFCURVE",
"211.5 424 CURVE",
"211.5 510 LINE"
);
},
{
closed = 1;
nodes = (
"211.5 424 LINE",
"244 424 OFFCURVE",
"292 359.5 OFFCURVE",
"292 248.5 CURVE",
"386.5 248.5 LINE",
"386.5 369.5 OFFCURVE",
"324 510 OFFCURVE",
"211.5 510 CURVE"
);
},
{
closed = 1;
nodes = (
"211.5 72.5 LINE",
"179 72.5 OFFCURVE",
"131 137 OFFCURVE",
"131 248.5 CURVE",
"36.5 248.5 LINE",
"36.5 127 OFFCURVE",
"99 -13.5 OFFCURVE",
"211.5 -13.5 CURVE"
);
},
{
closed = 1;
nodes = (
"324 -13.5 OFFCURVE",
"386.5 127 OFFCURVE",
"386.5 248.5 CURVE",
"292 248.5 LINE",
"292 137 OFFCURVE",
"244 72.5 OFFCURVE",
"211.5 72.5 CURVE",
"211.5 -13.5 LINE"
);
}
);
width = 600;
},
{
anchors = (
{
name = bottom;
position = "{175, 0}";
},
{
name = center;
position = "{175, 250}";
},
{
name = ogonek;
position = "{311, 10}";
},
{
name = top;
position = "{175, 505}";
},
{
name = topright;
position = "{325, 500}";
}
);
guideLines = (
{
position = "{175, -5}";
},
{
position = "{175, 505}";
}
);
layerId = "BEE1AFF0-4415-4363-825D-BBA98FF62E65";
name = Regular;
paths = (
{
closed = 1;
nodes = (
"272.5 -5 OFFCURVE",
"328 80.5 OFFCURVE",
"328 250 CURVE SMOOTH",
"328 418.5 OFFCURVE",
"272.5 505 OFFCURVE",
"175 505 CURVE SMOOTH",
"77.5 505 OFFCURVE",
"22 419 OFFCURVE",
"22 250 CURVE SMOOTH",
"22 81 OFFCURVE",
"77.5 -5 OFFCURVE",
"175 -5 CURVE SMOOTH"
);
},
{
closed = 1;
nodes = (
"139 75 OFFCURVE",
"125 122 OFFCURVE",
"125 250 CURVE SMOOTH",
"125 378 OFFCURVE",
"139 425 OFFCURVE",
"175 425 CURVE SMOOTH",
"211 425 OFFCURVE",
"225 377.5 OFFCURVE",
"225 249.5 CURVE SMOOTH",
"225 121.5 OFFCURVE",
"211 75 OFFCURVE",
"175 75 CURVE SMOOTH"
);
}
);
width = 350;
}
);
leftKerningGroup = o;
rightKerningGroup = o;
unicode = 006F;
},
{
color = 4;
glyphname = oe;
lastChange = "2023-06-08 06:35:37 +0000";
layers = (
{
layerId = "BEE1AFF0-4415-4363-825D-BBA98FF62E65";
paths = (
{
closed = 1;
nodes = (
"274.5 -5 OFFCURVE",
"312 80.5 OFFCURVE",
"312 250 CURVE SMOOTH",
"312 418.5 OFFCURVE",
"274.5 505 OFFCURVE",
"177 505 CURVE SMOOTH",
"79.5 505 OFFCURVE",
"22 419 OFFCURVE",
"22 250 CURVE SMOOTH",
"22 81 OFFCURVE",
"79.5 -5 OFFCURVE",
"177 -5 CURVE SMOOTH"
);
},
{
closed = 1;
nodes = (
"141 75 OFFCURVE",
"125 122 OFFCURVE",
"125 250 CURVE SMOOTH",
"125 378 OFFCURVE",
"141 425 OFFCURVE",
"177 425 CURVE SMOOTH",
"213 425 OFFCURVE",
"229 377.5 OFFCURVE",
"229 249.5 CURVE SMOOTH",
"229 121.5 OFFCURVE",
"213 75 OFFCURVE",
"177 75 CURVE SMOOTH"
);
},
{
closed = 1;
nodes = (
"445.5 -5 OFFCURVE",
"504 50.5 OFFCURVE",
"513 165.5 CURVE",
"417 170.5 LINE",
"411.5 100 OFFCURVE",
"400 75 OFFCURVE",
"371 75 CURVE SMOOTH",
"330 75 OFFCURVE",
"317 124.5 OFFCURVE",
"317 250 CURVE SMOOTH",
"317 375.5 OFFCURVE",
"330 425 OFFCURVE",
"371 425 CURVE SMOOTH",
"401 425 OFFCURVE",
"423 398.5 OFFCURVE",
"423 286 CURVE",
"518 228 LINE",
"518 264 LINE SMOOTH",
"518 422.5 OFFCURVE",
"462 505 OFFCURVE",
"371 505 CURVE SMOOTH",
"275.5 505 OFFCURVE",
"234 413.5 OFFCURVE",
"234 250 CURVE SMOOTH",
"234 86.5 OFFCURVE",
"276 -5 OFFCURVE",
"371 -5 CURVE SMOOTH"
);
},
{
closed = 1;
nodes = (
"518 228 LINE",
"498 293 LINE",
"293 293 LINE",
"293 228 LINE"
);
}
);
width = 540;
}
);
leftKerningGroup = o;
leftMetricsKey = o;
rightKerningGroup = o;
rightMetricsKey = e;
unicode = 0153;
},
{
color = 4;
glyphname = thorn;
lastChange = "2023-06-08 08:08:49 +0000";
layers = (
{
guideLines = (
{
position = "{170, 631}";
}
);
layerId = "BEE1AFF0-4415-4363-825D-BBA98FF62E65";
paths = (
{
closed = 1;
nodes = (
"134 -200 LINE",
"134 631 LINE",
"38 600 LINE",
"38 -200 LINE"
);
},
{
closed = 1;
nodes = (
"132.5 505 OFFCURVE",
"105.5 440 OFFCURVE",
"107 315 CURVE",
"134 295 LINE",
"134 380.5 OFFCURVE",
"142.5 425 OFFCURVE",
"179 425 CURVE SMOOTH",
"209 425 OFFCURVE",
"238 395 OFFCURVE",
"238 261 CURVE SMOOTH",
"238 129 OFFCURVE",
"210.5 75 OFFCURVE",
"181 75 CURVE SMOOTH",
"156 75 OFFCURVE",
"134 114 OFFCURVE",
"134 179 CURVE",
"107 159 LINE",
"107 55 OFFCURVE",
"152.5 -5 OFFCURVE",
"211 -5 CURVE SMOOTH",
"290.5 -5 OFFCURVE",
"335.5 107.5 OFFCURVE",
"336 266 CURVE SMOOTH",
"336.5 437.5 OFFCURVE",
"286 505 OFFCURVE",
"208.5 505 CURVE SMOOTH"
);
}
);
width = 358;
}
);
leftMetricsKey = b;
rightKerningGroup = o;
rightMetricsKey = p;
unicode = 00FE;
},
{
color = 4;
glyphname = q;
lastChange = "2023-06-08 06:13:59 +0000";
layers = (
{
annotations = (
{
angle = 238.33392;
position = "{206, -23.5}";
type = Arrow;
},
{
position = "{74.5, -85}";
text = "!!!!!!!!!!!";
type = Text;
}
);
components = (
{
alignment = -1;
name = _part.bowl;
transform = "{-1, 0, 0, -1, 363, 500}";
},
{
alignment = -1;
name = _part.descender;
transform = "{-1, 0, 0, 1, 363, 0}";
}
);
layerId = "BEE1AFF0-4415-4363-825D-BBA98FF62E65";
width = 361;
},
{
associatedMasterId = "BEE1AFF0-4415-4363-825D-BBA98FF62E65";
backgroundImage = {
imagePath = "../civette-main/_bdc/q.jpeg";
locked = "1";
transform = "{3.50606, 0, 0, 3.50606, 0, -92}";
};
layerId = "DF5191D9-D2EE-498D-9D6E-5508A65A5857";
name = "14 avr. 22 à 09:20";
paths = (
{
closed = 1;
nodes = (
"394 500 LINE",
"334 500 LINE",
"301 400 LINE",
"301 -200 LINE",
"394 -200 LINE"
);
},
{
closed = 1;
nodes = (
"38.5 76.5 OFFCURVE",
"87 -19.5 OFFCURVE",
"191 -15 CURVE SMOOTH",
"257.5 -15 OFFCURVE",
"320.5 93.5 OFFCURVE",
"330 138.5 CURVE",
"299 162 LINE",
"246 75 OFFCURVE",
"228.5 69.5 OFFCURVE",
"198 68 CURVE SMOOTH",
"167.5 66.5 OFFCURVE",
"140.5 113 OFFCURVE",
"140.5 255.5 CURVE SMOOTH",
"140.5 376 OFFCURVE",
"174 440 OFFCURVE",
"216 440 CURVE SMOOTH",
"258 440 OFFCURVE",
"301.5 392.5 OFFCURVE",
"320.5 356 CURVE",
"357.5 387.5 LINE",
"309 426.5 OFFCURVE",
"299.5 504.5 OFFCURVE",
"212 504.5 CURVE SMOOTH",
"124.5 504.5 OFFCURVE",
"36.5 415.5 OFFCURVE",
"36.5 255.5 CURVE SMOOTH"
);
}
);
width = 600;
},
{
associatedMasterId = "BEE1AFF0-4415-4363-825D-BBA98FF62E65";
layerId = "2884F09E-532B-4752-830E-8B3F658DB4EB";
name = "14 avr. 22 à 09:24";
paths = (
{
closed = 1;
nodes = (
"375.5 500 LINE",
"315.5 500 LINE",
"282.5 400 LINE",
"282.5 -200 LINE",
"375.5 -200 LINE"
);
},
{
closed = 1;
nodes = (
"18 73.5 OFFCURVE",
"78.5 -10 OFFCURVE",
"163.5 -10 CURVE SMOOTH",
"232.5 -10 OFFCURVE",
"302.5 62.5 OFFCURVE",
"327.5 170.5 CURVE",
"288 184 LINE",
"267.5 121 OFFCURVE",
"216.5 70 OFFCURVE",
"179.5 68 CURVE SMOOTH",
"149 66.5 OFFCURVE",
"122 113 OFFCURVE",
"122 255.5 CURVE SMOOTH",
"122 376 OFFCURVE",
"155.5 440 OFFCURVE",
"197.5 440 CURVE SMOOTH",
"239.5 440 OFFCURVE",
"283 392.5 OFFCURVE",
"302 356 CURVE",
"339 387.5 LINE",
"311.5 440 OFFCURVE",
"281 504.5 OFFCURVE",
"193.5 504.5 CURVE SMOOTH",
"106 504.5 OFFCURVE",
"18 440.5 OFFCURVE",
"18 255.5 CURVE SMOOTH"
);
}
);
width = 411.5;
}
);
leftKerningGroup = o;
leftMetricsKey = o;
rightKerningGroup = n;
rightMetricsKey = n;
unicode = 0071;
},
{
color = 4;
glyphname = r;
lastChange = "2023-06-09 06:54:28 +0000";
layers = (
{
anchors = (
{
name = bottom;
position = "{88, 0}";
},
{
name = top;
position = "{143, 500}";
}
);
layerId = "BEE1AFF0-4415-4363-825D-BBA98FF62E65";
paths = (
{
closed = 1;
nodes = (
"136 0 LINE",
"136 400 LINE",
"104 500 LINE",
"36 500 LINE",
"36 0 LINE"
);
},
{
closed = 1;
nodes = (
"144 387.5 OFFCURVE",
"181.5 413 OFFCURVE",
"248 404.5 CURVE",
"258 509.5 LINE",
"174 505 OFFCURVE",
"122.5 446.5 OFFCURVE",
"103.5 336.5 CURVE",
"136 329.5 LINE"
);
}
);
width = 274;
}
);
leftKerningGroup = n;
leftMetricsKey = n;
rightKerningGroup = r;
unicode = 0072;
},
{
color = 4;
glyphname = s;
lastChange = "2023-06-09 07:19:09 +0000";
layers = (
{
anchors = (
{
name = bottom;
position = "{138.5, -5}";
},
{
name = top;
position = "{153.5, 505}";
}
);
guideLines = (
{
position = "{176, 505}";
}
);
layerId = "BEE1AFF0-4415-4363-825D-BBA98FF62E65";
paths = (
{
closed = 1;
nodes = (
"228 -5 OFFCURVE",
"277.5 56 OFFCURVE",
"277.5 125 CURVE SMOOTH",
"277.5 163 OFFCURVE",
"262.5 197.5 OFFCURVE",
"232.5 231.5 CURVE SMOOTH",
"155 323.5 LINE SMOOTH",
"139.5 341.5 OFFCURVE",
"121 362 OFFCURVE",
"121 385 CURVE SMOOTH",
"121 406.5 OFFCURVE",
"137.5 423.5 OFFCURVE",
"159 423.5 CURVE SMOOTH",
"181.5 423.5 OFFCURVE",
"208 404.5 OFFCURVE",
"221 360 CURVE",
"283 433.5 LINE",
"254.5 481.5 OFFCURVE",
"203 505 OFFCURVE",
"153.5 505 CURVE SMOOTH",
"86.5 505 OFFCURVE",
"23 465 OFFCURVE",
"23 385.5 CURVE SMOOTH",
"23 348.5 OFFCURVE",
"37 307.5 OFFCURVE",
"69 271 CURVE SMOOTH",
"134 197 LINE SMOOTH",
"157 170.5 OFFCURVE",
"178.5 142.5 OFFCURVE",
"178.5 119 CURVE SMOOTH",
"178.5 97 OFFCURVE",
"159.5 80 OFFCURVE",
"133.5 80 CURVE SMOOTH",
"98.5 80 OFFCURVE",
"77.5 110 OFFCURVE",
"64.5 138 CURVE",
"6 72 LINE",
"32 20 OFFCURVE",
"81 -5 OFFCURVE",
"138.5 -5 CURVE SMOOTH"
);
}
);
width = 293;
},
{
associatedMasterId = "BEE1AFF0-4415-4363-825D-BBA98FF62E65";
layerId = "FE4B0550-32BE-4AC9-B674-D8872F3D51A3";
name = "13 avr. 22 à 17:04";
paths = (
{
closed = 1;
nodes = (
"112.5 21 OFFCURVE",
"146.5 -12 OFFCURVE",
"208 -12 CURVE SMOOTH",
"282.5 -12 OFFCURVE",
"327 36.5 OFFCURVE",
"327 119 CURVE SMOOTH",
"327 167.5 OFFCURVE",
"305 216.5 OFFCURVE",
"245.5 279.5 CURVE SMOOTH",
"228 298.5 LINE SMOOTH",
"190.5 338 OFFCURVE",
"172.5 373.5 OFFCURVE",
"172.5 404 CURVE SMOOTH",
"172.5 433.5 OFFCURVE",
"194.5 448 OFFCURVE",
"217 448 CURVE SMOOTH",
"239 448 OFFCURVE",
"261 431 OFFCURVE",
"271.5 396 CURVE",
"331.5 446 LINE",
"302 495.5 OFFCURVE",
"258.5 522.5 OFFCURVE",
"217 522.5 CURVE SMOOTH",
"145.5 522.5 OFFCURVE",
"98 472.5 OFFCURVE",
"98 399.5 CURVE SMOOTH",
"98 346.5 OFFCURVE",
"122 291 OFFCURVE",
"171 239 CURVE SMOOTH",
"188.5 220.5 LINE SMOOTH",
"218.5 188 OFFCURVE",
"249 153 OFFCURVE",
"249 113.5 CURVE SMOOTH",
"249 83.5 OFFCURVE",
"231.5 63 OFFCURVE",
"206.5 63 CURVE SMOOTH",
"181 63 OFFCURVE",
"160.5 81 OFFCURVE",
"151 111 CURVE",
"91 61 LINE"
);
}
);
width = 600;
},
{
associatedMasterId = "BEE1AFF0-4415-4363-825D-BBA98FF62E65";
guideLines = (
{
position = "{224.5, 510}";
}
);
layerId = "4D9FD7AF-F401-4E7D-8913-6C8AC8A57315";
name = "4 mai 22 à 18:15";
paths = (
{
closed = 1;
nodes = (
"42 13 OFFCURVE",
"89.5 -10 OFFCURVE",
"136.5 -10 CURVE SMOOTH",
"224.5 -10 OFFCURVE",
"267 57.5 OFFCURVE",
"267 127 CURVE SMOOTH",
"267 165 OFFCURVE",
"253 204.5 OFFCURVE",
"227 233.5 CURVE SMOOTH",
"168 299 LINE SMOOTH",
"139.5 330.5 OFFCURVE",
"115.5 356.5 OFFCURVE",
"115.5 386.5 CURVE SMOOTH",
"115.5 416 OFFCURVE",
"134 439 OFFCURVE",
"157 439 CURVE SMOOTH",
"178.5 439 OFFCURVE",
"200 412.5 OFFCURVE",
"212 379 CURVE",
"269 433.5 LINE",
"239.5 483 OFFCURVE",
"193.5 510 OFFCURVE",
"152 510 CURVE SMOOTH",
"80.5 510 OFFCURVE",
"22.5 455 OFFCURVE",
"22.5 382 CURVE SMOOTH",
"22.5 329 OFFCURVE",
"47.5 292 OFFCURVE",
"72.5 264.5 CURVE SMOOTH",
"134.5 196 LINE SMOOTH",
"169.5 157 OFFCURVE",
"177 140.5 OFFCURVE",
"177 107.5 CURVE SMOOTH",
"177 81.5 OFFCURVE",
"156.5 61 OFFCURVE",
"131.5 61 CURVE SMOOTH",
"103 61 OFFCURVE",
"81.5 84 OFFCURVE",
"68.5 112 CURVE",
"16 61 LINE"
);
}
);
width = 285;
},
{
associatedMasterId = "BEE1AFF0-4415-4363-825D-BBA98FF62E65";
guideLines = (
{
position = "{224.5, 510}";
}
);
layerId = "89122C58-49A7-40E6-A882-88CBF30580E7";
name = "11 mai 22 à 16:12";
paths = (
{
closed = 1;
nodes = (
"42 13 OFFCURVE",
"89.5 -10 OFFCURVE",
"136.5 -10 CURVE SMOOTH",
"219.5 -10 OFFCURVE",
"268 56.5 OFFCURVE",
"268 127.5 CURVE",
"268 164.5 OFFCURVE",
"255 202.5 OFFCURVE",
"227 233.5 CURVE SMOOTH",
"168 299 LINE SMOOTH",
"139.5 330.5 OFFCURVE",
"112.5 362 OFFCURVE",
"112.5 392 CURVE SMOOTH",
"112.5 421.5 OFFCURVE",
"132 439 OFFCURVE",
"157 439 CURVE SMOOTH",
"178.5 439 OFFCURVE",
"200 412.5 OFFCURVE",
"212 379 CURVE",
"269 433.5 LINE",
"239.5 483 OFFCURVE",
"193.5 510 OFFCURVE",
"152 510 CURVE SMOOTH",
"80.5 510 OFFCURVE",
"21.5 455 OFFCURVE",
"21.5 382 CURVE SMOOTH",
"21.5 329 OFFCURVE",
"47.5 292 OFFCURVE",
"72.5 264.5 CURVE SMOOTH",
"134.5 196 LINE SMOOTH",
"167 160 OFFCURVE",
"177 138.5 OFFCURVE",
"177 107.5 CURVE SMOOTH",
"177 81.5 OFFCURVE",
"157 61 OFFCURVE",
"131.5 61 CURVE SMOOTH",
"103 61 OFFCURVE",
"81.5 84 OFFCURVE",
"68.5 112 CURVE",
"16 61 LINE"
);
}
);
width = 285;
},
{
associatedMasterId = "BEE1AFF0-4415-4363-825D-BBA98FF62E65";
guideLines = (
{
position = "{224.5, 510}";
}
);
layerId = "24D9C057-76EE-4B52-893F-676FD1B3B1C0";
name = "11 mai 22 à 16:23";
paths = (
{
closed = 1;
nodes = (
"42 13 OFFCURVE",
"89.5 -10 OFFCURVE",
"136.5 -10 CURVE SMOOTH",
"223.5 -10 OFFCURVE",
"267 57.5 OFFCURVE",
"267 127 CURVE SMOOTH",
"267 165.5 OFFCURVE",
"253 204.5 OFFCURVE",
"227 233.5 CURVE SMOOTH",
"168 299 LINE SMOOTH",
"139.5 330.5 OFFCURVE",
"112.5 362 OFFCURVE",
"112.5 392 CURVE SMOOTH",
"112.5 421.5 OFFCURVE",
"132 439 OFFCURVE",
"157 439 CURVE SMOOTH",
"178.5 439 OFFCURVE",
"200 412.5 OFFCURVE",
"212 379 CURVE",
"269 433.5 LINE",
"239.5 483 OFFCURVE",
"193.5 510 OFFCURVE",
"152 510 CURVE SMOOTH",
"80.5 510 OFFCURVE",
"21.5 455 OFFCURVE",
"21.5 382 CURVE SMOOTH",
"21.5 329 OFFCURVE",
"47.5 292 OFFCURVE",
"72.5 264.5 CURVE SMOOTH",
"134.5 196 LINE SMOOTH",
"167 160 OFFCURVE",
"177 138.5 OFFCURVE",
"177 107.5 CURVE SMOOTH",
"177 81.5 OFFCURVE",
"157 61 OFFCURVE",
"131.5 61 CURVE SMOOTH",
"103 61 OFFCURVE",
"81.5 84 OFFCURVE",
"68.5 112 CURVE",
"16 61 LINE"
);
}
);
width = 285;
},
{
associatedMasterId = "BEE1AFF0-4415-4363-825D-BBA98FF62E65";
guideLines = (
{
position = "{224.5, 510}";
},
{
angle = 90;
position = "{267, 127}";
}
);
layerId = "876D12FE-F447-4498-8393-16DCC7E1ABE1";
name = "7 sept. 22 à 10:54";
paths = (
{
closed = 1;
nodes = (
"42 13 OFFCURVE",
"89.5 -10 OFFCURVE",
"136.5 -10 CURVE SMOOTH",
"223.5 -10 OFFCURVE",
"267 57.5 OFFCURVE",
"267 127 CURVE SMOOTH",
"267 165.5 OFFCURVE",
"253 204.5 OFFCURVE",
"227 233.5 CURVE SMOOTH",
"168 299 LINE SMOOTH",
"139.5 330.5 OFFCURVE",
"110 362 OFFCURVE",
"110 392 CURVE SMOOTH",
"110 421.5 OFFCURVE",
"134 439 OFFCURVE",
"159 439 CURVE SMOOTH",
"180.5 439 OFFCURVE",
"202 412.5 OFFCURVE",
"214 379 CURVE",
"271 433.5 LINE",
"241.5 483 OFFCURVE",
"195.5 510 OFFCURVE",
"154 510 CURVE SMOOTH",
"82.5 510 OFFCURVE",
"21.5 455 OFFCURVE",
"21.5 382 CURVE SMOOTH",
"21.5 329 OFFCURVE",
"47.5 292 OFFCURVE",
"72.5 264.5 CURVE SMOOTH",
"134.5 196 LINE SMOOTH",
"167 160 OFFCURVE",
"177 138.5 OFFCURVE",
"177 107.5 CURVE SMOOTH",
"177 81.5 OFFCURVE",
"157 61 OFFCURVE",
"131.5 61 CURVE SMOOTH",
"103 61 OFFCURVE",
"81.5 84 OFFCURVE",
"68.5 112 CURVE",
"16 61 LINE"
);
}
);
width = 287;
},
{
anchors = (
{
name = bottom;
position = "{136.5, -5}";
},
{
name = top;
position = "{159, 505}";
}
);
associatedMasterId = "BEE1AFF0-4415-4363-825D-BBA98FF62E65";
guideLines = (
{
position = "{229.5, 510}";
}
);
layerId = "BBA0D2DB-CC57-430E-8EEB-F0A8B223FD38";
name = "7 juin 23 à 15:42";
paths = (
{
closed = 1;
nodes = (
"222 -5 OFFCURVE",
"270 57.5 OFFCURVE",
"270 129 CURVE SMOOTH",
"270 167.5 OFFCURVE",
"256.5 200 OFFCURVE",
"228 232.5 CURVE SMOOTH",
"150.5 322 LINE SMOOTH",
"130 345.5 OFFCURVE",
"118.5 362 OFFCURVE",
"118.5 381 CURVE SMOOTH",
"118.5 408.5 OFFCURVE",
"137.5 425 OFFCURVE",
"159 425 CURVE SMOOTH",
"179.5 425 OFFCURVE",
"203 409 OFFCURVE",
"219 360 CURVE",
"276 433.5 LINE",
"246.5 483 OFFCURVE",
"200.5 505 OFFCURVE",
"159 505 CURVE SMOOTH",
"87.5 505 OFFCURVE",
"25.5 455 OFFCURVE",
"25.5 382 CURVE SMOOTH",
"25.5 334 OFFCURVE",
"52 293 OFFCURVE",
"71.5 270.5 CURVE SMOOTH",
"136.5 196.5 LINE SMOOTH",
"169.5 159 OFFCURVE",
"176 139.5 OFFCURVE",
"176 123 CURVE SMOOTH",
"176 97 OFFCURVE",
"159 80 OFFCURVE",
"131.5 80 CURVE SMOOTH",
"96.5 80 OFFCURVE",
"75.5 108 OFFCURVE",
"62.5 136 CURVE",
"10 71 LINE",
"36 18 OFFCURVE",
"84.5 -5 OFFCURVE",
"136.5 -5 CURVE SMOOTH"
);
}
);
width = 292;
},
{
anchors = (
{
name = bottom;
position = "{136.5, -5}";
},
{
name = top;
position = "{151.5, 505}";
}
);
associatedMasterId = "BEE1AFF0-4415-4363-825D-BBA98FF62E65";
guideLines = (
{
position = "{174, 505}";
}
);
layerId = "72D2D548-1325-4B41-B162-5FD0EBEB07F2";
name = "8 juin 23 à 08:15";
paths = (
{
closed = 1;
nodes = (
"226 -5 OFFCURVE",
"275.5 56 OFFCURVE",
"275.5 125 CURVE SMOOTH",
"275.5 161.5 OFFCURVE",
"261 200 OFFCURVE",
"232.5 232.5 CURVE SMOOTH",
"155 322 LINE SMOOTH",
"139.5 340 OFFCURVE",
"119 358.5 OFFCURVE",
"119 382.5 CURVE SMOOTH",
"119 408 OFFCURVE",
"136 423.5 OFFCURVE",
"157 423.5 CURVE SMOOTH",
"179.5 423.5 OFFCURVE",
"206 404.5 OFFCURVE",
"219 360 CURVE",
"281 433.5 LINE",
"252.5 481.5 OFFCURVE",
"201 505 OFFCURVE",
"151.5 505 CURVE SMOOTH",
"84.5 505 OFFCURVE",
"21 462.5 OFFCURVE",
"21 383 CURVE SMOOTH",
"21 346 OFFCURVE",
"36 305.5 OFFCURVE",
"66.5 270.5 CURVE SMOOTH",
"131.5 196.5 LINE SMOOTH",
"154.5 170 OFFCURVE",
"176.5 142.5 OFFCURVE",
"176.5 119 CURVE SMOOTH",
"176.5 97.5 OFFCURVE",
"158 80 OFFCURVE",
"131.5 80 CURVE SMOOTH",
"96.5 80 OFFCURVE",
"75.5 110 OFFCURVE",
"62.5 138 CURVE",
"4 72 LINE",
"30 20 OFFCURVE",
"79 -5 OFFCURVE",
"136.5 -5 CURVE SMOOTH"
);
}
);
width = 292;
}
);
leftKerningGroup = s;
rightKerningGroup = s;
unicode = 0073;
},
{
color = 4;
glyphname = germandbls;
lastChange = "2023-06-07 09:14:42 +0000";
layers = (
{
layerId = "BEE1AFF0-4415-4363-825D-BBA98FF62E65";
paths = (
{
closed = 1;
nodes = (
"364.5 0 OFFCURVE",
"410 84.5 OFFCURVE",
"410 176 CURVE SMOOTH",
"410 305 OFFCURVE",
"321 336.5 OFFCURVE",
"321 424 CURVE SMOOTH",
"321 486 OFFCURVE",
"365.5 536.5 OFFCURVE",
"365.5 594 CURVE SMOOTH",
"365.5 658.5 OFFCURVE",
"309 700 OFFCURVE",
"231.5 700 CURVE SMOOTH",
"149 700 OFFCURVE",
"75.5 652.5 OFFCURVE",
"75.5 552 CURVE",
"171.5 547 LINE",
"171.5 596.5 OFFCURVE",
"197 623 OFFCURVE",
"225.5 623 CURVE SMOOTH",
"249.5 623 OFFCURVE",
"270.5 604.5 OFFCURVE",
"270.5 568 CURVE SMOOTH",
"270.5 516.5 OFFCURVE",
"228 483.5 OFFCURVE",
"228 418.5 CURVE SMOOTH",
"228 328.5 OFFCURVE",
"310 278.5 OFFCURVE",
"310 185 CURVE SMOOTH",
"310 127 OFFCURVE",
"278.5 95 OFFCURVE",
"217.5 95 CURVE",
"217.5 0 LINE"
);
},
{
closed = 1;
nodes = (
"171.5 0 LINE",
"171.5 547 LINE",
"75.5 552 LINE",
"75.5 0 LINE"
);
},
{
closed = 1;
nodes = (
"138 420 LINE",
"138 500 LINE",
"16 500 LINE",
"16 420 LINE"
);
}
);
width = 436;
}
);
leftMetricsKey = t;
unicode = 00DF;
},
{
color = 4;
glyphname = t;
lastChange = "2023-06-09 07:24:31 +0000";
layers = (
{
anchors = (
{
name = bottom;
position = "{126, 0}";
},
{
name = center;
position = "{126, 250}";
},
{
name = top;
position = "{126, 621}";
},
{
name = topright;
position = "{275, 800}";
}
);
guideLines = (
{
position = "{172, 631}";
}
);
layerId = "BEE1AFF0-4415-4363-825D-BBA98FF62E65";
paths = (
{
closed = 1;
nodes = (
"176 0 LINE",
"176 631 LINE",
"76 600 LINE",
"76 0 LINE"
);
},
{
closed = 1;
nodes = (
"262 420 LINE",
"262 500 LINE",
"16 500 LINE",
"16 420 LINE"
);
}
);
width = 278;
},
{
associatedMasterId = "BEE1AFF0-4415-4363-825D-BBA98FF62E65";
backgroundImage = {
imagePath = "../civette-main/_bdc/t.jpeg";
locked = "1";
transform = "{3.56864, 0, 0, 3.56864, -6, -36.5}";
};
layerId = "F9AB3265-AF63-455B-9152-66CE86E3A8D8";
name = "3 sept. 22 à 12:07";
paths = (
{
closed = 1;
nodes = (
"76 600 LINE",
"76 127 LINE",
"169 127 LINE",
"169 630 LINE"
);
},
{
closed = 1;
nodes = (
"303.5 415 LINE",
"303.5 500 LINE",
"16 500 LINE",
"16 415 LINE"
);
},
{
closed = 1;
nodes = (
"76 110 LINE SMOOTH",
"76 27 OFFCURVE",
"130.5 -9.5 OFFCURVE",
"196.5 -9.5 CURVE SMOOTH",
"228 -9.5 OFFCURVE",
"261.5 -1.5 OFFCURVE",
"293.5 14 CURVE",
"269 90.5 LINE",
"196.5 62 OFFCURVE",
"168.5 76.5 OFFCURVE",
"168.5 148 CURVE SMOOTH",
"169 450 LINE",
"76 450 LINE"
);
}
);
width = 348;
}
);
leftKerningGroup = t;
rightKerningGroup = t;
unicode = 0074;
},
{
color = 4;
glyphname = u;
lastChange = "2023-06-09 07:35:55 +0000";
layers = (
{
anchors = (
{
name = bottom;
position = "{181, 0}";
},
{
name = ogonek;
position = "{326, 0}";
},
{
name = top;
position = "{181, 500}";
},
{
name = topright;
position = "{342, 500}";
}
);
layerId = "BEE1AFF0-4415-4363-825D-BBA98FF62E65";
paths = (
{
closed = 1;
nodes = (
"190 -5 OFFCURVE",
"224 30 OFFCURVE",
"256 117.5 CURVE",
"231 173 LINE",
"219.5 115.5 OFFCURVE",
"189 75 OFFCURVE",
"161 75 CURVE SMOOTH",
"143.5 75 OFFCURVE",
"136 91 OFFCURVE",
"136 127.5 CURVE SMOOTH",
"136 500 LINE",
"36 500 LINE",
"36 111.5 LINE SMOOTH",
"36 40 OFFCURVE",
"70.5 -5 OFFCURVE",
"134.5 -5 CURVE SMOOTH"
);
},
{
closed = 1;
nodes = (
"326 0 LINE",
"326 500 LINE",
"226 500 LINE",
"226 150 LINE",
"259 0 LINE"
);
}
);
width = 362;
}
);
leftKerningGroup = u;
leftMetricsKey = n;
rightKerningGroup = n;
rightMetricsKey = n;
unicode = 0075;
},
{
color = 4;
glyphname = v;
lastChange = "2023-06-09 07:13:36 +0000";
layers = (
{
guideLines = (
{
position = "{237, 86}";
}
);
layerId = "BEE1AFF0-4415-4363-825D-BBA98FF62E65";
paths = (
{
closed = 1;
nodes = (
"224 0 LINE",
"332 500 LINE",
"227 500 LINE",
"162 22.5 LINE",
"179.5 21.5 LINE",
"111 500 LINE",
"6 500 LINE",
"112 0 LINE"
);
}
);
width = 338;
}
);
leftKerningGroup = v;
rightKerningGroup = v;
unicode = 0076;
},
{
color = 4;
glyphname = w;
lastChange = "2023-06-09 07:18:26 +0000";
layers = (
{
anchors = (
{
name = bottom;
position = "{245, 0}";
},
{
name = top;
position = "{245, 500}";
}
);
layerId = "BEE1AFF0-4415-4363-825D-BBA98FF62E65";
paths = (
{
closed = 1;
nodes = (
"196.5 0 LINE",
"268 500 LINE",
"209 500 LINE",
"143 86 LINE",
"111 500 LINE",
"6 500 LINE",
"90.5 0 LINE"
);
},
{
closed = 1;
nodes = (
"391.5 0 LINE",
"484 500 LINE",
"379 500 LINE",
"344 86 LINE",
"283 500 LINE",
"224 500 LINE",
"285.5 0 LINE"
);
}
);
width = 490;
},
{
associatedMasterId = "BEE1AFF0-4415-4363-825D-BBA98FF62E65";
layerId = "253CD92D-829E-4115-8A5C-50CFE9D329AF";
name = "3 sept. 22 à 14:30";
paths = (
{
closed = 1;
nodes = (
"218 0 LINE",
"305 500 LINE",
"246 500 LINE",
"165 86 LINE",
"151.5 258.5 LINE",
"110 500 LINE",
"10 500 LINE",
"120 0 LINE"
);
},
{
closed = 1;
nodes = (
"536 500 LINE",
"436 500 LINE",
"394.5 258.5 LINE",
"381 86 LINE",
"305 500 LINE",
"246 500 LINE",
"328 0 LINE",
"426 0 LINE"
);
}
);
width = 600;
}
);
leftKerningGroup = v;
leftMetricsKey = v;
rightKerningGroup = v;
rightMetricsKey = v;
unicode = 0077;
},
{
color = 4;
glyphname = x;
lastChange = "2023-06-09 07:19:33 +0000";
layers = (
{
layerId = "BEE1AFF0-4415-4363-825D-BBA98FF62E65";
paths = (
{
closed = 1;
nodes = (
"225.5 210 LINE",
"326.5 500 LINE",
"227.5 500 LINE",
"166.5 256 LINE",
"174 256 LINE",
"111 500 LINE",
"6 500 LINE",
"115 210 LINE"
);
},
{
closed = 1;
nodes = (
"112.5 0 LINE",
"173.5 244 LINE",
"166 244 LINE",
"229 0 LINE",
"334 0 LINE",
"225 290 LINE",
"114.5 290 LINE",
"13.5 0 LINE"
);
}
);
width = 340;
},
{
associatedMasterId = "BEE1AFF0-4415-4363-825D-BBA98FF62E65";
layerId = "EF84F012-DEE2-4B89-94E8-09879FC4E055";
name = "25 avr. 23 à 09:47";
paths = (
{
closed = 1;
nodes = (
"108 290 LINE",
"6 0 LINE",
"105 0 LINE",
"166 244 LINE",
"158 244 LINE",
"221 0 LINE",
"326 0 LINE",
"216 290 LINE"
);
},
{
closed = 1;
nodes = (
"224 210 LINE",
"326 500 LINE",
"227 500 LINE",
"166 256 LINE",
"174 256 LINE",
"111 500 LINE",
"6 500 LINE",
"116 210 LINE"
);
}
);
width = 332;
}
);
leftKerningGroup = x;
rightKerningGroup = x;
unicode = 0078;
},
{
color = 4;
glyphname = y;
lastChange = "2023-06-09 07:35:41 +0000";
layers = (
{
anchors = (
{
name = bottom;
position = "{169, 0}";
},
{
name = top;
position = "{169, 500}";
}
);
layerId = "BEE1AFF0-4415-4363-825D-BBA98FF62E65";
paths = (
{
closed = 1;
nodes = (
"179 -200 LINE",
"332 500 LINE",
"227 500 LINE",
"168.5 101.5 LINE",
"111 500 LINE",
"6 500 LINE",
"114.5 0 LINE",
"142 0 LINE",
"83 -200 LINE"
);
}
);
width = 338;
},
{
associatedMasterId = "BEE1AFF0-4415-4363-825D-BBA98FF62E65";
backgroundImage = {
imagePath = "../civette-main/_bdc/y.jpeg";
locked = "1";
transform = "{3.5528, 0, 0, 3.5528, 0, -99.5}";
};
layerId = "C5651831-E7F0-4078-A03C-D4E8E104F535";
name = "31 mars 22 à 18:11";
paths = (
{
closed = 1;
nodes = (
"407.5 500 LINE",
"306 500 LINE",
"207.5 -32 LINE",
"258 -86 LINE"
);
},
{
closed = 1;
nodes = (
"258 -86 LINE",
"207.5 -32 LINE",
"134.5 -199.5 LINE",
"232.5 -203 LINE"
);
},
{
closed = 1;
nodes = (
"247.5 -32 LINE",
"149 500 LINE",
"47.5 500 LINE",
"197 -86 LINE"
);
}
);
width = 600;
},
{
associatedMasterId = "BEE1AFF0-4415-4363-825D-BBA98FF62E65";
backgroundImage = {
imagePath = "../civette-main/_bdc/y.jpeg";
locked = "1";
transform = "{3.5528, 0, 0, 3.5528, -51, -99.5}";
};
layerId = "F59653EA-345F-4DD4-8580-3A200C8CCBD6";
name = "7 juin 22 à 15:27";
paths = (
{
closed = 1;
nodes = (
"326.5 500 LINE",
"232.5 500 LINE",
"151.5 12.5 LINE",
"145 12.5 LINE",
"103.5 -200 LINE",
"184.5 -200 LINE"
);
},
{
closed = 1;
nodes = (
"194.5 -86 LINE",
"115.5 500 LINE",
"15.5 500 LINE",
"146 -86 LINE"
);
}
);
width = 348;
},
{
anchors = (
{
name = bottom;
position = "{169, 0}";
},
{
name = top;
position = "{169, 500}";
}
);
associatedMasterId = "BEE1AFF0-4415-4363-825D-BBA98FF62E65";
layerId = "E37BEEAB-EF8F-44AE-9EB2-FF2EEA40CD77";
name = "27 oct. 22 à 16:06";
paths = (
{
closed = 1;
nodes = (
"332 500 LINE",
"227 500 LINE",
"166 86 LINE",
"152.5 258.5 LINE",
"111 500 LINE",
"6 500 LINE",
"120 0 LINE",
"142 0 LINE",
"98 -200 LINE",
"179 -200 LINE"
);
}
);
width = 338;
}
);
leftKerningGroup = v;
leftMetricsKey = v;
rightKerningGroup = v;
rightMetricsKey = v;
unicode = 0079;
},
{
color = 4;
glyphname = z;
lastChange = "2023-06-09 06:58:45 +0000";
layers = (
{
anchors = (
{
name = bottom;
position = "{163, 0}";
},
{
name = center;
position = "{163, 250}";
},
{
name = top;
position = "{163, 500}";
}
);
layerId = "BEE1AFF0-4415-4363-825D-BBA98FF62E65";
paths = (
{
closed = 1;
nodes = (
"116 0 LINE",
"295 500 LINE",
"189 500 LINE",
"10 0 LINE"
);
},
{
closed = 1;
nodes = (
"280 0 LINE",
"280 85 LINE",
"75 85 LINE",
"75 0 LINE"
);
},
{
closed = 1;
nodes = (
"211 415 LINE",
"211 500 LINE",
"20 500 LINE",
"20 415 LINE"
);
}
);
width = 305;
},
{
associatedMasterId = "BEE1AFF0-4415-4363-825D-BBA98FF62E65";
layerId = "8501169F-4236-4893-B3AC-4899BC8417D9";
name = "7 sept. 22 à 10:36";
paths = (
{
closed = 1;
nodes = (
"111 0 LINE",
"315 500 LINE",
"214 500 LINE",
"10 0 LINE"
);
},
{
closed = 1;
nodes = (
"300 0 LINE",
"300 85 LINE",
"75 85 LINE",
"75 0 LINE"
);
},
{
closed = 1;
nodes = (
"231 415 LINE",
"231 500 LINE",
"20 500 LINE",
"20 415 LINE"
);
}
);
width = 325;
}
);
leftKerningGroup = z;
rightKerningGroup = z;
unicode = 007A;
},
{
color = 4;
glyphname = t.ss01;
lastChange = "2023-06-08 06:57:16 +0000";
layers = (
{
anchors = (
{
name = bottom;
position = "{190, 0}";
},
{
name = top;
position = "{126, 621}";
}
);
layerId = "BEE1AFF0-4415-4363-825D-BBA98FF62E65";
paths = (
{
closed = 1;
nodes = (
"288 420 LINE",
"288 500 LINE",
"16 500 LINE",
"16 420 LINE"
);
},
{
closed = 1;
nodes = (
"176 360 LINE",
"176 631 LINE",
"76 600 LINE",
"76 360 LINE"
);
},
{
closed = 1;
nodes = (
"76 114.5 LINE SMOOTH",
"76 27 OFFCURVE",
"120 -10 OFFCURVE",
"190 -10 CURVE SMOOTH",
"220 -10 OFFCURVE",
"254.5 -3 OFFCURVE",
"292.5 9.5 CURVE",
"258.5 79.5 LINE",
"242 73.5 OFFCURVE",
"228 70 OFFCURVE",
"217 70 CURVE SMOOTH",
"187.5 70 OFFCURVE",
"176 92 OFFCURVE",
"176 140 CURVE SMOOTH",
"176 399.5 LINE",
"76 399.5 LINE"
);
}
);
width = 308.5;
},
{
associatedMasterId = "BEE1AFF0-4415-4363-825D-BBA98FF62E65";
backgroundImage = {
imagePath = "../civette-main/_bdc/t.jpeg";
locked = "1";
transform = "{3.56864, 0, 0, 3.56864, -6, -36.5}";
};
layerId = "F9AB3265-AF63-455B-9152-66CE86E3A8D8";
name = "3 sept. 22 à 12:07";
paths = (
{
closed = 1;
nodes = (
"76 600 LINE",
"76 127 LINE",
"169 127 LINE",
"169 630 LINE"
);
},
{
closed = 1;
nodes = (
"303.5 415 LINE",
"303.5 500 LINE",
"16 500 LINE",
"16 415 LINE"
);
},
{
closed = 1;
nodes = (
"76 110 LINE SMOOTH",
"76 27 OFFCURVE",
"130.5 -9.5 OFFCURVE",
"196.5 -9.5 CURVE SMOOTH",
"228 -9.5 OFFCURVE",
"261.5 -1.5 OFFCURVE",
"293.5 14 CURVE",
"269 90.5 LINE",
"196.5 62 OFFCURVE",
"168.5 76.5 OFFCURVE",
"168.5 148 CURVE SMOOTH",
"169 450 LINE",
"76 450 LINE"
);
}
);
width = 348;
},
{
associatedMasterId = "BEE1AFF0-4415-4363-825D-BBA98FF62E65";
layerId = "6E1D64A0-E01B-4D3C-9E9C-091E597C5AF7";
name = "5 juin 23 à 19:09";
paths = (
{
closed = 1;
nodes = (
"294 415 LINE",
"294 500 LINE",
"16 499.5 LINE",
"16 414.5 LINE"
);
},
{
closed = 1;
nodes = (
"82 119.5 LINE SMOOTH",
"82 36.5 OFFCURVE",
"145.5 -5 OFFCURVE",
"216.5 -5 CURVE SMOOTH",
"244.5 -5 OFFCURVE",
"268.5 1.5 OFFCURVE",
"300 15 CURVE",
"276 96 LINE",
"211 66.5 OFFCURVE",
"178 85.5 OFFCURVE",
"178 153 CURVE SMOOTH",
"178 304.5 LINE",
"82 304.5 LINE"
);
},
{
closed = 1;
nodes = (
"82 600 LINE",
"82 200 LINE",
"178 200 LINE",
"178 631 LINE"
);
}
);
width = 330;
}
);
leftKerningGroup = t;
rightKerningGroup = talt;
},
{
color = 4;
glyphname = t.ss02;
lastChange = "2023-06-08 06:57:29 +0000";
layers = (
{
anchors = (
{
name = bottom;
position = "{152, 0}";
},
{
name = top;
position = "{88, 621}";
}
);
layerId = "BEE1AFF0-4415-4363-825D-BBA98FF62E65";
paths = (
{
closed = 1;
nodes = (
"250 420 LINE",
"250 500 LINE",
"78 500 LINE",
"78 420 LINE"
);
},
{
closed = 1;
nodes = (
"138 360 LINE",
"138 631 LINE",
"38 600 LINE",
"38 360 LINE"
);
},
{
closed = 1;
nodes = (
"38 114.5 LINE SMOOTH",
"38 27 OFFCURVE",
"82 -10 OFFCURVE",
"152 -10 CURVE SMOOTH",
"182 -10 OFFCURVE",
"216.5 -3 OFFCURVE",
"254.5 9.5 CURVE",
"220.5 79.5 LINE",
"204 73.5 OFFCURVE",
"190 70 OFFCURVE",
"179 70 CURVE SMOOTH",
"149.5 70 OFFCURVE",
"138 92 OFFCURVE",
"138 140 CURVE SMOOTH",
"138 399.5 LINE",
"38 399.5 LINE"
);
}
);
width = 270.5;
},
{
associatedMasterId = "BEE1AFF0-4415-4363-825D-BBA98FF62E65";
backgroundImage = {
imagePath = "../civette-main/_bdc/t.jpeg";
locked = "1";
transform = "{3.56864, 0, 0, 3.56864, -6, -36.5}";
};
layerId = "F9AB3265-AF63-455B-9152-66CE86E3A8D8";
name = "3 sept. 22 à 12:07";
paths = (
{
closed = 1;
nodes = (
"76 600 LINE",
"76 127 LINE",
"169 127 LINE",
"169 630 LINE"
);
},
{
closed = 1;
nodes = (
"303.5 415 LINE",
"303.5 500 LINE",
"16 500 LINE",
"16 415 LINE"
);
},
{
closed = 1;
nodes = (
"76 110 LINE SMOOTH",
"76 27 OFFCURVE",
"130.5 -9.5 OFFCURVE",
"196.5 -9.5 CURVE SMOOTH",
"228 -9.5 OFFCURVE",
"261.5 -1.5 OFFCURVE",
"293.5 14 CURVE",
"269 90.5 LINE",
"196.5 62 OFFCURVE",
"168.5 76.5 OFFCURVE",
"168.5 148 CURVE SMOOTH",
"169 450 LINE",
"76 450 LINE"
);
}
);
width = 348;
},
{
anchors = (
{
name = bottom;
position = "{154, 0}";
},
{
name = top;
position = "{88, 621}";
}
);
associatedMasterId = "BEE1AFF0-4415-4363-825D-BBA98FF62E65";
layerId = "4DF9B9C0-6253-41AE-8295-27A1BBCF0CB1";
name = "8 juin 23 à 08:57";
paths = (
{
closed = 1;
nodes = (
"136 200 LINE",
"136 631 LINE",
"40 600 LINE",
"40 200 LINE"
);
},
{
closed = 1;
nodes = (
"252 420 LINE",
"252 500 LINE",
"60 500 LINE",
"60 420 LINE"
);
},
{
closed = 1;
nodes = (
"184.5 -10 OFFCURVE",
"219.5 -3 OFFCURVE",
"258 10 CURVE",
"198 131.5 LINE",
"267.5 111.5 LINE",
"227 91 OFFCURVE",
"197.5 80 OFFCURVE",
"177 80 CURVE SMOOTH",
"147.5 80 OFFCURVE",
"136 102 OFFCURVE",
"136 150 CURVE SMOOTH",
"136 349.5 LINE",
"40 349.5 LINE",
"40 114.5 LINE SMOOTH",
"40 27 OFFCURVE",
"84 -10 OFFCURVE",
"154 -10 CURVE SMOOTH"
);
}
);
width = 274;
}
);
leftKerningGroup = t;
leftMetricsKey = h;
rightKerningGroup = talt;
},
{
color = 4;
glyphname = f_f_i.liga;
lastChange = "2023-06-08 10:02:06 +0000";
layers = (
{
components = (
{
name = i;
transform = "{1, 0, 0, 1, 535.5, 0}";
},
{
alignment = -1;
name = f;
}
);
layerId = "BEE1AFF0-4415-4363-825D-BBA98FF62E65";
paths = (
{
closed = 1;
nodes = (
"426 0.5 LINE",
"426 560 LINE SMOOTH",
"426 608 OFFCURVE",
"437.5 630 OFFCURVE",
"467 630 CURVE SMOOTH",
"478 630 OFFCURVE",
"492 626.5 OFFCURVE",
"508.5 620.5 CURVE",
"542.5 690.5 LINE",
"504.5 703 OFFCURVE",
"470 710 OFFCURVE",
"440 710 CURVE SMOOTH",
"370 710 OFFCURVE",
"326 673 OFFCURVE",
"326 585.5 CURVE SMOOTH",
"326 0.5 LINE"
);
},
{
closed = 1;
nodes = (
"580 420 LINE",
"580 500 LINE",
"266 500 LINE",
"266 420 LINE"
);
}
);
width = 711.5;
}
);
leftMetricsKey = f;
rightMetricsKey = i;
},
{
color = 4;
glyphname = f_i.liga;
lastChange = "2023-06-08 10:01:44 +0000";
layers = (
{
components = (
{
alignment = -1;
name = i;
transform = "{1, 0, 0, 1, 286, 0}";
},
{
alignment = -1;
name = f;
}
);
layerId = "BEE1AFF0-4415-4363-825D-BBA98FF62E65";
paths = (
{
closed = 1;
nodes = (
"378.5 420 LINE",
"378.5 500 LINE",
"266 500 LINE",
"266 420 LINE"
);
}
);
width = 462;
}
);
leftKerningGroup = t;
leftMetricsKey = f;
rightKerningGroup = i;
rightMetricsKey = i;
},
